<svg xmlns="http://www.w3.org/2000/svg" width="136.926" height="208.926" viewBox="0 0 136.926 208.926">
  <g id="Groupe_53" data-name="Groupe 53" transform="translate(-364.222 -2337.305)">
    <circle id="Ellipse_69" data-name="Ellipse 69" cx="13.15" cy="13.15" r="13.15" transform="translate(387.594 2376.136) rotate(-144)" fill="#fff" stroke="#ffbe0b" stroke-miterlimit="10" stroke-width="3"/>
    <circle id="Ellipse_74" data-name="Ellipse 74" cx="13.15" cy="13.15" r="13.15" transform="translate(387.594 2418.136) rotate(-144)" fill="#fff" stroke="#ffbe0b" stroke-miterlimit="10" stroke-width="3"/>
    <circle id="Ellipse_77" data-name="Ellipse 77" cx="13.15" cy="13.15" r="13.15" transform="translate(387.594 2460.136) rotate(-144)" fill="#fff" stroke="#ffbe0b" stroke-miterlimit="10" stroke-width="3"/>
    <circle id="Ellipse_80" data-name="Ellipse 80" cx="13.15" cy="13.15" r="13.15" transform="translate(387.594 2502.136) rotate(-144)" fill="#fff" stroke="#ffbe0b" stroke-miterlimit="10" stroke-width="3"/>
    <circle id="Ellipse_83" data-name="Ellipse 83" cx="13.15" cy="13.15" r="13.15" transform="translate(387.594 2544.136) rotate(-144)" fill="#fff" stroke="#ffbe0b" stroke-miterlimit="10" stroke-width="3"/>
    <circle id="Ellipse_70" data-name="Ellipse 70" cx="13.15" cy="13.15" r="13.15" transform="translate(435.594 2376.136) rotate(-144)" fill="#fff" stroke="#ffbe0b" stroke-miterlimit="10" stroke-width="3"/>
    <circle id="Ellipse_72" data-name="Ellipse 72" cx="13.15" cy="13.15" r="13.15" transform="translate(435.594 2418.136) rotate(-144)" fill="#fff" stroke="#ffbe0b" stroke-miterlimit="10" stroke-width="3"/>
    <circle id="Ellipse_75" data-name="Ellipse 75" cx="13.15" cy="13.15" r="13.15" transform="translate(435.594 2460.136) rotate(-144)" fill="#fff" stroke="#ffbe0b" stroke-miterlimit="10" stroke-width="3"/>
    <circle id="Ellipse_78" data-name="Ellipse 78" cx="13.15" cy="13.15" r="13.15" transform="translate(435.594 2502.136) rotate(-144)" fill="#fff" stroke="#ffbe0b" stroke-miterlimit="10" stroke-width="3"/>
    <circle id="Ellipse_81" data-name="Ellipse 81" cx="13.15" cy="13.15" r="13.15" transform="translate(435.594 2544.136) rotate(-144)" fill="#fff" stroke="#ffbe0b" stroke-miterlimit="10" stroke-width="3"/>
    <circle id="Ellipse_71" data-name="Ellipse 71" cx="13.15" cy="13.15" r="13.15" transform="translate(483.594 2376.136) rotate(-144)" fill="#fff" stroke="#ffbe0b" stroke-miterlimit="10" stroke-width="3"/>
    <circle id="Ellipse_73" data-name="Ellipse 73" cx="13.15" cy="13.15" r="13.15" transform="translate(483.594 2418.136) rotate(-144)" fill="#fff" stroke="#ffbe0b" stroke-miterlimit="10" stroke-width="3"/>
    <circle id="Ellipse_76" data-name="Ellipse 76" cx="13.15" cy="13.15" r="13.15" transform="translate(483.594 2460.136) rotate(-144)" fill="#fff" stroke="#ffbe0b" stroke-miterlimit="10" stroke-width="3"/>
    <circle id="Ellipse_79" data-name="Ellipse 79" cx="13.15" cy="13.15" r="13.15" transform="translate(483.594 2502.136) rotate(-144)" fill="#fff" stroke="#ffbe0b" stroke-miterlimit="10" stroke-width="3"/>
    <circle id="Ellipse_82" data-name="Ellipse 82" cx="13.15" cy="13.15" r="13.15" transform="translate(483.594 2544.136) rotate(-144)" fill="#fff" stroke="#ffbe0b" stroke-miterlimit="10" stroke-width="3"/>
  </g>
</svg>
