<svg id="Calque_1" data-name="Calque 1" xmlns="http://www.w3.org/2000/svg" viewBox="0 0 818 818">
  <defs>
    <style>
      .cls-1 {
        fill: #ffbe0b;
      }

      .cls-2, .cls-3, .cls-4 {
        fill: #fff;
      }

      .cls-3, .cls-4, .cls-5 {
        stroke: #fff;
      }

      .cls-4, .cls-5 {
        stroke-miterlimit: 10;
      }

      .cls-5 {
        fill: none;
        stroke-width: 3px;
      }
    </style>
  </defs>
  <title>omg_gears</title>
  <g id="Groupe_72" data-name="Groupe 72">
    <g id="Groupe_71" data-name="Groupe 71">
      <circle id="Ellipse_68" data-name="Ellipse 68" class="cls-1" cx="409" cy="409" r="409"/>
    </g>
    <g id="Groupe_66" data-name="Groupe 66">
      <path id="Tracé_64" data-name="Tracé 64" class="cls-2" d="M347.61,515a22.83,22.83,0,0,1,6.5-5,12.57,12.57,0,0,1,2.94-1,10.37,10.37,0,0,1,2.78-.2,11.63,11.63,0,0,1,2.69.44,16.52,16.52,0,0,1,2.63.95c3.48,1.54,6.26,3.75,7.55,8a17.88,17.88,0,0,1,.68,3.63,28.3,28.3,0,0,1,0,4.51,56.47,56.47,0,0,1-2.4,12.23c2.56.77,5.12,1.45,7.7,2.06s5.17,1.13,7.76,1.57h0a56.77,56.77,0,0,1,3.3-12,27.81,27.81,0,0,1,2-4A18.14,18.14,0,0,1,394,523.3c3.06-3.24,6.53-4,10.33-3.83s7.2,1.23,10,4.75a18.64,18.64,0,0,1,1.95,3.13,28.65,28.65,0,0,1,1.66,4.2,56.05,56.05,0,0,1,2.21,12.26h0a136.83,136.83,0,0,0,15.73-2.21,67.79,67.79,0,0,1-1-6.81,45.36,45.36,0,0,1-.23-5.59,28.36,28.36,0,0,1,.45-4.5,17.73,17.73,0,0,1,1-3.55c1.68-4.14,4.66-6.09,8.28-7.3s7.16-1.45,11,.85a22.58,22.58,0,0,1,6,5.53,56.36,56.36,0,0,1,6.46,10.64h0a134.42,134.42,0,0,0,13.88-7.73h0a55.72,55.72,0,0,1-5.64-11.1,22.91,22.91,0,0,1-1.55-8c.07-4.48,2.14-7.36,5.06-9.8s6.14-3.92,10.55-3.18a22.69,22.69,0,0,1,7.6,3,56.37,56.37,0,0,1,9.89,7.57h0a133.54,133.54,0,0,0,10.14-12.24h0a56.67,56.67,0,0,1-9.28-8.29c-.55-.64-1-1.25-1.49-1.86s-.86-1.19-1.22-1.77a17.5,17.5,0,0,1-1.64-3.3c-1.56-4.2-.66-7.65,1.2-11s4.34-5.89,8.71-6.79a18.86,18.86,0,0,1,3.67-.35,29.64,29.64,0,0,1,4.51.4,56.46,56.46,0,0,1,11.94,3.52h0a131.84,131.84,0,0,0,5.06-15.06,56.54,56.54,0,0,1-11.65-4.41,23.11,23.11,0,0,1-6.56-4.88c-3-3.35-3.37-6.87-2.85-10.65s1.9-7,5.65-9.46a18.4,18.4,0,0,1,3.29-1.65,28.4,28.4,0,0,1,4.34-1.27,56.84,56.84,0,0,1,12.41-1.07h0a133.53,133.53,0,0,0-.76-15.87h0a56.33,56.33,0,0,1-12.45.12,29.23,29.23,0,0,1-4.44-.85,18.4,18.4,0,0,1-3.44-1.33c-4-2.07-5.64-5.21-6.52-8.92s-.78-7.27,1.86-10.89a22.8,22.8,0,0,1,6.07-5.47,55.68,55.68,0,0,1,11.19-5.45h0A135.34,135.34,0,0,0,529,348.28h0a56.47,56.47,0,0,1-11.56,4.58,22.82,22.82,0,0,1-8.14.8c-4.44-.5-7.14-2.81-9.29-6s-3.34-6.47-2.19-10.79a18.4,18.4,0,0,1,1.33-3.44,28.6,28.6,0,0,1,2.35-3.86,56.88,56.88,0,0,1,8.46-9.15h0a133.84,133.84,0,0,0-11.25-11.22h0a55.94,55.94,0,0,1-9.12,8.48,28.72,28.72,0,0,1-3.86,2.37,18.74,18.74,0,0,1-3.43,1.33c-4.31,1.15-7.67,0-10.82-2.19s-5.5-4.84-6-9.3a18.1,18.1,0,0,1,0-3.68q.09-1,.3-2.13c.13-.75.3-1.51.51-2.33a55.38,55.38,0,0,1,4.59-11.56h0a134.45,134.45,0,0,0-14.53-6.43h0A56.3,56.3,0,0,1,450.83,295a22.8,22.8,0,0,1-5.47,6.07c-3.62,2.64-7.16,2.73-10.86,1.86s-6.83-2.53-8.9-6.51a22.76,22.76,0,0,1-2.19-7.88,56.25,56.25,0,0,1,.09-12.44h0a133.49,133.49,0,0,0-15.87-.71h0a56.66,56.66,0,0,1-1,12.4c-.18.82-.37,1.58-.58,2.31s-.44,1.4-.68,2a17.72,17.72,0,0,1-1.64,3.29c-2.42,3.78-5.7,5.15-9.48,5.68s-7.31.11-10.67-2.84a18.36,18.36,0,0,1-2.49-2.72,28.49,28.49,0,0,1-2.4-3.82,56.32,56.32,0,0,1-4.41-11.65h0a135.81,135.81,0,0,0-15.06,5.05h0a56.5,56.5,0,0,1,3.5,11.95,28.31,28.31,0,0,1,.39,4.51c0,.67,0,1.32-.09,1.92a17.17,17.17,0,0,1-.26,1.75c-.91,4.37-3.46,6.84-6.79,8.69s-6.78,2.72-11,1.19a14.7,14.7,0,0,1-1.62-.71,18,18,0,0,1-1.68-.94,28,28,0,0,1-3.63-2.7,56.32,56.32,0,0,1-8.31-9.27h0a133.21,133.21,0,0,0-12.22,10.16,56.39,56.39,0,0,1,7.6,9.87,23.16,23.16,0,0,1,3,7.6c.75,4.4-.75,7.61-3.17,10.55a16,16,0,0,1-1.93,2,11.22,11.22,0,0,1-2.21,1.6,10.24,10.24,0,0,1-2.58,1.06,12.69,12.69,0,0,1-3.07.42,22.72,22.72,0,0,1-8-1.53A56.89,56.89,0,0,1,296,337.62c-.62,1-1.23,2-1.83,3-2.16,3.58-4.12,7.22-5.91,10.92h0A56.53,56.53,0,0,1,298.92,358a22.72,22.72,0,0,1,5.54,6c2.29,3.85,2.06,7.39.84,11s-3.15,6.57-7.3,8.26a23,23,0,0,1-8,1.45,56,56,0,0,1-12.39-1.24h0a134.76,134.76,0,0,0-2.18,15.74h0a55.42,55.42,0,0,1,12.25,2.17A22.75,22.75,0,0,1,295,405c3.52,2.75,4.59,6.13,4.77,9.95s-.56,7.28-3.8,10.36a18.22,18.22,0,0,1-2.95,2.22,27.64,27.64,0,0,1-4,2,56.24,56.24,0,0,1-12,3.32c.46,2.61,1,5.2,1.6,7.79s1.29,5.14,2.05,7.67c2.42-.72,4.64-1.26,6.67-1.65a47.27,47.27,0,0,1,5.56-.74,23,23,0,0,1,8.14.71c4.28,1.3,6.49,4.09,8,7.57s2.1,7,.18,11a23.14,23.14,0,0,1-5,6.49,56.18,56.18,0,0,1-10,7.41h0a134.4,134.4,0,0,0,9,13.11h0a56.22,56.22,0,0,1,10.52-6.65A29.22,29.22,0,0,1,318,484a18.5,18.5,0,0,1,3.62-.68c4.46-.34,7.52,1.45,10.22,4.13s4.48,5.75,4.15,10.22a22.51,22.51,0,0,1-2.27,7.85,56.16,56.16,0,0,1-6.62,10.53h0a134.91,134.91,0,0,0,13.12,9A56.36,56.36,0,0,1,347.61,515ZM336.06,365.89a85.21,85.21,0,1,1,29.15,116.94h0a85.22,85.22,0,0,1-29.16-116.94h0Z"/>
    </g>
    <g id="Groupe_67" data-name="Groupe 67">
      <path id="Tracé_65" data-name="Tracé 65" class="cls-3" d="M463,380.23,451.15,365l-4.07,3.18a55.47,55.47,0,0,0-8-6l1.94-4.79-17.9-7.22-1.93,4.79a56.61,56.61,0,0,0-9.95-1.22l-.72-5.12-19.11,2.68.72,5.11a55.17,55.17,0,0,0-9.23,3.93l-3.18-4.07L364.5,368.13l3.18,4.07a56,56,0,0,0-6,8l-4.78-1.93-7.23,17.89,4.8,1.94a57.35,57.35,0,0,0-1.23,9.94l-5.12.72,2.69,19.11,5.11-.71a55.85,55.85,0,0,0,3.92,9.23l-4.07,3.18,11.88,15.21,4.07-3.19a54.75,54.75,0,0,0,8,6l-1.94,4.79,17.93,7.32,2-4.92a55.75,55.75,0,0,0,9.88,1.25l.72,5.13,19.11-2.69-.71-5.11a56.71,56.71,0,0,0,9.23-3.92l3.18,4.07,15.21-11.88-3.19-4.08a55.94,55.94,0,0,0,6-8l4.79,1.93,7.23-17.89-4.8-1.94a56.38,56.38,0,0,0,1.22-9.95l5.13-.72L468,391.92l-5.11.72a56,56,0,0,0-3.92-9.23Z"/>
    </g>
    <circle id="Ellipse_48" data-name="Ellipse 48" class="cls-1" cx="409.41" cy="409.36" r="42.5"/>
    <g id="Groupe_68" data-name="Groupe 68">
      <circle id="Ellipse_49" data-name="Ellipse 49" class="cls-4" cx="528.91" cy="267.23" r="11.1"/>
      <circle id="Ellipse_52" data-name="Ellipse 52" class="cls-4" cx="303.22" cy="256.66" r="7.1"/>
      <circle id="Ellipse_45" data-name="Ellipse 45" class="cls-4" cx="576.82" cy="490.53" r="19.04"/>
      <circle id="Ellipse_44" data-name="Ellipse 44" class="cls-5" cx="409.14" cy="409.59" r="186.01"/>
      <circle id="Ellipse_61" data-name="Ellipse 61" class="cls-4" cx="225.98" cy="377.06" r="12.32"/>
      <circle id="Ellipse_53" data-name="Ellipse 53" class="cls-4" cx="398.23" cy="223.96" r="13.12"/>
      <circle id="Ellipse_54" data-name="Ellipse 54" class="cls-4" cx="458.75" cy="230.72" r="7.9"/>
    </g>
    <g id="Groupe_69" data-name="Groupe 69">
      <circle id="Ellipse_46" data-name="Ellipse 46" class="cls-4" cx="654.9" cy="411.77" r="9.22"/>
      <circle id="Ellipse_50" data-name="Ellipse 50" class="cls-4" cx="577.78" cy="228.88" r="18.9"/>
      <circle id="Ellipse_57" data-name="Ellipse 57" class="cls-4" cx="304.87" cy="185.84" r="7.84"/>
      <circle id="Ellipse_43" data-name="Ellipse 43" class="cls-5" cx="409.12" cy="409.91" r="247.05"/>
      <circle id="Ellipse_56" data-name="Ellipse 56" class="cls-4" cx="272.06" cy="203.01" r="17.51"/>
      <circle id="Ellipse_62" data-name="Ellipse 62" class="cls-4" cx="503.15" cy="638.47" r="14.75"/>
      <circle id="Ellipse_63" data-name="Ellipse 63" class="cls-4" cx="184.32" cy="306.49" r="13.37"/>
      <circle id="Ellipse_55" data-name="Ellipse 55" class="cls-4" cx="484.62" cy="174.85" r="11.52"/>
    </g>
    <g id="Groupe_70" data-name="Groupe 70">
      <circle id="Ellipse_47" data-name="Ellipse 47" class="cls-2" cx="715.14" cy="263.18" r="20.26"/>
      <circle id="Ellipse_51" data-name="Ellipse 51" class="cls-2" cx="661.69" cy="634.03" r="12.66"/>
      <circle id="Ellipse_42" data-name="Ellipse 42" class="cls-5" cx="408.96" cy="409.91" r="339.32"/>
      <circle id="Ellipse_59" data-name="Ellipse 59" class="cls-2" cx="414.89" cy="749.83" r="25.96"/>
      <circle id="Ellipse_60" data-name="Ellipse 60" class="cls-2" cx="84.61" cy="309.01" r="18.36"/>
      <circle id="Ellipse_58" data-name="Ellipse 58" class="cls-2" cx="342.5" cy="76.92" r="34.73"/>
    </g>
  </g>
</svg>
