<svg xmlns="http://www.w3.org/2000/svg" width="282.165" height="156.697" viewBox="0 0 282.165 156.697">
  <g id="Groupe_55" data-name="Groupe 55" transform="translate(-292.14 -4674.097)">
    <g id="Groupe_49" data-name="Groupe 49" transform="translate(919.445 9534.891) rotate(180)">
      <circle id="Ellipse_87" data-name="Ellipse 87" cx="26.15" cy="26.15" r="26.15" transform="matrix(0.848, 0.53, -0.53, 0.848, 580.885, 4706.164)" fill="#fff" stroke="#ffbe0b" stroke-miterlimit="10" stroke-width="3"/>
      <path id="Tracé_72" data-name="Tracé 72" d="M344.446,5028.114,452.7,4957.933" transform="matrix(-0.998, 0.07, -0.07, -0.998, 1283.555, 9734.037)" fill="#fff" stroke="#ffbe0b" stroke-linecap="round" stroke-width="6"/>
      <circle id="Ellipse_88" data-name="Ellipse 88" cx="26.15" cy="26.15" r="26.15" transform="matrix(0.848, 0.53, -0.53, 0.848, 476.246, 4786.66)" fill="#fff" stroke="#ffbe0b" stroke-miterlimit="10" stroke-width="3"/>
      <circle id="Ellipse_89" data-name="Ellipse 89" cx="26.15" cy="26.15" r="26.15" transform="translate(347.207 4760.947) rotate(-73)" fill="#fff" stroke="#ffbe0b" stroke-miterlimit="10" stroke-width="3"/>
      <path id="Tracé_73" data-name="Tracé 73" d="M344.446,5028.114,452.7,4957.933" transform="matrix(0.326, 0.946, -0.946, 0.326, 5021.895, 2780.911)" fill="#fff" stroke="#ffbe0b" stroke-linecap="round" stroke-width="6"/>
    </g>
    <g id="Groupe_50" data-name="Groupe 50" transform="translate(-53 -30)">
      <circle id="Ellipse_87-2" data-name="Ellipse 87" cx="26.15" cy="26.15" r="26.15" transform="matrix(0.848, 0.53, -0.53, 0.848, 580.885, 4706.164)" fill="#fff" stroke="#ffbe0b" stroke-miterlimit="10" stroke-width="3"/>
      <path id="Tracé_72-2" data-name="Tracé 72" d="M344.446,5028.114,452.7,4957.933" transform="matrix(-0.998, 0.07, -0.07, -0.998, 1283.555, 9734.037)" fill="#fff" stroke="#ffbe0b" stroke-linecap="round" stroke-width="6"/>
      <circle id="Ellipse_88-2" data-name="Ellipse 88" cx="26.15" cy="26.15" r="26.15" transform="matrix(0.848, 0.53, -0.53, 0.848, 476.246, 4786.66)" fill="#fff" stroke="#ffbe0b" stroke-miterlimit="10" stroke-width="3"/>
      <circle id="Ellipse_89-2" data-name="Ellipse 89" cx="26.15" cy="26.15" r="26.15" transform="translate(347.207 4760.947) rotate(-73)" fill="#fff" stroke="#ffbe0b" stroke-miterlimit="10" stroke-width="3"/>
      <path id="Tracé_73-2" data-name="Tracé 73" d="M344.446,5028.114,452.7,4957.933" transform="matrix(0.326, 0.946, -0.946, 0.326, 5021.895, 2780.911)" fill="#fff" stroke="#ffbe0b" stroke-linecap="round" stroke-width="6"/>
    </g>
  </g>
</svg>
