<svg xmlns="http://www.w3.org/2000/svg" width="818" height="818" viewBox="0 0 818 818">
  <g id="Groupe_58" data-name="Groupe 58" transform="translate(-2900 -2178)">
    <circle id="Ellipse_68" data-name="Ellipse 68" cx="409" cy="409" r="409" transform="translate(2900 2178)" fill="#ffbe0b"/>
    <g id="Groupe_52" data-name="Groupe 52" transform="translate(628.851 1.276)">
      <ellipse id="Ellipse_49" data-name="Ellipse 49" cx="11.105" cy="11.105" rx="11.105" ry="11.105" transform="matrix(-0.695, 0.719, -0.719, -0.695, 2815.761, 2443.688)" fill="#fff" stroke="#fff" stroke-miterlimit="10" stroke-width="1"/>
      <circle id="Ellipse_46" data-name="Ellipse 46" cx="9.218" cy="9.218" r="9.218" transform="matrix(-0.719, -0.695, 0.695, -0.719, 2926.269, 2601.527)" fill="#fff" stroke="#fff" stroke-miterlimit="10" stroke-width="1"/>
      <circle id="Ellipse_50" data-name="Ellipse 50" cx="18.898" cy="18.898" r="18.898" transform="matrix(-0.719, -0.695, 0.695, -0.719, 2849.385, 2432.32)" fill="#fff" stroke="#fff" stroke-miterlimit="10" stroke-width="1"/>
      <ellipse id="Ellipse_47" data-name="Ellipse 47" cx="20.258" cy="20.258" rx="20.258" ry="20.258" transform="translate(3007.245 2459.444) rotate(178)" fill="#fff" stroke="#fff" stroke-miterlimit="10" stroke-width="3"/>
      <ellipse id="Ellipse_52" data-name="Ellipse 52" cx="7.099" cy="7.099" rx="7.099" ry="7.099" transform="matrix(-0.695, 0.719, -0.719, -0.695, 2584.411, 2433.213)" fill="#fff" stroke="#fff" stroke-miterlimit="10" stroke-width="1"/>
      <ellipse id="Ellipse_45" data-name="Ellipse 45" cx="19.038" cy="19.038" rx="19.038" ry="19.038" transform="matrix(-0.695, 0.719, -0.719, -0.695, 2874.886, 2666.792)" fill="#fff" stroke="#fff" stroke-miterlimit="10" stroke-width="1"/>
      <ellipse id="Ellipse_57" data-name="Ellipse 57" cx="7.836" cy="7.836" rx="7.836" ry="7.836" transform="matrix(-0.719, -0.695, 0.695, -0.719, 2576.208, 2373.646)" fill="#fff" stroke="#fff" stroke-miterlimit="10" stroke-width="1"/>
      <circle id="Ellipse_51" data-name="Ellipse 51" cx="12.661" cy="12.661" r="12.661" transform="translate(2945.936 2822.967) rotate(178)" fill="#fff" stroke="#fff" stroke-miterlimit="10" stroke-width="3"/>
      <path id="Tracé_64" data-name="Tracé 64" d="M256.14,132.645a22.941,22.941,0,0,1-7.6-3.021,12.716,12.716,0,0,1-2.365-2.008,10.325,10.325,0,0,1-1.608-2.284,11.428,11.428,0,0,1-1.006-2.53,16.522,16.522,0,0,1-.54-2.74c-.469-3.784-.005-7.3,2.994-10.61A18.28,18.28,0,0,1,248.776,107a28.636,28.636,0,0,1,3.857-2.35,56.489,56.489,0,0,1,11.716-4.242q-.991-3.877-2.207-7.661T259.5,85.283s0,0,0,0a56.516,56.516,0,0,1-11.987,3.354,28.7,28.7,0,0,1-4.516.336,18.884,18.884,0,0,1-3.663-.388c-4.356-.957-6.8-3.537-8.6-6.888s-2.654-6.8-1.066-10.981a18.811,18.811,0,0,1,1.68-3.28,28.794,28.794,0,0,1,2.747-3.593,56.423,56.423,0,0,1,9.372-8.2h0a134.723,134.723,0,0,0-10-12.349,68.775,68.775,0,0,1-5.3,4.39,46.039,46.039,0,0,1-4.679,3.076,28.34,28.34,0,0,1-4.082,1.934,17.873,17.873,0,0,1-3.564.962c-4.422.688-7.621-.861-10.526-3.334s-4.933-5.392-4.943-9.876a22.735,22.735,0,0,1,1.655-8,56.319,56.319,0,0,1,5.791-11.015.011.011,0,0,0,0-.007A133.724,133.724,0,0,0,194.049,13.5s0,0,0,.007a56.383,56.383,0,0,1-6.608,10.547,22.848,22.848,0,0,1-6.082,5.458c-3.877,2.247-7.409,1.964-11,.71s-6.528-3.236-8.161-7.4a22.916,22.916,0,0,1-1.359-8.06,56.6,56.6,0,0,1,1.4-12.369.009.009,0,0,0,0-.007A134.192,134.192,0,0,0,146.529,0V.007A56.378,56.378,0,0,1,144.2,12.236c-.259.794-.532,1.536-.819,2.232s-.584,1.351-.893,1.956a17.789,17.789,0,0,1-1.983,3.105c-2.8,3.5-6.223,4.509-10.046,4.637s-7.288-.683-10.312-3.966a18.777,18.777,0,0,1-2.181-2.967,28.925,28.925,0,0,1-1.985-4.069,56.547,56.547,0,0,1-3.135-12.049.007.007,0,0,0,0,0A133.814,133.814,0,0,0,97.329,4.531a56.718,56.718,0,0,1,2.23,12.26,23.116,23.116,0,0,1-.814,8.134c-1.352,4.259-4.154,6.428-7.653,7.927s-7.015,2-11.023.037a18.538,18.538,0,0,1-3.11-1.973,28.5,28.5,0,0,1-3.327-3.071,56.418,56.418,0,0,1-7.3-10.083s0,0,0,0a134.9,134.9,0,0,0-13.215,8.82,0,0,0,0,1,0,0,56.523,56.523,0,0,1,6.516,10.613,29.128,29.128,0,0,1,1.551,4.245,17.957,17.957,0,0,1,.631,3.633c.281,4.471-1.554,7.515-4.284,10.181s-5.826,4.417-10.29,4.02a22.9,22.9,0,0,1-7.818-2.385A56.487,56.487,0,0,1,28.985,50.1s0,0,0-.005a134.5,134.5,0,0,0-9.16,12.983l.007,0a56.09,56.09,0,0,1,9.885,7.552,22.8,22.8,0,0,1,4.879,6.566c1.862,4.062,1.265,7.564-.323,11.025s-3.83,6.2-8.124,7.444a18.4,18.4,0,0,1-3.635.629,28.652,28.652,0,0,1-4.519-.03A56.418,56.418,0,0,1,5.8,93.726h0a133.883,133.883,0,0,0-3.823,15.422h0a56.467,56.467,0,0,1,11.96,3.448,28.549,28.549,0,0,1,4.02,2.089,18.694,18.694,0,0,1,2.908,2.256c3.206,3.106,3.929,6.588,3.7,10.4s-1.322,7.207-4.891,9.925a17.886,17.886,0,0,1-3.154,1.9c-.614.293-1.273.575-1.981.843s-1.45.521-2.252.76A56.212,56.212,0,0,1,.007,142.792H0a133.987,133.987,0,0,0,1.973,15.765s0,0,0,0a56.462,56.462,0,0,1,12.406-1.078,22.955,22.955,0,0,1,8.021,1.566c4.124,1.741,6.023,4.731,7.187,8.354s1.352,7.16-1,10.978a22.754,22.754,0,0,1-5.616,5.939,56.325,56.325,0,0,1-10.712,6.331l-.01,0a134.115,134.115,0,0,0,7.564,13.972l.007,0a56.163,56.163,0,0,1,11.163-5.507c.792-.274,1.546-.5,2.274-.693s1.43-.348,2.1-.466a17.738,17.738,0,0,1,3.67-.291c4.481.128,7.34,2.232,9.745,5.2s3.862,6.206,3.061,10.611A17.779,17.779,0,0,1,50.785,217a28.147,28.147,0,0,1-2.037,4.03,56.319,56.319,0,0,1-7.715,9.777l0,0a134.938,134.938,0,0,0,12.085,10.312,0,0,0,0,0,0,0,56.376,56.376,0,0,1,8.437-9.155,28.705,28.705,0,0,1,3.665-2.656q.873-.522,1.7-.913a17.1,17.1,0,0,1,1.625-.681c4.215-1.472,7.648-.55,10.948,1.352s5.826,4.4,6.667,8.781a16.619,16.619,0,0,1,.229,1.749c.049.607.072,1.248.062,1.924a28.687,28.687,0,0,1-.448,4.5,56.809,56.809,0,0,1-3.668,11.9l0,0a133.236,133.236,0,0,0,15,5.246,56.665,56.665,0,0,1,4.546-11.6,23.059,23.059,0,0,1,4.967-6.492c3.389-2.913,6.911-3.283,10.679-2.718a16.191,16.191,0,0,1,2.726.609,11.3,11.3,0,0,1,2.5,1.07,10.3,10.3,0,0,1,2.242,1.667,12.779,12.779,0,0,1,1.943,2.414,22.953,22.953,0,0,1,2.824,7.676,56.515,56.515,0,0,1,.89,12.428q1.735.044,3.475.044,6.274,0,12.406-.567V267.7a56.258,56.258,0,0,1,.071-12.441,22.684,22.684,0,0,1,2.306-7.846c2.119-3.946,5.273-5.569,8.99-6.39s7.256-.678,10.837,2.01a22.962,22.962,0,0,1,5.389,6.144,56.363,56.363,0,0,1,5.313,11.262v.005a133.314,133.314,0,0,0,14.613-6.235s0-.005,0-.008a56.182,56.182,0,0,1-4.449-11.619,22.776,22.776,0,0,1-.705-8.146c.542-4.441,2.893-7.1,6.067-9.217s6.531-3.273,10.84-2.074a18.26,18.26,0,0,1,3.426,1.374,28.526,28.526,0,0,1,3.828,2.4,56.421,56.421,0,0,1,9.032,8.585q3-2.6,5.851-5.379t5.524-5.712c-1.864-1.7-3.472-3.327-4.854-4.866a46.853,46.853,0,0,1-3.492-4.38,23,23,0,0,1-3.588-7.347c-1.085-4.338.163-7.666,2.355-10.786s4.923-5.4,9.37-5.83a22.818,22.818,0,0,1,8.127.915,56.445,56.445,0,0,1,11.5,4.75l.007,0a133.6,133.6,0,0,0,6.612-14.448h0a56.425,56.425,0,0,1-11.121-5.6,28.964,28.964,0,0,1-3.552-2.792,18,18,0,0,1-2.449-2.758c-2.592-3.648-2.636-7.187-1.724-10.882s2.622-6.805,6.617-8.822a22.793,22.793,0,0,1,7.9-2.1,56.232,56.232,0,0,1,12.438.249h.008a135.8,135.8,0,0,0,.927-15.861A56.484,56.484,0,0,1,256.14,132.645Zm-121.87,86.7a85.214,85.214,0,1,1,85.214-85.214A85.215,85.215,0,0,1,134.271,219.349Z" transform="translate(2864.375 2540.497) rotate(121)" fill="#fff"/>
      <path id="Tracé_65" data-name="Tracé 65" d="M3743.719,2119.894v-19.3h-5.167a55.755,55.755,0,0,0-2.591-9.688l4.47-2.581-9.649-16.712-4.482,2.588a56.532,56.532,0,0,0-7.087-7.087l2.589-4.482-16.713-9.649-2.581,4.47a55.725,55.725,0,0,0-9.688-2.591V2049.7h-19.3v5.167a55.722,55.722,0,0,0-9.688,2.591l-2.581-4.47-16.712,9.649,2.588,4.482a56.513,56.513,0,0,0-7.087,7.087l-4.482-2.588-9.649,16.712,4.47,2.581a55.712,55.712,0,0,0-2.591,9.688h-5.167v19.3h5.167a55.714,55.714,0,0,0,2.591,9.688l-4.47,2.581,9.618,16.8,4.583-2.653a55.806,55.806,0,0,0,7.018,7.065l-2.588,4.482,16.712,9.649,2.581-4.47a55.744,55.744,0,0,0,9.688,2.591v5.167h19.3v-5.167a55.746,55.746,0,0,0,9.688-2.591l2.581,4.47,16.713-9.649-2.589-4.482a56.485,56.485,0,0,0,7.087-7.087l4.482,2.588,9.649-16.712-4.47-2.581a55.757,55.757,0,0,0,2.591-9.688Z" transform="translate(-1521.046 3191.315) rotate(-38)" fill="#fff" stroke="#fff" stroke-width="1"/>
      <circle id="Ellipse_48" data-name="Ellipse 48" cx="42.5" cy="42.5" r="42.5" transform="translate(2620.899 2578.761) rotate(-38)" fill="#ffbe0b"/>
      <ellipse id="Ellipse_44" data-name="Ellipse 44" cx="186.016" cy="186.016" rx="186.016" ry="186.016" transform="matrix(-0.695, 0.719, -0.719, -0.695, 2943.311, 2581.845)" fill="none" stroke="#fff" stroke-miterlimit="10" stroke-width="3"/>
      <circle id="Ellipse_43" data-name="Ellipse 43" cx="247.053" cy="247.053" r="247.053" transform="matrix(-0.719, -0.695, 0.695, -0.719, 2686.202, 2935.963)" fill="none" stroke="#fff" stroke-miterlimit="10" stroke-width="3"/>
      <circle id="Ellipse_56" data-name="Ellipse 56" cx="17.515" cy="17.515" r="17.515" transform="matrix(-0.719, -0.695, 0.695, -0.719, 2543.626, 2404.502)" fill="#fff" stroke="#fff" stroke-miterlimit="10" stroke-width="1"/>
      <circle id="Ellipse_42" data-name="Ellipse 42" cx="339.319" cy="339.319" r="339.319" transform="translate(3031.059 2913.901) rotate(178)" fill="none" stroke="#fff" stroke-miterlimit="10" stroke-width="3"/>
      <circle id="Ellipse_59" data-name="Ellipse 59" cx="25.955" cy="25.955" r="25.955" transform="translate(2712.881 2951.588) rotate(178)" fill="#fff" stroke="#fff" stroke-miterlimit="10" stroke-width="1"/>
      <circle id="Ellipse_60" data-name="Ellipse 60" cx="18.359" cy="18.359" r="18.359" transform="translate(2374.75 2503.439) rotate(178)" fill="#fff" stroke="#fff" stroke-miterlimit="10" stroke-width="1"/>
      <ellipse id="Ellipse_61" data-name="Ellipse 61" cx="12.317" cy="12.317" rx="12.317" ry="12.317" transform="matrix(-0.695, 0.719, -0.719, -0.695, 2514.549, 2553.488)" fill="#fff" stroke="#fff" stroke-miterlimit="10" stroke-width="1"/>
      <ellipse id="Ellipse_62" data-name="Ellipse 62" cx="14.749" cy="14.749" rx="14.749" ry="14.749" transform="matrix(-0.719, -0.695, 0.695, -0.719, 2774.656, 2836.046)" fill="#fff" stroke="#fff" stroke-miterlimit="10" stroke-width="1"/>
      <circle id="Ellipse_63" data-name="Ellipse 63" cx="13.367" cy="13.367" r="13.367" transform="matrix(-0.719, -0.695, 0.695, -0.719, 2455.785, 2502.111)" fill="#fff" stroke="#fff" stroke-miterlimit="10" stroke-width="1"/>
      <ellipse id="Ellipse_53" data-name="Ellipse 53" cx="13.12" cy="13.12" rx="13.12" ry="13.12" transform="matrix(-0.695, 0.719, -0.719, -0.695, 2687.932, 2400.368)" fill="#fff" stroke="#fff" stroke-miterlimit="10" stroke-width="1"/>
      <ellipse id="Ellipse_54" data-name="Ellipse 54" cx="7.902" cy="7.902" rx="7.902" ry="7.902" transform="matrix(-0.695, 0.719, -0.719, -0.695, 2741.074, 2407.252)" fill="#fff" stroke="#fff" stroke-miterlimit="10" stroke-width="1"/>
      <circle id="Ellipse_55" data-name="Ellipse 55" cx="11.523" cy="11.523" r="11.523" transform="matrix(-0.719, -0.695, 0.695, -0.719, 2756.041, 2367.862)" fill="#fff" stroke="#fff" stroke-miterlimit="10" stroke-width="1"/>
      <circle id="Ellipse_58" data-name="Ellipse 58" cx="34.728" cy="34.728" r="34.728" transform="translate(2649.569 2287.137) rotate(178)" fill="#fff" stroke="#fff" stroke-miterlimit="10" stroke-width="3"/>
    </g>
  </g>
</svg>
