<svg xmlns="http://www.w3.org/2000/svg" width="914.681" height="365.775" viewBox="0 0 914.681 365.775">
  <g id="Groupe_59" data-name="Groupe 59" transform="translate(-584 -9008.254)">
    <g id="Groupe_23" data-name="Groupe 23" transform="translate(584 9253.981)">
      <g id="Groupe_15" data-name="Groupe 15" transform="translate(814.008 36.849)">
        <path id="Tracé_27" data-name="Tracé 27" d="M816.851,959.64h11.782l16.285,47H831.813l-2.847-9.2H816.455l-2.78,9.2H800.5Zm10.064,29.193-4.173-14.562-4.367,14.563Z" transform="translate(-800.502 -959.64)" fill="#fff"/>
        <path id="Tracé_28" data-name="Tracé 28" d="M853.007,1004.442a21.89,21.89,0,0,1-8.143-1.422,17.255,17.255,0,0,1-5.991-3.873,16.638,16.638,0,0,1-3.673-5.627,18.007,18.007,0,0,1-1.258-6.685,20.761,20.761,0,0,1,1.226-7.148,16.51,16.51,0,0,1,3.641-5.891,17.547,17.547,0,0,1,5.955-4.005,23.458,23.458,0,0,1,16.453,0,17.722,17.722,0,0,1,5.988,3.972,16.407,16.407,0,0,1,3.641,5.757,19.412,19.412,0,0,1,1.225,6.852c0,.661-.032,1.337-.1,2.019s-.144,1.293-.229,1.821H847.315a4.885,4.885,0,0,0,2.051,4.005,7.16,7.16,0,0,0,4.037,1.222,8.4,8.4,0,0,0,3.873-.924,4.652,4.652,0,0,0,2.414-2.583l10.659,3.047a16.778,16.778,0,0,1-6.52,6.817A20.652,20.652,0,0,1,853.007,1004.442Zm5.559-21.776a6.457,6.457,0,0,0-1.85-3.973,5.963,5.963,0,0,0-7.813,0,6.466,6.466,0,0,0-1.852,3.973Z" transform="translate(-789.462 -956.781)" fill="#fff"/>
      </g>
      <path id="Tracé_29" data-name="Tracé 29" d="M899.641,938.941v106.7H792.94v-106.7h106.7m6.018-6.018H786.922v118.736H905.659V932.923Z" transform="translate(9.023 -931.612)" fill="#fff"/>
      <g id="Groupe_17" data-name="Groupe 17" transform="translate(596.688 0.177)">
        <g id="Groupe_16" data-name="Groupe 16" transform="translate(28.586 34.216)">
          <path id="Tracé_30" data-name="Tracé 30" d="M658.614,968.384V957.793h12.579v10.591Zm0,37.731V971.3h12.579v34.82Z" transform="translate(-658.614 -957.793)" fill="#fff"/>
          <path id="Tracé_31" data-name="Tracé 31" d="M673.494,1005.787v-47h18.071a26.455,26.455,0,0,1,10.261,1.854,20.652,20.652,0,0,1,11.916,12.477,26.875,26.875,0,0,1,1.522,9.1,26.516,26.516,0,0,1-1.687,9.7,21.05,21.05,0,0,1-4.8,7.417,21.539,21.539,0,0,1-7.481,4.766,26.811,26.811,0,0,1-9.733,1.687Zm28.665-23.566a16.111,16.111,0,0,0-.729-4.965,11.092,11.092,0,0,0-2.086-3.838A9.436,9.436,0,0,0,696,970.934a10.7,10.7,0,0,0-4.437-.893H686.4v24.491h5.162a10.543,10.543,0,0,0,4.5-.924,9.377,9.377,0,0,0,3.344-2.583,11.31,11.31,0,0,0,2.051-3.905A16.493,16.493,0,0,0,702.159,982.22Z" transform="translate(-653.701 -957.465)" fill="#fff"/>
        </g>
        <path id="Tracé_32" data-name="Tracé 32" d="M749.841,938.088v106.7h-106.7v-106.7h106.7m6.019-6.018H637.123v118.737H755.859V932.07Z" transform="translate(-637.123 -932.07)" fill="#fff"/>
      </g>
      <g id="Groupe_19" data-name="Groupe 19" transform="translate(397.432 0)">
        <g id="Groupe_18" data-name="Groupe 18" transform="translate(29.347 34.216)">
          <path id="Tracé_33" data-name="Tracé 33" d="M525.736,958.654H537.52l16.284,47H540.7l-2.848-9.2H525.34l-2.78,9.2H509.387ZM535.8,987.847l-4.171-14.562-4.367,14.563Z" transform="translate(-509.387 -957.332)" fill="#fff"/>
          <path id="Tracé_34" data-name="Tracé 34" d="M545.068,968.249V957.66h12.579v10.589Zm0,37.733V971.161h12.579v34.821Z" transform="translate(-497.607 -957.66)" fill="#fff"/>
        </g>
        <path id="Tracé_35" data-name="Tracé 35" d="M600.042,937.955v106.7h-106.7v-106.7h106.7m6.018-6.018H487.324v118.736H606.059V931.937Z" transform="translate(-487.324 -931.937)" fill="#fff"/>
      </g>
      <g id="Groupe_20" data-name="Groupe 20" transform="translate(0 13.945)">
        <path id="Tracé_36" data-name="Tracé 36" d="M230.656,942.421,188.538,1043.2V942.421Z" transform="translate(-188.538 -942.421)" fill="#fff"/>
        <path id="Tracé_37" data-name="Tracé 37" d="M244.514,942.421,286.631,1043.2V942.421Z" transform="translate(-170.057 -942.421)" fill="#fff"/>
        <line id="Ligne_1" data-name="Ligne 1" y1="0.01" transform="translate(0 100.779)" fill="none"/>
        <path id="Tracé_38" data-name="Tracé 38" d="M262.361,1033.305H245.378l-8.561-20.495h-16.8l8.4-20.1,8.491-20.3Z" transform="translate(-178.146 -932.516)" fill="#fff"/>
        <line id="Ligne_2" data-name="Ligne 2" y1="0.01" transform="translate(58.761 39.892)" fill="#ffbe0b"/>
      </g>
      <g id="Groupe_22" data-name="Groupe 22" transform="translate(198.175 0.443)">
        <g id="Groupe_21" data-name="Groupe 21" transform="translate(24.748 35.538)">
          <path id="Tracé_39" data-name="Tracé 39" d="M356.129,1005.985v-47h20.257a14.312,14.312,0,0,1,6.353,1.422,16.525,16.525,0,0,1,5,3.708,17.311,17.311,0,0,1,3.278,5.23,15.654,15.654,0,0,1,1.192,5.923,17.245,17.245,0,0,1-4.268,11.286,14.986,14.986,0,0,1-4.9,3.641,14.624,14.624,0,0,1-6.324,1.358h-7.678v14.43ZM369.037,980.3h6.82a3.019,3.019,0,0,0,2.216-1.093q1.027-1.087,1.026-3.937,0-2.913-1.19-3.972a3.609,3.609,0,0,0-2.382-1.059h-6.488Z" transform="translate(-356.129 -958.987)" fill="#fff"/>
          <path id="Tracé_40" data-name="Tracé 40" d="M401.344,1003.8a27.494,27.494,0,0,1-8.936-1.49,20.209,20.209,0,0,1-7.414-4.334l4.3-7.546a33.188,33.188,0,0,0,6.256,3.376A15.145,15.145,0,0,0,401.08,995q2.644,0,2.647-1.655a1.9,1.9,0,0,0-1.026-1.59,17.307,17.307,0,0,0-4.005-1.522,58.923,58.923,0,0,1-6.191-2.086,17.93,17.93,0,0,1-4.038-2.216,7.053,7.053,0,0,1-2.215-2.647,8.226,8.226,0,0,1-.664-3.444,11.347,11.347,0,0,1,1.06-4.9,11.889,11.889,0,0,1,2.945-3.905,13.208,13.208,0,0,1,4.5-2.547,17.6,17.6,0,0,1,5.726-.9,26.527,26.527,0,0,1,7.315.994,18.647,18.647,0,0,1,6.983,4.04l-4.766,7.546a34.131,34.131,0,0,0-5.427-3.011,10.881,10.881,0,0,0-4.1-.894,3.622,3.622,0,0,0-1.854.43,1.467,1.467,0,0,0-.729,1.358,1.858,1.858,0,0,0,1.061,1.621,18.116,18.116,0,0,0,4.17,1.422,47.575,47.575,0,0,1,6.356,2.087,16.665,16.665,0,0,1,4.137,2.382,7.47,7.47,0,0,1,2.216,2.912,9.858,9.858,0,0,1,.664,3.74,11.255,11.255,0,0,1-.994,4.831,10.182,10.182,0,0,1-2.88,3.641,13.1,13.1,0,0,1-4.569,2.318A21.3,21.3,0,0,1,401.344,1003.8Z" transform="translate(-346.599 -956.145)" fill="#fff"/>
        </g>
        <path id="Tracé_41" data-name="Tracé 41" d="M450.243,938.288v106.7h-106.7v-106.7h106.7m6.018-6.018H337.524v118.735H456.26V932.27Z" transform="translate(-337.524 -932.27)" fill="#fff"/>
      </g>
    </g>
    <g id="Groupe_28" data-name="Groupe 28" transform="translate(45.136 2011)">
      <g id="Groupe_24" data-name="Groupe 24" transform="translate(538.864 6997.254)">
        <path id="Tracé_42" data-name="Tracé 42" d="M725.889,494.6c.206.068.42.136.633.21l73.372,26.16c3.571,1.272,7.137,2.554,10.714,3.806.742.26,1.022.538.9,1.458-.691,5.224-1.266,10.463-1.878,15.7q-1.126,9.655-2.249,19.309c-.542,4.707-1.058,9.417-1.6,14.126q-1.008,8.752-2.039,17.5-1.011,8.7-2.014,17.4-1.571,13.668-3.121,27.335a1.725,1.725,0,0,1-1.016,1.474q-25.537,14.12-51.051,28.281-9.951,5.513-19.9,11.036a1.331,1.331,0,0,1-1.519-.006Q704,666.635,682.845,654.928q-14.38-7.966-28.778-15.907a1.713,1.713,0,0,1-.981-1.486q-2.279-19.9-4.6-39.791-2.106-18.257-4.185-36.519c-1.33-11.528-2.655-23.057-4.07-34.575-.165-1.344.39-1.668,1.423-2.035q19.674-6.967,39.329-13.99,22.123-7.889,44.24-15.792C725.435,494.757,725.65,494.685,725.889,494.6ZM672.145,635.126c.536.041.862.087,1.185.087,5.96.008,11.918-.014,17.878.035.926.008,1.243-.425,1.536-1.159,3.264-8.209,6.564-16.4,9.8-24.622a1.554,1.554,0,0,1,1.725-1.175q21.35.04,42.7-.027a1.9,1.9,0,0,1,2.09,1.49c3.216,8.147,6.48,16.276,9.7,24.422a1.465,1.465,0,0,0,1.608,1.066c5.845-.039,11.691-.027,17.536-.031h1.46q-26.783-60.274-53.383-120.135l-.34.058Q698.932,575.053,672.145,635.126Z" transform="translate(-640.201 -494.6)" fill="#fff"/>
        <path id="Tracé_43" data-name="Tracé 43" d="M689.906,523.689l15.367,36.991H674.2l15.361-36.971Z" transform="translate(-604.105 -463.719)" fill="#fff"/>
      </g>
      <path id="Tracé_55" data-name="Tracé 55" d="M337.524,678.382V494.6H521.307V678.382Zm140.64-14.873c1.9-.093,3.525-.082,5.127-.272a33.024,33.024,0,0,0,9.732-2.676,23.385,23.385,0,0,0,9.1-7.017,22.129,22.129,0,0,0,4.365-12.936,27.213,27.213,0,0,0-.581-6.86,22.019,22.019,0,0,0-3.978-9.067,25.826,25.826,0,0,0-5.948-5.53,70.068,70.068,0,0,0-10.5-5.732c-2.909-1.349-5.864-2.6-8.771-3.953a22.521,22.521,0,0,1-4.56-2.662,7.652,7.652,0,0,1-2.926-7.762,6.271,6.271,0,0,1,4.266-5.013,11.813,11.813,0,0,1,7.225-.161,9.6,9.6,0,0,1,5.1,3.539c.646.8,1.2,1.67,1.849,2.469.562.7.793.537,1.3.2,3.8-2.547,7.626-5.071,11.427-7.626,1.1-.743,1.128-.836.366-1.9-.943-1.311-1.927-2.6-2.961-3.838a21.807,21.807,0,0,0-8.847-6.5,23.472,23.472,0,0,0-6.053-1.7,62.229,62.229,0,0,0-7.766-.338,24.5,24.5,0,0,0-6.3.93,22.48,22.48,0,0,0-13.905,10.451,20.673,20.673,0,0,0-2.74,8.306,35.529,35.529,0,0,0,.012,6.382,16.672,16.672,0,0,0,.657,4.048,24.144,24.144,0,0,0,8.351,11.987,47.367,47.367,0,0,0,8.915,5.235c3.335,1.536,6.71,2.987,10.029,4.56,1.789.848,3.514,1.836,5.231,2.827a8.078,8.078,0,0,1,2.567,2.382,7.819,7.819,0,0,1-.807,9.487,10.148,10.148,0,0,1-3.918,2.388,17.893,17.893,0,0,1-9.99.387,13.559,13.559,0,0,1-6.292-3.01,35.93,35.93,0,0,1-2.893-2.817c-.941-1.058-1.756-2.23-2.619-3.356-.552-.719-.546-.723-1.347-.253-.064.037-.126.076-.189.111q-3.842,2.239-7.682,4.478-2.344,1.374-4.672,2.781c-.727.443-.737.509-.317,1.279.282.517.587,1.021.908,1.511a31.318,31.318,0,0,0,5.246,6.5,33.806,33.806,0,0,0,9.782,6.012,31.32,31.32,0,0,0,8.546,2.312C473.943,663.324,476.2,663.388,478.164,663.509Zm-59.27-1.12V595.537c0-1.079-.078-1.056,1.027-1.056q10.843,0,21.686,0c.245,0,.49,0,.735-.01a.442.442,0,0,0,.465-.461c.012-.146.016-.294.016-.441q-.056-6.686-.115-13.374c-.008-.832-.124-.949-.931-.962-2.817-.045-5.635-.119-8.452-.115q-21.609.034-43.221.1-5.661.012-11.319.012c-.8,0-.85.054-.865.815-.051,2.567.049,5.137-.121,7.706-.121,1.855-.025,3.724-.023,5.586,0,1.145,0,1.145,1.132,1.147h21.612c1.315,0,1.19-.093,1.19,1.184v66.719a10.056,10.056,0,0,0,1.011.109q7.569.009,15.143,0C418.175,662.494,418.486,662.433,418.894,662.389Z" transform="translate(476.823 6502.9)" fill="#fff"/>
      <g id="Groupe_27" data-name="Groupe 27" transform="translate(-7696.002 2186.859)">
        <path id="Tracé_56" data-name="Tracé 56" d="M8822.692,4936.56c-6.9-4.869-12.991-9.1-19.015-13.43-8.353-6-16.322-12.366-22.507-20.8-8.021-10.936-7.675-21.937-1.207-33.285,7.315-12.834,17.824-22.658,29.893-30.775,18.3-12.311,37.953-21.886,59.8-25.99,12.595-2.365,25.36-2.488,37.713,1.721,19.752,6.729,26.783,22.191,19,41.559A57.658,57.658,0,0,1,8900.445,4885c-15.687,8.789-32.582,12.41-50.531,9.775a24.907,24.907,0,0,1-16.456-9.443,7.334,7.334,0,0,1-1.6-2.843,15.437,15.437,0,0,1,.133-3.751,10.821,10.821,0,0,1,3.009,1.423,22.248,22.248,0,0,0,14.537,6.284c23.687.947,43.715-7.116,58.694-25.78,3.31-4.123,5.359-9.609,6.8-14.8,2.1-7.536-1.707-13.711-9.009-16.631-10.9-4.359-22.035-3.689-33.205-1.472-19.042,3.781-35.957,12.4-51.94,23.076-8.494,5.673-16.245,12.127-21.876,20.834-7.795,12.054-6.992,24.339,3.33,34.3,7.363,7.106,16.079,12.816,23.375,19.981,4.938,4.849,8.815,5.169,14.245,1.362,4.378-3.07,9.389-5.225,14.037-7.928,1.33-.773,2.328-2.1,3.554-3.074,4.74-3.779,9.109-8.253,14.36-11.106,8.108-4.408,13.887-.418,14.076,8.858.023,1.2,0,2.4,0,3.422.51.318.705.545.912.554,6.877.316,7.679,1.41,6.029,8.058-1.735,7-3.47,14-5.085,21.023a34.321,34.321,0,0,0-.415,5.19l1.117.285c2.641-5.572,5.357-11.109,7.9-16.726q6.2-13.7,12.189-27.486a49.527,49.527,0,0,0,2.8-8.324c.712-3.034,2.319-4.739,5.411-5.051.484-.05.961-.18,1.446-.237,9.024-1.072,10.344.454,7.758,9.021-2.155,7.142-1.192,13.866,2.268,20.517.674-.393,1.107-.493,1.253-.754,5.339-9.443,11.649-18.409,14.312-29.173,1.5-6.077,9.49-9.418,15.032-6.384,2.343,1.283,1.871,3.121,1.156,5.061-2.075,5.621-2.97,11.341-1.437,17.261.216.828.405,1.665.688,2.47,2.73,7.831,2.94,7.924,10.8,5.681,12.593-3.6,24.952-3.671,36.5,3.318,8.4,5.086,13.435,12.425,12.817,22.688-.4,6.67-4.238,11.009-10.174,13.6a10.858,10.858,0,0,1-3.265.339q-.722-.973-1.441-1.947c1.209-.538,2.475-.98,3.617-1.632,6.4-3.655,7.975-12.746,1.685-20.111-5.448-6.38-12.847-9.1-20.793-9.469-6.5-.3-13.071.816-19.592,1.5-1.864.194-2.874,1.271-2.381,3.619,2.516,11.944-2.182,20.172-14.057,24.977-1.018.413-2.064.759-3.1,1.126-7.936,2.8-12-.524-10.408-8.839,1.316-6.866,5.479-12.246,10.483-16.848,2.492-2.289,2.9-4.074,1.376-7.2-2.011-4.119-3.187-8.645-4.844-13.344-.531.728-1.1,1.394-1.546,2.139-3.615,6.091-7.3,12.146-10.731,18.34a8.823,8.823,0,0,0-.679,4.765c.151,1.8,1.01,3.524,1.325,5.323,1.534,8.8-1.834,16.32-9.868,20.119a63.742,63.742,0,0,1-14.939,4.516c-1.865.367-5.062-.761-5.957-2.235-.86-1.418-.2-4.651.957-6.241,4.23-5.824,8.859-11.368,13.517-16.865,2.035-2.4,2.07-4.424.717-7.252-2.2-4.6-3.787-9.482-5.8-14.675-.5.855-.993,1.565-1.366,2.331-6.488,13.275-12.858,26.612-19.526,39.8a23.879,23.879,0,0,1-5.8,6.981c-3.632,3.117-7.983,1.843-9.783-2.613a23.815,23.815,0,0,1-1.316-5.318c-.265-1.748-.224-3.54-.359-6.136-2.571,5.09-4.6,9.491-6.973,13.7-2.939,5.217-8.274,7.156-12.641,4.319a16.208,16.208,0,0,1-5.08-6.045c-4.757-9.141-4.515-18.828-2.472-28.615.276-1.313.594-2.617.882-3.928a7.343,7.343,0,0,0-.219-1.189c-3.79,2.22-7.43,4.212-10.858,6.519-.5.333-.178,2.229.1,3.313,3.793,14.57,1.666,28-8.269,39.564-8.47,9.859-19.362,14.683-32.521,13.639-8.7-.69-13.772-6.205-14.358-15.042-.771-11.65,5.148-19.89,13.787-26.42,6.215-4.7,12.986-8.667,19.549-12.906C8818.026,4939.023,8819.879,4938.125,8822.692,4936.56Zm6.039,6.265a14.886,14.886,0,0,0-2.784,1.1c-5.6,3.892-11.36,7.6-16.7,11.833-5.545,4.4-9.964,9.8-10.651,17.269-.521,5.641,2.464,8.181,8.036,7.178,6.884-1.24,12.006-5.309,16.249-10.5C8829.205,4961.958,8831.274,4953.152,8828.731,4942.825Zm30.67,4.763c.328,1.769.693,4.3,1.313,6.762.207.819,1.006,1.977,1.655,2.063a3,3,0,0,0,2.228-1.47,50.167,50.167,0,0,0,3.69-7.54q5.3-14.8,10.26-29.721c.319-.957.1-2.791-.529-3.188-.759-.481-2.275-.041-3.348.33a6.917,6.917,0,0,0-2.371,1.68C8863.791,4924.8,8860.471,4935.291,8859.4,4947.588Zm88.443,1.144c7.428-1.92,11.407-9.454,8.325-15.007A25.858,25.858,0,0,0,8947.845,4948.732ZM8923.5,4945.4q-4.538,5.4-9.071,10.8C8919.343,4954.088,8923.011,4950.972,8923.5,4945.4Z" transform="translate(0 0)" fill="#fff"/>
      </g>
    </g>
  </g>
</svg>
