<svg xmlns="http://www.w3.org/2000/svg" width="643.552" height="643.552" viewBox="0 0 643.552 643.552">
  <g id="Groupe_65" data-name="Groupe 65" transform="translate(-2237.033 -8679.875)">
    <g id="skills-one" data-name="Groupe 62">
      <ellipse id="Ellipse_44" data-name="Ellipse 44" cx="125.465" cy="125.465" rx="125.465" ry="125.465" transform="translate(2700.691 9108.406) rotate(172)" fill="none" stroke="#fff" stroke-miterlimit="10" stroke-width="1"/>
      <ellipse id="Ellipse_61" data-name="Ellipse 61" cx="8.308" cy="8.308" rx="8.308" ry="8.308" transform="translate(2484.579 8915.288) rotate(172)" fill="#fff" stroke="#fff" stroke-miterlimit="10" stroke-width="1"/>
      <ellipse id="Ellipse_49" data-name="Ellipse 49" cx="7.49" cy="7.49" rx="7.49" ry="7.49" transform="translate(2690.269 8982.01) rotate(172)" fill="#fff" stroke="#fff" stroke-miterlimit="10" stroke-width="1"/>
      <ellipse id="Ellipse_53" data-name="Ellipse 53" cx="8.849" cy="8.849" rx="8.849" ry="8.849" transform="translate(2640.316 8905.902) rotate(172)" fill="#fff" stroke="#fff" stroke-miterlimit="10" stroke-width="1"/>
      <ellipse id="Ellipse_54" data-name="Ellipse 54" cx="5.33" cy="5.33" rx="5.33" ry="5.33" transform="translate(2665.703 8931.629) rotate(172)" fill="#fff" stroke="#fff" stroke-miterlimit="10" stroke-width="1"/>
      <ellipse id="Ellipse_52" data-name="Ellipse 52" cx="4.788" cy="4.788" rx="4.788" ry="4.788" transform="translate(2571.656 8880.373) rotate(172)" fill="#fff" stroke="#fff" stroke-miterlimit="10" stroke-width="1"/>
      <ellipse id="Ellipse_45" data-name="Ellipse 45" cx="12.841" cy="12.841" rx="12.841" ry="12.841" transform="translate(2629.049 9125.141) rotate(172)" fill="#fff" stroke="#fff" stroke-miterlimit="10" stroke-width="1"/>
    </g>
    <g id="skills-two" data-name="Groupe 63">
      <circle id="Ellipse_43" data-name="Ellipse 43" cx="166.634" cy="166.634" r="166.634" transform="translate(2416.988 9189.854) rotate(-98)" fill="none" stroke="#fff" stroke-miterlimit="10" stroke-width="1"/>
      <circle id="Ellipse_56" data-name="Ellipse 56" cx="11.814" cy="11.814" r="11.814" transform="translate(2561.901 8848.176) rotate(-98)" fill="#fff" stroke="#fff" stroke-miterlimit="10" stroke-width="1"/>
      <ellipse id="Ellipse_62" data-name="Ellipse 62" cx="9.948" cy="9.948" rx="9.948" ry="9.948" transform="translate(2505.493 9173.479) rotate(-98)" fill="#fff" stroke="#fff" stroke-miterlimit="10" stroke-width="1"/>
      <circle id="Ellipse_63" data-name="Ellipse 63" cx="9.016" cy="9.016" r="9.016" transform="translate(2474.681 8863.58) rotate(-98)" fill="#fff" stroke="#fff" stroke-miterlimit="10" stroke-width="1"/>
      <circle id="Ellipse_64" data-name="Ellipse 64" cx="17.054" cy="17.054" r="17.054" transform="translate(2377.587 9017.17) rotate(-98)" fill="#fff" stroke="#fff" stroke-miterlimit="10" stroke-width="1"/>
      <circle id="Ellipse_46" data-name="Ellipse 46" cx="6.218" cy="6.218" r="6.218" transform="translate(2683.46 9111.79) rotate(-98)" fill="#fff" stroke="#fff" stroke-miterlimit="10" stroke-width="1"/>
      <circle id="Ellipse_50" data-name="Ellipse 50" cx="12.746" cy="12.746" r="12.746" transform="translate(2712.86 8989.93) rotate(-98)" fill="#fff" stroke="#fff" stroke-miterlimit="10" stroke-width="1"/>
      <circle id="Ellipse_55" data-name="Ellipse 55" cx="7.772" cy="7.772" r="7.772" transform="translate(2690.015 8916.908) rotate(-98)" fill="#fff" stroke="#fff" stroke-miterlimit="10" stroke-width="1"/>
      <ellipse id="Ellipse_57" data-name="Ellipse 57" cx="5.285" cy="5.285" rx="5.285" ry="5.285" transform="translate(2592.031 8845.306) rotate(-98)" fill="#fff" stroke="#fff" stroke-miterlimit="10" stroke-width="1"/>
    </g>
    <g id="skills-three" data-name="Groupe 64">
      <circle id="Ellipse_42" data-name="Ellipse 42" cx="228.866" cy="228.866" r="228.866" transform="matrix(-0.809, -0.588, 0.588, -0.809, 2609.441, 9321.332)" fill="none" stroke="#fff" stroke-miterlimit="10" stroke-width="3"/>
      <circle id="Ellipse_59" data-name="Ellipse 59" cx="17.507" cy="17.507" r="17.507" transform="matrix(-0.809, -0.588, 0.588, -0.809, 2424.68, 9209.237)" fill="#fff" stroke="#fff" stroke-miterlimit="10" stroke-width="1"/>
      <ellipse id="Ellipse_65" data-name="Ellipse 65" cx="10.675" cy="10.675" rx="10.675" ry="10.675" transform="matrix(-0.809, -0.588, 0.588, -0.809, 2358.89, 9123.395)" fill="#fff" stroke="#fff" stroke-miterlimit="10" stroke-width="1"/>
      <ellipse id="Ellipse_66" data-name="Ellipse 66" cx="16.226" cy="16.226" rx="16.226" ry="16.226" transform="matrix(-0.809, -0.588, 0.588, -0.809, 2351.622, 8932.693)" fill="#fff" stroke="#fff" stroke-miterlimit="10" stroke-width="1"/>
      <circle id="Ellipse_60" data-name="Ellipse 60" cx="12.383" cy="12.383" r="12.383" transform="matrix(-0.809, -0.588, 0.588, -0.809, 2431.058, 8830.635)" fill="#fff" stroke="#fff" stroke-miterlimit="10" stroke-width="1"/>
      <ellipse id="Ellipse_67" data-name="Ellipse 67" cx="7.259" cy="7.259" rx="7.259" ry="7.259" transform="matrix(-0.809, -0.588, 0.588, -0.809, 2339.254, 8952.872)" fill="#fff" stroke="#fff" stroke-miterlimit="10" stroke-width="1"/>
      <ellipse id="Ellipse_47" data-name="Ellipse 47" cx="13.664" cy="13.664" rx="13.664" ry="13.664" transform="matrix(-0.809, -0.588, 0.588, -0.809, 2785.5, 9069.898)" fill="#fff" stroke="#fff" stroke-miterlimit="10" stroke-width="3"/>
      <circle id="Ellipse_58" data-name="Ellipse 58" cx="23.423" cy="23.423" r="23.423" transform="matrix(-0.809, -0.588, 0.588, -0.809, 2666.946, 8829.79)" fill="#fff" stroke="#fff" stroke-miterlimit="10" stroke-width="3"/>
      <circle id="Ellipse_51" data-name="Ellipse 51" cx="8.54" cy="8.54" r="8.54" transform="matrix(-0.809, -0.588, 0.588, -0.809, 2601.959, 9237.652)" fill="#fff"/>
    </g>
  </g>
</svg>
