<svg xmlns="http://www.w3.org/2000/svg" width="379" height="1045.215" viewBox="0 0 379 1045.215">
  <g id="Groupe_45" data-name="Groupe 45" transform="translate(-546 -9656)">
    <g id="Groupe_6" data-name="Groupe 6" transform="translate(553.039 9656)">
      <path id="Tracé_8" data-name="Tracé 8" d="M245.258,321.449c-.839-.255-1.675-.528-2.519-.762q-6.88-1.907-13.76-3.8-5.649-1.56-11.3-3.126c-2.438-.677-4.871-1.369-7.308-2.046s-4.846-1.347-7.275-2a.691.691,0,0,1-.6-.713c-.181-2.252-.387-4.5-.587-6.752q-.5-5.653-1.012-11.3-.435-4.884-.865-9.77-.387-4.332-.781-8.662c-.311-3.416-.636-6.829-.94-10.246-.339-3.816-.656-7.634-.992-11.451-.2-2.314-.432-4.626-.636-6.941-.245-2.761-.467-5.524-.714-8.286-.2-2.249-.434-4.5-.637-6.745s-.384-4.471-.58-6.707c-.212-2.41-.43-4.82-.641-7.232-.245-2.777-.483-5.555-.73-8.332-.113-1.276-.239-2.549-.364-3.867H297.675c-.065.79-.129,1.567-.2,2.345q-.271,3.089-.548,6.177c-.166,1.852-.342,3.7-.505,5.555-.19,2.139-.367,4.279-.557,6.418-.227,2.554-.47,5.106-.7,7.66-.19,2.138-.363,4.278-.555,6.415-.173,1.915-.367,3.828-.541,5.742-.177,1.93-.338,3.861-.511,5.793-.246,2.729-.5,5.458-.742,8.187-.275,3.13-.532,6.261-.811,9.391-.27,3.033-.563,6.063-.835,9.1-.148,1.643-.263,3.289-.411,4.934-.172,1.914-.367,3.827-.54,5.742-.207,2.3-.4,4.6-.6,6.9-.208,2.316-.426,4.629-.632,6.943-.15,1.677-.289,3.355-.438,5.032-.122,1.373-.265,2.743-.374,4.117-.027.341-.2.458-.488.536q-2.757.748-5.509,1.512-5.557,1.536-11.113,3.079-5.6,1.544-11.215,3.078-7.065,1.943-14.128,3.9a2.094,2.094,0,0,0-.37.186Zm-18.409-83.731h.689q9.242,0,18.484.009h29.507c.4,0,.8-.011,1.2.008.262.012.368-.074.388-.347.1-1.3.2-2.59.318-3.883q.227-2.586.47-5.169.16-1.746.335-3.49c.031-.311-.077-.455-.4-.428q-.383.03-.769.029-16.173.012-32.347.019-15.884,0-31.769-.008c-.169,0-.338.028-.552.048.065.642.13,1.229.182,1.817.15,1.692.29,3.385.443,5.077.235,2.618.482,5.234.716,7.852.185,2.075.354,4.151.539,6.225.3,3.352.611,6.7.908,10.052.238,2.682.474,5.365.688,8.049.037.474.18.63.686.629q21.95-.016,43.9,0c.128,0,.257-.011.384,0,.153.012.3.043.492.07-.113,1.491-.209,2.94-.337,4.387s-.3,2.862-.423,4.3c-.222,2.5-.428,5.012-.633,7.519a.9.9,0,0,1-.779.869c-1.951.511-3.9,1.035-5.849,1.554-2.461.654-4.927,1.289-7.377,1.982a2.718,2.718,0,0,1-1.54-.027q-4.17-1.141-8.347-2.261c-1.578-.424-3.154-.857-4.737-1.258a.753.753,0,0,1-.662-.823c-.007-.495-.074-.99-.117-1.484-.226-2.586-.467-5.172-.665-7.76-.036-.482-.182-.611-.656-.609-4.026.019-8.054.009-12.082.011-.172,0-.343.017-.579.031.027.322.049.6.073.883.269,3.1.531,6.195.807,9.29.3,3.352.618,6.7.912,10.055a.5.5,0,0,0,.424.528c1.808.493,3.611,1,5.415,1.51q4.577,1.287,9.153,2.578,5.415,1.518,10.833,3.018a4.009,4.009,0,0,0,1.49.238,14.347,14.347,0,0,0,2.03-.56q2.566-.724,5.133-1.441,4.254-1.189,8.51-2.374,3.306-.922,6.615-1.845c1.325-.371,2.647-.76,3.976-1.12a.4.4,0,0,0,.338-.43c.053-.637.156-1.27.214-1.907q.387-4.238.761-8.476.421-4.741.835-9.48c.294-3.368.575-6.737.877-10.1.27-3.031.56-6.06.842-9.092.09-.963.092-.963-.846-.954h-.337l-45.585.015c-.16,0-.321-.008-.48,0-.372.017-.549-.144-.58-.525-.088-1.133-.2-2.267-.3-3.4q-.281-3.234-.557-6.467C227.034,239.7,226.943,238.745,226.848,237.718Z" transform="translate(-193.017 -202.714)" fill="#ffbe0b"/>
    </g>
    <g id="Groupe_9" data-name="Groupe 9" transform="translate(546 10396.387)">
      <g id="Groupe_7" data-name="Groupe 7" transform="translate(0 11.95)">
        <path id="Tracé_9" data-name="Tracé 9" d="M187.725,708.544c.206-1.079.4-2.131.607-3.183q1.2-6.175,2.408-12.348,1.283-6.588,2.565-13.178c.936-4.82,1.86-9.642,2.815-14.46.235-1.191-.031-.994,1.221-.995,6.1-.008,12.2-.031,18.307.009a17.533,17.533,0,0,1,7.237,1.474,10.758,10.758,0,0,1,6.57,8.517,19.863,19.863,0,0,1-1.846,11.661,19.236,19.236,0,0,1-7.828,8.469,16.178,16.178,0,0,1-6.03,1.9,42.439,42.439,0,0,1-6.482.454c-2.362-.009-4.725,0-7.088-.008-.358,0-.533.053-.613.478-.685,3.631-1.41,7.255-2.106,10.885-.059.3-.18.384-.46.384q-4.459-.008-8.919-.007A2.556,2.556,0,0,1,187.725,708.544Zm16.885-37.032c-1.2,6.129-2.378,12.194-3.563,18.274.543.04.994.113,1.441.1,2.542-.079,5.088-.124,7.624-.29a10.413,10.413,0,0,0,4.612-1.418,8.064,8.064,0,0,0,3.357-3.742,15.847,15.847,0,0,0,1.48-8.554,4.182,4.182,0,0,0-3-3.654,15.565,15.565,0,0,0-4.69-.774c-1.4-.033-2.811.041-4.217.056C206.652,671.521,205.652,671.513,204.61,671.513Z" transform="translate(-187.725 -652.632)" fill="#ffbe0b"/>
        <path id="Tracé_10" data-name="Tracé 10" d="M245.474,708.576c.21-1.081.407-2.1.607-3.126q1.439-7.416,2.881-14.831,1.151-5.9,2.31-11.8,1.339-6.866,2.663-13.733c.137-.71.13-.712.849-.712,6.245,0,12.49-.047,18.734.02a15.923,15.923,0,0,1,8.948,2.475,10.541,10.541,0,0,1,4.826,8.086,19.9,19.9,0,0,1-4.973,15.643,15.628,15.628,0,0,1-7.78,5.154,28.142,28.142,0,0,1-5.478.91c-3.7.181-7.406.153-11.111.191-.4,0-.553.11-.632.527-.66,3.509-1.35,7.011-2.03,10.516-.136.7-.13.7-.863.7h-8.357C245.886,708.6,245.705,708.587,245.474,708.576Zm13.332-18.787c.6.039,1.111.1,1.621.1,1.531-.008,3.065.015,4.592-.078a33.257,33.257,0,0,0,4.453-.5,8.389,8.389,0,0,0,6.133-4.411,16,16,0,0,0,1.776-8.65,4.307,4.307,0,0,0-3.236-4.082,16.294,16.294,0,0,0-4.464-.714c-1.421-.033-2.843.041-4.263.056-1.014.011-2.026,0-3.05,0Z" transform="translate(-168.659 -652.634)" fill="#ffbe0b"/>
        <path id="Tracé_11" data-name="Tracé 11" d="M219.115,699.777c.194-1.021.366-1.938.543-2.852q1.253-6.427,2.507-12.855,1-5.142,2.01-10.283,1.49-7.668,2.98-15.337c.16-.826.33-1.649.486-2.477.052-.278.153-.43.482-.428,2.942.012,5.885.007,8.826.008a3.6,3.6,0,0,1,.38.048c-.757,3.887-1.51,7.751-2.276,11.688h.591c2.707,0,5.416-.057,8.121.016a24.052,24.052,0,0,1,7.981,1.378,7.858,7.858,0,0,1,3.46,2.244,7.107,7.107,0,0,1,1.469,4.262,24.7,24.7,0,0,1-.694,6.123q-1.259,6.427-2.51,12.855c-.341,1.744-.688,3.488-1.018,5.233-.049.261-.137.382-.418.382q-4.553-.01-9.108-.008a1.982,1.982,0,0,1-.283-.049c.172-.9.335-1.782.507-2.666q1.339-6.864,2.675-13.726c.285-1.469.591-2.938.77-4.422.322-2.636-.806-3.759-3.063-4.167a16.861,16.861,0,0,0-2.606-.217c-2.249-.056-4.5-.062-6.751-.112-.384-.008-.541.1-.615.489-.624,3.294-1.268,6.583-1.909,9.872q-1.391,7.139-2.784,14.278c-.14.721-.13.722-.842.722q-4.108,0-8.215,0Z" transform="translate(-177.361 -655.545)" fill="#ffbe0b"/>
      </g>
      <g id="Groupe_8" data-name="Groupe 8" transform="translate(209.793 0)">
        <path id="Tracé_12" data-name="Tracé 12" d="M397.83,678.719c1.639-3.689,3.1-7.376,4.883-10.9a45.331,45.331,0,0,1,12.139-15.6c5.306-4.185,11.274-6.324,18.115-5.471a13.182,13.182,0,0,1,7.49,3.109,7.3,7.3,0,0,1,2.2,8.208,5.964,5.964,0,0,1-7.259,4.223,5.235,5.235,0,0,1-3.689-7.691c.334-.643.712-1.264,1.022-1.917.7-1.474.238-2.534-1.354-2.966a9.5,9.5,0,0,0-6.264.6,13.064,13.064,0,0,0-5.943,5.358,39.193,39.193,0,0,0-4.85,12.648c-1.189,5.24-2.208,10.516-3.333,15.933a21.575,21.575,0,0,0,7.651.164,26.035,26.035,0,0,0,6.043-1.943c1.862-.858,2.05-2.047,1.092-3.875-.213-.4-.444-.8-.657-1.205a4.09,4.09,0,0,1,1.4-5.591c2.055-1.49,4.6-1.406,6.139.3a6.064,6.064,0,0,1,1.252,6.4,11.117,11.117,0,0,1-4.483,5.495c-3.807,2.631-8.134,3.562-12.667,3.723-2.017.072-4.037.012-6.256.012-.357,1.951-.77,4.145-1.159,6.344-1.41,8-2.977,15.972-5.721,23.653a58.575,58.575,0,0,1-13.856,22.385,30.644,30.644,0,0,1-15.317,8.687,17.048,17.048,0,0,1-10.774-.83c-4.134-1.86-6.253-5.726-5.423-9.787a7.938,7.938,0,0,1,9.278-5.98,6.344,6.344,0,0,1,4.91,6.359,4.056,4.056,0,0,1-1.99,3.638,3.7,3.7,0,0,0-1.257.966c-.336.532-.737,1.333-.555,1.8a2.085,2.085,0,0,0,1.575,1.165,16.876,16.876,0,0,0,4.824-1.121,15.99,15.99,0,0,0,6.369-5.781,39.1,39.1,0,0,0,5.255-11.5c2.482-8.192,3.891-16.62,5.521-25.006,1.273-6.544,2.952-13.009,4.491-19.5a1.42,1.42,0,0,0-.517-1.719c-2-1.652-3.907-3.416-5.853-5.134A20.537,20.537,0,0,0,379.8,671.14a8.42,8.42,0,0,0-5.357.682,7.1,7.1,0,0,0-2.054,11.184c1.832,2.1,3.752,4.123,5.521,6.274a34.04,34.04,0,0,1,3.222,4.577,13.6,13.6,0,0,1-1.825,16.517c-4.636,5.036-10.561,6.6-17.175,5.911a22.809,22.809,0,0,1-10.674-3.807c-3.622-2.482-5.958-5.762-6.008-10.337a7.443,7.443,0,0,1,.157-1.475c.617-3.2,2.6-4.911,5.458-4.745a5.624,5.624,0,0,1,5.58,5.555,8.342,8.342,0,0,1-1.4,4.983c-1.4,2.3-1.092,3.638,1.244,4.98,3.256,1.87,6.63,2.294,10.019.4a6.852,6.852,0,0,0,1.876-10.959c-1.564-1.776-3.239-3.452-4.827-5.208a19.312,19.312,0,0,1-5.314-10.93,14.512,14.512,0,0,1,6.034-13.8c7.374-5.6,16.969-5.435,24.918.335,2.276,1.652,4.3,3.65,6.438,5.495C396.4,677.435,397.157,678.122,397.83,678.719Z" transform="translate(-345.446 -646.561)" fill="#ffbe0b"/>
      </g>
    </g>
    <g id="Groupe_12" data-name="Groupe 12" transform="translate(553.232 9850.127)">
      <g id="Groupe_10" data-name="Groupe 10" transform="translate(0 0)">
        <path id="Tracé_13" data-name="Tracé 13" d="M297.434,348.657c-.053.657-.1,1.264-.15,1.87q-.784,9.032-1.575,18.065c-.551,6.234-1.12,12.466-1.665,18.7-.5,5.737-.975,11.475-1.477,17.212-.548,6.258-1.121,12.514-1.669,18.772-.454,5.168-.879,10.338-1.33,15.506-.464,5.334-.948,10.667-1.4,16-.041.494-.346.559-.692.658l-11.184,3.218q-14.924,4.294-29.842,8.6a3.035,3.035,0,0,1-1.785-.009q-20.926-5.89-41.869-11.721a1.151,1.151,0,0,1-1-1.25c-.368-4.936-.813-9.866-1.217-14.8-.356-4.34-.689-8.683-1.044-13.024-.356-4.364-.736-8.726-1.093-13.09-.31-3.771-.6-7.545-.906-11.316s-.638-7.541-.95-11.312c-.259-3.154-.5-6.31-.76-9.464q-.467-5.692-.944-11.384-.383-4.625-.76-9.251-.475-5.726-.951-11.454c-.013-.16,0-.321,0-.532Zm-52.975,35.5.015.166c-.213.1-.423.2-.638.3q-14.483,6.289-28.975,12.562a.95.95,0,0,0-.665,1.237c.528,3.46,1.007,6.927,1.494,10.394.138.978.128.98,1.144.98q13.863,0,27.726,0,7.967,0,15.935.005c.478,0,.819,0,.749.676-.543,5.233-1.054,10.471-1.58,15.706-.11,1.095-.125,1.088-1.182,1.286-4.493.846-8.984,1.7-13.48,2.529a3.8,3.8,0,0,1-1.54-.039c-3.955-.971-7.9-1.975-11.848-2.98-1.327-.338-1.139-.049-1.32-1.516q-.485-3.935-.91-7.876c-.061-.556-.22-.826-.867-.821-3.787.032-7.574.024-11.361.007-.557,0-.741.137-.688.733q.846,9.5,1.632,19a.837.837,0,0,0,.7.889q13.157,3.617,26.309,7.256a1.821,1.821,0,0,0,.967-.011q12.592-3.895,25.179-7.815a.784.784,0,0,0,.643-.8c.132-1.78.3-3.558.459-5.337q.678-7.722,1.357-15.44.77-8.825,1.54-17.647c.1-1.161.124-1.16-1.032-1.16q-12.827,0-25.653,0h-.781a.976.976,0,0,1,.507-.392q14.318-5.856,28.64-11.7a1.094,1.094,0,0,0,.819-1.2c-.035-3.619-.016-7.24-.017-10.861,0-1,0-1-.968-1q-32.012.006-64.026.012c-.986,0-1,.023-.859,1.016.5,3.631,1.024,7.261,1.474,10.9.1.766.355.966,1.1.963q14.577-.044,29.154-.029Z" transform="translate(-193.162 -348.657)" fill="#ffbe0b"/>
      </g>
      <g id="Groupe_11" data-name="Groupe 11" transform="translate(198.248 6.221)">
        <path id="Tracé_14" data-name="Tracé 14" d="M448.49,406.547q0,18.855,0,37.709A15.222,15.222,0,0,1,437.115,459.1a15.551,15.551,0,0,1-3.9.5q-37.8.046-75.61.019a15.173,15.173,0,0,1-15.2-12.863,13.888,13.888,0,0,1-.186-2.385q-.02-37.774-.017-75.546A15.253,15.253,0,0,1,355.93,353.4a15.009,15.009,0,0,1,1.748-.061q37.578-.006,75.157,0a15.135,15.135,0,0,1,15.124,11.41,16.82,16.82,0,0,1,.507,4.158c.039,12.547.023,25.095.023,37.642Zm-75.472,29.725c.208.015.375.039.544.037,9.435-.011,18.871.013,28.307-.053a23.737,23.737,0,0,0,11.189-2.8,13.762,13.762,0,0,0,7.409-9.455,18.588,18.588,0,0,0-.654-10.452,12.069,12.069,0,0,0-6.648-7.3c-.972-.43-1.991-.749-2.987-1.117,0,.011,0-.016.012-.024.189-.1.378-.2.569-.3a14.333,14.333,0,0,0,5.355-4.483,13.277,13.277,0,0,0,2.143-8.689,12.362,12.362,0,0,0-8.145-11.618,24.267,24.267,0,0,0-9.314-1.629c-9-.036-18.008-.021-27.012-.021-.843,0-.845.02-.845.877q0,27.692,0,55.384C372.943,435.169,372.991,435.705,373.019,436.272Z" transform="translate(-342.203 -353.334)" fill="#ffbe0b"/>
        <path id="Tracé_15" data-name="Tracé 15" d="M373.062,413.85V396.014c.3-.023.613-.067.926-.065,5.935.023,11.87.035,17.806.081,5.4.043,8.868,3.7,8.677,9.094a8.571,8.571,0,0,1-2.718,6.555,9.124,9.124,0,0,1-6.092,2.169c-6.108.043-12.216.033-18.324.044A2.3,2.3,0,0,1,373.062,413.85Z" transform="translate(-332.015 -339.264)" fill="#ffbe0b"/>
        <path id="Tracé_16" data-name="Tracé 16" d="M373.059,394.352V378.529c.251-.013.479-.036.706-.035,5.68.028,11.36.045,17.039.108a9.7,9.7,0,0,1,2.481.376,5.888,5.888,0,0,1,4.032,3.892,9.242,9.242,0,0,1,.233,6.1,7.015,7.015,0,0,1-6.881,5.186c-3.887.078-7.773.1-11.66.145q-2.624.032-5.247.055C373.55,394.355,373.337,394.352,373.059,394.352Z" transform="translate(-332.016 -345.027)" fill="#ffbe0b"/>
      </g>
    </g>
    <g id="Groupe_14" data-name="Groupe 14" transform="translate(546 10582.539)">
      <path id="Tracé_17" data-name="Tracé 17" d="M230.938,799.453c4.278-4.211,7.768-7.827,11.461-11.224,2.932-2.7,7.361-2.15,10.686,1.141,5.287,5.23,10.522,10.514,15.777,15.776q17.211,17.231,34.412,34.47c4.271,4.291,4.226,8.3.007,12.514q-24.793,24.763-49.574,49.539c-4.664,4.666-8.134,4.717-12.869-.011q-25.118-25.084-50.191-50.213c-3.548-3.553-3.972-7.466-.684-10.807,11.68-11.865,23.512-23.578,35.39-35.454,4.174,4.1,8.3,8.05,12.271,12.158.565.587.557,1.95.456,2.916a9.894,9.894,0,0,0,3.6,8.9,5.615,5.615,0,0,1,1.738,3.634c.152,9.114.192,18.234-.007,27.345-.029,1.355-1.276,2.892-2.333,3.98a9.808,9.808,0,0,0-2.389,10.679,9.16,9.16,0,0,0,8.5,5.881,9.394,9.394,0,0,0,6.725-16.3,5.761,5.761,0,0,1-2.112-4.89c.082-9.086.036-18.174.036-27.959,3.891,3.883,7.4,7.261,10.716,10.816.524.561.325,1.925.249,2.9a9.584,9.584,0,1,0,19.105.77,9.915,9.915,0,0,0-10.721-9.175,4.813,4.813,0,0,1-3.226-1.111q-5.058-4.709-9.783-9.766a5.311,5.311,0,0,1-1.256-3.267c-.133-7.061-3.461-10.39-10.692-10.568a4.5,4.5,0,0,1-2.562-.744c-1.463-1.172-2.7-2.618-4.08-3.907C236.849,804.9,234.078,802.36,230.938,799.453Z" transform="translate(-187.725 -786.509)" fill="#ffbe0b"/>
      <g id="Groupe_13" data-name="Groupe 13" transform="translate(199.256 21.672)">
        <path id="Tracé_18" data-name="Tracé 18" d="M360.621,834.135c-.18.392-.362.782-.539,1.176-1.794,4-3.609,8-5.372,12.015-.837,1.9-1.881,2.514-4.288,2.353a3.33,3.33,0,0,1-2.972-2.247c-1.888-4.268-3.807-8.521-5.716-12.78-.08-.177-.173-.349-.259-.523l-.126.016v.52c0,4.738-.007,9.475.011,14.211,0,.471-.118.619-.593.6-.915-.037-1.833-.021-2.748-.005-.344.005-.493-.077-.493-.464.013-5.032,0-10.064.016-15.1a2.212,2.212,0,0,1,1.941-2.5,10.133,10.133,0,0,1,2.563-.307,3.449,3.449,0,0,1,3.2,2.369c1.083,2.538,2.181,5.068,3.273,7.6q1.087,2.52,2.173,5.039c.067.153.146.3.269.545.117-.231.2-.383.273-.541,1.849-4.149,3.728-8.286,5.532-12.454.946-2.187,2.587-2.873,4.808-2.518a9.071,9.071,0,0,1,1.522.415,2.057,2.057,0,0,1,1.453,1.914c.025.294.036.589.036.885q0,7.221,0,14.444c0,.664,0,.664-.66.665-.886,0-1.772-.019-2.655.008-.406.012-.525-.108-.524-.523.016-4.753.009-9.505.009-14.258v-.536Z" transform="translate(-337.524 -793.474)" fill="#ffbe0b"/>
        <path id="Tracé_19" data-name="Tracé 19" d="M408.66,848.633l3.615,3.283c-.029.044-.045.086-.06.086-1.319.008-2.639.023-3.957.005a.919.919,0,0,1-.516-.258c-.825-.732-1.645-1.469-2.448-2.224a1.116,1.116,0,0,0-.881-.3c-2.293.07-4.588.141-6.882.176a7.913,7.913,0,0,1-3.843-.942,3.6,3.6,0,0,1-2.038-3.4c0-3.106.011-6.212-.007-9.316a3.654,3.654,0,0,1,2.316-3.594,8.013,8.013,0,0,1,3.331-.755q4.028-.02,8.058,0a7.979,7.979,0,0,1,3.329.757,3.632,3.632,0,0,1,2.3,3.557c-.019,3.09-.024,6.18,0,9.27a3.4,3.4,0,0,1-2.1,3.5A1.586,1.586,0,0,0,408.66,848.633Zm-9.386-4.556.031-.11c1.253,0,2.506-.017,3.758.015a1.351,1.351,0,0,1,.775.3c.758.641,1.491,1.314,2.213,2a.436.436,0,0,0,.678.024,1.951,1.951,0,0,0,.737-1.589q.014-4.356,0-8.71a1.842,1.842,0,0,0-1.337-1.869,5.429,5.429,0,0,0-1.59-.278c-1.785-.033-3.57-.019-5.357-.009a11.542,11.542,0,0,0-1.39.09,2.054,2.054,0,0,0-2.026,2.292c0,2.734.035,5.466-.013,8.2a2.247,2.247,0,0,0,2.305,2.427c1.254.063,2.511.057,3.768.076a3.509,3.509,0,0,0,.487-.081Z" transform="translate(-319.656 -793.366)" fill="#ffbe0b"/>
        <path id="Tracé_20" data-name="Tracé 20" d="M429.237,838.61a12.277,12.277,0,0,0,1.092,1.095,13.406,13.406,0,0,0,1.522.987,14.409,14.409,0,0,1,3.615,3.049c.354.411.749.789,1.089,1.209a9.846,9.846,0,0,1,.612.946l-.1.081a.752.752,0,0,1-.174-.093,18.6,18.6,0,0,0-4.953-3.174,10.553,10.553,0,0,1-4.256-3.231,10.221,10.221,0,0,1-.813-1.456c-.168-.327.108-.48.333-.544,1.173-.337,2.341-.712,3.537-.935a19.812,19.812,0,0,1,2.644-.149c.132-.005.263-.027.543-.057a4.566,4.566,0,0,0-.652-.712c-2.518-1.715-4.891-3.7-7.98-4.367a3.235,3.235,0,0,1-2.366-1.906c-1.264-2.745-2.592-5.463-3.782-8.239a26.053,26.053,0,0,0-12.69-13.01,8.437,8.437,0,0,0-3.556-.8,5.347,5.347,0,0,1-1.431-.126,3.161,3.161,0,0,1-1.021-.6,12.254,12.254,0,0,0-4.645-2.265.965.965,0,0,0-1.188,1.373,5.392,5.392,0,0,0,.887,1.567,17.063,17.063,0,0,1,3.615,6.951,12.279,12.279,0,0,0,1.032,2.533,8.941,8.941,0,0,0,1.278,1.756,1.756,1.756,0,0,1,.48,1.828c-.294.912-.66,1.809-.877,2.74a12.424,12.424,0,0,0,.709,8.142,2.4,2.4,0,0,0,1.076,1.3c.3.146.482.124.521-.283.085-.847.219-1.691.322-2.537a6.21,6.21,0,0,1,1.911-3.674c1.708,4.282,3.77,8.343,7.1,11.676a5.214,5.214,0,0,1-.476-.338c-1.044-.928-2.09-1.854-3.12-2.8a11.64,11.64,0,0,1-2.926-4.1c-.121-.285-.277-.555-.42-.83-.011-.021-.049-.028-.161-.084-.109.607-.217,1.188-.318,1.772-.086.5-.126,1.019-.258,1.51a1.7,1.7,0,0,1-2.772.976,5.264,5.264,0,0,1-1.6-2.032,11.566,11.566,0,0,1-1.131-6.512,24.476,24.476,0,0,1,.91-4.5,1.7,1.7,0,0,0-.422-1.89,12.476,12.476,0,0,1-2.047-4.049c-.339-.98-.6-1.989-.978-2.953a8.87,8.87,0,0,0-.955-1.745c-.541-.794-1.159-1.536-1.733-2.309a4.964,4.964,0,0,1-1.032-2.209,2.336,2.336,0,0,1,2.35-2.793,8.339,8.339,0,0,1,2.44.483,9.562,9.562,0,0,1,3.446,1.981,1.952,1.952,0,0,0,1.414.469,13.459,13.459,0,0,1,7.388,2.592,29.926,29.926,0,0,1,9.448,9.873c.544.93.9,1.969,1.357,2.952,1.152,2.473,2.314,4.941,3.468,7.413a2.236,2.236,0,0,0,1.382,1.205,25.217,25.217,0,0,1,7.393,4.509,13.529,13.529,0,0,1,2.271,2.386c.214.287.182.44-.174.508-1.23.234-2.463.455-3.689.712-.8.168-1.592.388-2.386.587Z" transform="translate(-319.141 -802.802)" fill="#ffbe0b"/>
        <path id="Tracé_21" data-name="Tracé 21" d="M360.5,853.48v-2.51c.219-.011.418-.029.616-.029,3.788,0,7.578.012,11.367-.016a5.573,5.573,0,0,0,1.672-.315,1.36,1.36,0,0,0,.938-1.407c.012-1.306.017-1.306-1.278-1.306-2.361,0-4.721.007-7.082,0a8.584,8.584,0,0,1-4.473-1.048,5.225,5.225,0,0,1-1.406-1.253,2.271,2.271,0,0,1-.444-1.285c-.036-2.872-.015-5.745-.012-8.618a1.811,1.811,0,0,1,.025-.189c.122-.012.254-.036.386-.037.978,0,1.957.016,2.934-.009.38-.011.474.128.472.482-.012,2.5-.007,5-.007,7.5,0,1.536.569,2.136,2.12,2.161,1.583.025,3.167.009,4.751.011,1.18,0,2.361-.016,3.541.007.387.007.5-.112.5-.5-.015-3.013-.008-6.026-.008-9.038v-.6c.158-.015.29-.037.423-.037.979,0,1.957.013,2.934-.009.363-.008.488.1.487.468-.007,2.95,0,5.9,0,8.852,0,1.459-.039,2.92-.011,4.379a3.522,3.522,0,0,1-2.074,3.408,8.086,8.086,0,0,1-3.755.935c-4.006.016-8.013.005-12.019.005Z" transform="translate(-329.976 -792.029)" fill="#ffbe0b"/>
        <path id="Tracé_22" data-name="Tracé 22" d="M382.93,849.345c-1.9,0-3.79-.013-5.685.009-.438.005-.577-.142-.552-.563a11.64,11.64,0,0,0,0-1.4c-.027-.418.138-.524.54-.523q4.962.022,9.924,0a6.749,6.749,0,0,0,1.608-.2,1.722,1.722,0,0,0,1.382-1.838c0-.5,0-.994,0-1.491a1.521,1.521,0,0,0-1.173-1.631,8.07,8.07,0,0,0-1.874-.286c-1.551-.041-3.107.026-4.658-.031a8.134,8.134,0,0,1-4.193-1.212,2.917,2.917,0,0,1-1.523-2.784c.056-.851-.045-1.716.049-2.559.181-1.6,1.294-2.413,2.684-2.973a10.21,10.21,0,0,1,3.8-.531c3.448-.035,6.9-.007,10.345-.02.386,0,.523.109.5.5a12.092,12.092,0,0,0,0,1.538c.029.428-.141.513-.536.512q-5.243-.02-10.486,0a9.441,9.441,0,0,0-1.429.153,1.231,1.231,0,0,0-1.119,1.187,10.826,10.826,0,0,0,.017,2.275c.158,1.131.9,1.652,2.207,1.667,1.756.017,3.512-.011,5.266.013a8.52,8.52,0,0,1,3.569.746,7.752,7.752,0,0,1,1.418.878,2.292,2.292,0,0,1,.928,1.983c-.031.869-.025,1.74,0,2.61a2.941,2.941,0,0,1-1.3,2.543,7.064,7.064,0,0,1-4.074,1.4c-1.877.057-3.758.015-5.637.015Z" transform="translate(-324.593 -793.388)" fill="#ffbe0b"/>
        <path id="Tracé_23" data-name="Tracé 23" d="M411.951,838.465c0,2.066,0,4.131,0,6.2a1.854,1.854,0,0,0,1.977,2.122c1.113.069,2.231.088,3.347.093,2.515.013,5.032.016,7.547-.007.46,0,.6.138.564.581a9.778,9.778,0,0,0,0,1.4c.024.387-.112.508-.5.5-1.786-.016-3.573-.005-5.358-.007-1.693,0-3.387.02-5.079-.024a10.285,10.285,0,0,1-3.718-.732,3.86,3.86,0,0,1-2.612-3.9c0-4.271.005-8.542-.012-12.813,0-.459.137-.58.579-.565.931.032,1.865.027,2.8,0,.38-.011.475.129.474.486C411.946,834.023,411.951,836.244,411.951,838.465Z" transform="translate(-314.22 -793.388)" fill="#ffbe0b"/>
        <path id="Tracé_24" data-name="Tracé 24" d="M428.188,843.627a2.709,2.709,0,0,1-2.836,2.788,2.784,2.784,0,0,1-2.8-2.811,2.817,2.817,0,0,1,2.893-2.827A2.757,2.757,0,0,1,428.188,843.627Zm-.511,0a2.291,2.291,0,1,0-4.581-.032,2.292,2.292,0,1,0,4.581.032Z" transform="translate(-309.451 -790.264)" fill="#ffbe0b"/>
        <path id="Tracé_25" data-name="Tracé 25" d="M401.536,811.081l-1.612-2.539a1.525,1.525,0,0,1,1.612,2.539Z" transform="translate(-316.922 -800.962)" fill="#ffbe0b"/>
        <path id="Tracé_26" data-name="Tracé 26" d="M425.388,843.518l.8,1.284a.367.367,0,0,1-.575-.168c-.164-.281-.352-.548-.5-.837s-.374-.41-.637-.29c-.116.052-.156.318-.186.493s.015.375-.016.556a1.03,1.03,0,0,1-.181.313c-.07-.1-.2-.19-.2-.287-.016-.853-.021-1.7,0-2.555a.453.453,0,0,1,.307-.32,9.771,9.771,0,0,1,1.293.056.72.72,0,0,1,.745.684.771.771,0,0,1-.6.95C425.565,843.422,425.5,843.461,425.388,843.518Zm-1.107-1c-.005.584.064.649.611.612a.974.974,0,0,0,.451-.061c.165-.116.378-.306.38-.468a.7.7,0,0,0-.358-.484c-.156-.086-.391-.02-.589-.04C424.41,842.037,424.2,842.149,424.281,842.516Z" transform="translate(-309.015 -789.959)" fill="#ffbe0b"/>
      </g>
    </g>
    <g id="Groupe_25" data-name="Groupe 25" transform="translate(749.653 10044.254)">
      <path id="Tracé_44" data-name="Tracé 44" d="M580.355,548.915c-1.031,1.582-1.977,3.226-3.106,4.734a36.442,36.442,0,0,1-14.443,11.386,33.362,33.362,0,0,1-10.263,2.831,50.983,50.983,0,0,1-6.374.41,43.9,43.9,0,0,1-18.142-3.971,47.982,47.982,0,0,1-20.639-18.671,40.279,40.279,0,0,1-5.478-14.975,43.475,43.475,0,0,1-.552-6.354,29.723,29.723,0,0,1,6.484-18.584,17.252,17.252,0,0,1,2.272-2.408c-.229,1.375-.5,2.745-.677,4.128-.23,1.79-.434,3.587-.559,5.387-.086,1.254-.029,2.518-.024,3.778a37.124,37.124,0,0,0,3,14.375,38.632,38.632,0,0,0,6.05,9.745,54.769,54.769,0,0,0,14.25,11.657,38.02,38.02,0,0,0,12.1,4.965,60.454,60.454,0,0,0,7.267,1,45.42,45.42,0,0,0,6.536-.008,37.422,37.422,0,0,0,12-2.908,33.341,33.341,0,0,0,8.117-4.892c.686-.559,1.329-1.171,1.993-1.757Z" transform="translate(-484.83 -491.723)" fill="#ffbe0b"/>
      <path id="Tracé_45" data-name="Tracé 45" d="M576.539,529.294a18.282,18.282,0,0,1-3.212,5.572,23.277,23.277,0,0,1-8.623,6.559,30.8,30.8,0,0,1-9.839,2.682,31.617,31.617,0,0,1-13.7-1.54,31.049,31.049,0,0,1-10.214-5.928,34.5,34.5,0,0,1-8.642-10.777,28.146,28.146,0,0,1-2.792-10.478,23.88,23.88,0,0,1,1.534-10.782,25.8,25.8,0,0,1,3.977-6.506.93.93,0,0,1,.2-.133c-.2,1.608-.487,3.179-.56,4.761-.094,2.056-.094,4.123.007,6.179a24.967,24.967,0,0,0,1.515,7.239,27.084,27.084,0,0,0,6.071,9.77,40.11,40.11,0,0,0,16.427,10.245,28,28,0,0,0,11.9,1.14,25.963,25.963,0,0,0,13.981-6.007,13.707,13.707,0,0,0,1.016-.991C575.907,529.968,576.221,529.629,576.539,529.294Z" transform="translate(-478.861 -493.49)" fill="#ffbe0b"/>
      <path id="Tracé_46" data-name="Tracé 46" d="M521.227,579.172l2.451.269-1.019,4.351a1.017,1.017,0,0,1-.194.051c-4.045.059-8.093.221-12.134.12a14.546,14.546,0,0,1-4.884-.5,6.689,6.689,0,0,1-4.548-5.717,18.058,18.058,0,0,1,1.935-10.9,12.4,12.4,0,0,1,8.516-6.963,10.918,10.918,0,0,1,9.9,2.035,8.09,8.09,0,0,1,2.658,4.794c.46,2.263-.156,4.376-.817,6.478-.561,1.789-1.222,3.546-1.825,5.323A2.65,2.65,0,0,0,521.227,579.172Zm-5.246.06c.809-3.277,1.6-6.523,2.412-9.765a4.1,4.1,0,0,0-1.55-4.134,5.917,5.917,0,0,0-4.984-.615,4.913,4.913,0,0,0-2.626,1.59,10.666,10.666,0,0,0-1.881,4.4c-.374,1.531-.569,3.107-.793,4.67a2.882,2.882,0,0,0,.712,2.546,4.385,4.385,0,0,0,3.1,1.28C512.207,579.3,514.049,579.232,515.981,579.232Z" transform="translate(-485.04 -473.173)" fill="#ffbe0b"/>
      <path id="Tracé_47" data-name="Tracé 47" d="M551.908,575.031h-.874c-3.61,0-7.219.012-10.829-.011-.629-.005-.817.158-.866.83-.148,2.042.959,2.255,2.435,2.293,3,.076,6,.023,9.109.023l-1.012,4.634c-3.151,0-6.3.077-9.447-.033-1.587-.055-3.239-.086-4.625-1.152a4.19,4.19,0,0,1-1.808-3.449,24.665,24.665,0,0,1,2.229-9.942,8.29,8.29,0,0,1,4.715-4.1,11.809,11.809,0,0,1,5.921-.882c2.291.238,4.4.987,5.424,3.311a5.688,5.688,0,0,1,.408,3.51C552.357,571.683,552.169,573.331,551.908,575.031Zm-4.5-4.074a7.978,7.978,0,0,0-.112-1.776c-.3-1.019-1.2-1.174-2.126-1.345a3.878,3.878,0,0,0-4.009,1.312,2.033,2.033,0,0,0-.7,1.809Z" transform="translate(-474.055 -471.959)" fill="#ffbe0b"/>
      <path id="Tracé_48" data-name="Tracé 48" d="M534.752,582.448a1.184,1.184,0,0,1-.194.048c-2.579.058-5.16.156-7.739.153a19.9,19.9,0,0,1-3.742-.314,4.175,4.175,0,0,1-3.361-4.284,31.389,31.389,0,0,1,.873-6.688c.483-2.313.916-4.638,1.375-6.957.052-.263.136-.52.217-.826h4.8c-.161,1.071-.267,2.086-.471,3.081-.444,2.169-1.057,4.312-1.369,6.5a33.659,33.659,0,0,0-.041,4.669h5.639c.3-1.285.637-2.6.927-3.92.521-2.378,1.018-4.763,1.527-7.144.184-.857.355-1.716.583-2.561.053-.2.309-.479.477-.483,1.463-.039,2.929-.023,4.443-.023Z" transform="translate(-478.769 -471.826)" fill="#ffbe0b"/>
      <path id="Tracé_49" data-name="Tracé 49" d="M537.942,494.639c-1.195,8.315,1.762,14.806,8.518,19.649,6.664,4.775,13.733,5.8,21.477,2.225a12.911,12.911,0,0,1-3.437,3.6,13.93,13.93,0,0,1-7.34,2.541,20.113,20.113,0,0,1-19.932-10.579,19.686,19.686,0,0,1-2.283-5.857,14.083,14.083,0,0,1,1.837-10.075c.3-.527.646-1.032.971-1.547Z" transform="translate(-473.83 -494.6)" fill="#ffbe0b"/>
      <path id="Tracé_50" data-name="Tracé 50" d="M559.351,570.226c1.818,0,3.458-.015,5.1.019a.771.771,0,0,1,.565.418c.271.779.471,1.583.75,2.565a3.712,3.712,0,0,0,.642-.549q2.372-3.4,4.718-6.814c.928-1.349,1.83-2.715,2.773-4.053a.958.958,0,0,1,.656-.382c1.814-.031,3.629-.017,5.585-.017-.3.5-.515.934-.8,1.316-1.893,2.555-3.76,5.132-5.713,7.64a48.863,48.863,0,0,0-6.536,9.987c-.355.8-.648,1.632-1.006,2.434-.081.184-.306.428-.468.431-1.661.032-3.323.02-4.876.02a33.75,33.75,0,0,0,.692-3.44,13.227,13.227,0,0,0-.839-5.181C560.162,573.2,559.785,571.761,559.351,570.226Z" transform="translate(-465.683 -472.543)" fill="#ffbe0b"/>
      <path id="Tracé_51" data-name="Tracé 51" d="M553.388,582.5h-4.931c.165-.858.307-1.664.477-2.465q.958-4.5,1.929-9c.5-2.33.987-4.665,1.518-6.99a.78.78,0,0,1,.569-.471c3.907-.028,7.819-.136,11.719.021,2.1.085,2.743.887,3.23,3.139.087.4.106.806.169,1.3h-.886c-3.311,0-6.62.015-9.93-.015-.576,0-.815.15-.931.733-.544,2.744-1.132,5.48-1.716,8.216C554.213,578.8,553.8,580.635,553.388,582.5Z" transform="translate(-469.279 -471.847)" fill="#ffbe0b"/>
      <path id="Tracé_52" data-name="Tracé 52" d="M488.932,588.734c.321-1.389.605-2.67.923-3.941a.675.675,0,0,1,.382-.442,5.864,5.864,0,0,1,1.457-.162,1.66,1.66,0,0,0,1.715-1.093,28.531,28.531,0,0,0,2.126-7.2c.476-2.384,1.092-4.739,1.617-7.112.136-.611.463-.768,1.047-.754,1.414.035,2.831.012,4.356.012-.113.63-.193,1.194-.318,1.747-.67,2.966-1.325,5.936-2.039,8.892-.513,2.128-1.061,4.251-1.688,6.348a5.186,5.186,0,0,1-4.066,3.812,16.513,16.513,0,0,1-4.8.15A2.708,2.708,0,0,1,488.932,588.734Z" transform="translate(-488.932 -470.356)" fill="#ffbe0b"/>
      <path id="Tracé_53" data-name="Tracé 53" d="M501.672,563.576l-.9,4.259h-5.315l.986-4.259Z" transform="translate(-486.779 -471.827)" fill="#ffbe0b"/>
    </g>
    <g id="Groupe_26" data-name="Groupe 26" transform="translate(546 10044.254)">
      <path id="Tracé_54" data-name="Tracé 54" d="M187.725,613.12v-118.3a.217.217,0,0,1,.217-.217h118.3a.217.217,0,0,1,.215.217v118.3a.217.217,0,0,1-.215.217h-118.3A.217.217,0,0,1,187.725,613.12Zm70.832-20.608a.217.217,0,0,0-.105.214.155.155,0,0,0,.013.053c.055.12.116.237.18.353a19.853,19.853,0,0,0,9.358,8.76,24.024,24.024,0,0,0,8.482,2.091,24.787,24.787,0,0,0,11.76-1.711,14.083,14.083,0,0,0,8.182-8.492,17.041,17.041,0,0,0,.761-7.215,14.516,14.516,0,0,0-2.732-7.561,18.58,18.58,0,0,0-6.64-5.435c-2.886-1.469-5.869-2.748-8.811-4.108a21.05,21.05,0,0,1-4.461-2.513c-2.5-2-2.491-6.808,1.056-8.2a6.91,6.91,0,0,1,7.088,1,9.63,9.63,0,0,1,2.3,2.816c.056.093.117.185.181.281a.217.217,0,0,0,.3.061l8.367-5.374a.211.211,0,0,0,.085-.257l-.009-.019a17.449,17.449,0,0,0-5.794-6.3,16.668,16.668,0,0,0-7.352-2.376,20.974,20.974,0,0,0-9.213.922,14.042,14.042,0,0,0-8.795,8.182,15.643,15.643,0,0,0-.951,7.424,14.6,14.6,0,0,0,3.371,8.381,21.135,21.135,0,0,0,7.248,5.3c2.706,1.284,5.47,2.445,8.2,3.682a14.15,14.15,0,0,1,3.7,2.252A4.926,4.926,0,0,1,286,589.116a4.842,4.842,0,0,1-3.2,4.117,11.527,11.527,0,0,1-9.356-.16,12.889,12.889,0,0,1-5.6-5.21c-.078-.122-.162-.242-.251-.37a.218.218,0,0,0-.286-.064Zm-39.439,1.2a.214.214,0,0,0-.093.253l.015.036a16.655,16.655,0,0,0,9.565,8.867,21.577,21.577,0,0,0,13.267.367,13.237,13.237,0,0,0,8.979-7.647,20.707,20.707,0,0,0,1.583-8.532q.014-18.671,0-37.345c0-.125-.008-.25-.016-.378a.216.216,0,0,0-.216-.2H241.41a.215.215,0,0,0-.216.215v.6q0,18.276-.012,36.554a19.921,19.921,0,0,1-.263,3.341,4.436,4.436,0,0,1-3.069,3.832,8.114,8.114,0,0,1-1.546.311,6.241,6.241,0,0,1-5.987-2.293c-.7-.889-1.272-1.88-1.9-2.825-.081-.122-.156-.249-.238-.385a.218.218,0,0,0-.3-.074Z" transform="translate(-187.725 -494.6)" fill="#ffbe0b"/>
    </g>
    <g id="Groupe_29" data-name="Groupe 29" transform="translate(-7261.542 5040.31)">
      <path id="Tracé_57" data-name="Tracé 57" d="M8325.774,5221.107c0,5.334-.009,10.668.01,16a1.745,1.745,0,0,1-.962,1.686q-5.414,3.094-10.8,6.235a1.844,1.844,0,0,1-2.059,0q-5.385-3.144-10.8-6.238a1.771,1.771,0,0,1-.974-1.689q.01-6.269,0-12.538a1.77,1.77,0,0,1,1-1.676q5.414-3.093,10.8-6.233a1.76,1.76,0,0,1,2,0c.712.444,1.452.845,2.179,1.263.77.444,1.02.311,1.021-.569q.006-4.127,0-8.253,0-4.158,0-8.316c0-1.153.477-1.432,1.5-.865,2.055,1.141,4.1,2.3,6.162,3.43a1.634,1.634,0,0,1,.926,1.578Q8325.762,5213.011,8325.774,5221.107Zm-8.6,9.711c0-.63.043-1.263-.018-1.887a1.1,1.1,0,0,0-.416-.739q-1.658-1.031-3.378-1.952a.967.967,0,0,0-.79,0c-1.144.617-2.272,1.265-3.376,1.952a1.051,1.051,0,0,0-.416.743c-.042,1.279-.039,2.56,0,3.839a.979.979,0,0,0,.391.694c1.1.685,2.23,1.338,3.377,1.951a1.054,1.054,0,0,0,.854-.006q1.72-.918,3.379-1.947a1.019,1.019,0,0,0,.379-.7C8317.209,5232.122,8317.174,5231.469,8317.172,5230.818Z" transform="translate(-430.545 0)" fill="#ffbe0b"/>
      <path id="Tracé_58" data-name="Tracé 58" d="M8054.7,5346.089c0-2.079.015-4.159-.007-6.238a1.706,1.706,0,0,1,.966-1.674q5.4-3.057,10.756-6.19a1.752,1.752,0,0,1,1.945,0q5.388,3.139,10.8,6.243a1.659,1.659,0,0,1,.92,1.583q-.025,6.269-.008,12.539a1.7,1.7,0,0,1-.949,1.629q-5.31,3.023-10.588,6.1a2.12,2.12,0,0,1-2.4-.02q-5.123-3.03-10.307-5.956a1.968,1.968,0,0,1-1.136-1.97c.054-2.015.016-4.032.016-6.049Z" transform="translate(-215.988 -115.421)" fill="#ffbe0b"/>
      <path id="Tracé_59" data-name="Tracé 59" d="M7807.552,5346.108c0-2.814.016-5.628-.01-8.442a1.719,1.719,0,0,1,.963-1.679c3.668-2.085,7.321-4.2,10.975-6.307a1.585,1.585,0,0,1,1.721.029q5.533,3.2,11.079,6.379a1.483,1.483,0,0,1,.807,1.388q-.013,8.662-.024,17.325c0,.842-.514,1.132-1.254.714-2.175-1.229-4.337-2.478-6.508-3.715a1.643,1.643,0,0,1-.808-1.591c0-2.541-.017-5.082.011-7.623a1.6,1.6,0,0,0-.9-1.583c-.849-.461-1.681-.953-2.513-1.443a1.438,1.438,0,0,0-1.55,0c-.836.481-1.664.98-2.512,1.441a1.679,1.679,0,0,0-.939,1.638c.02,2.457-.023,4.915.022,7.371a2,2,0,0,1-1.157,2.024c-2.03,1.1-4.016,2.279-6.023,3.419-.89.506-1.36.24-1.363-.775q-.008-4.284,0-8.567Z" transform="translate(0 -113.452)" fill="#ffbe0b"/>
      <path id="Tracé_60" data-name="Tracé 60" d="M8547.282,5345.267c0-2.038.016-4.075-.009-6.113a1.891,1.891,0,0,1,1.057-1.836c3.612-2.058,7.208-4.146,10.8-6.232a1.691,1.691,0,0,1,1.842-.014q5.495,3.206,11,6.393a1.452,1.452,0,0,1,.778,1.4c-.022,1.008-.018,2.017,0,3.024a1.365,1.365,0,0,1-.729,1.3c-2.2,1.276-4.391,2.559-6.593,3.825-.73.42-1.232.132-1.258-.721-.026-.924-.019-1.849,0-2.773a.977.977,0,0,0-.556-.965c-1.048-.578-2.082-1.181-3.109-1.794a.924.924,0,0,0-1.054-.007c-1.028.613-2.064,1.212-3.112,1.789a1.021,1.021,0,0,0-.573,1.021c.02,1.134.027,2.269,0,3.4a1.161,1.161,0,0,0,.671,1.156c3.506,1.99,7,4.006,10.494,6.013.182.1.37.2.543.318a.722.722,0,0,1,0,1.319c-2.268,1.28-4.535,2.561-6.845,3.762a1.743,1.743,0,0,1-1.414-.074c-3.727-2.068-7.421-4.194-11.128-6.3a1.634,1.634,0,0,1-.81-1.59C8547.287,5349.468,8547.282,5347.368,8547.282,5345.267Z" transform="translate(-646.478 -114.646)" fill="#ffbe0b"/>
      <path id="Tracé_61" data-name="Tracé 61" d="M8178.022,5570.718c.676-.318,1.25-.617,1.85-.852.15-.059.4.055.571.151.731.414,1.458.836,2.169,1.284a.787.787,0,0,0,.924,0q5.04-2.926,10.1-5.824a.878.878,0,0,0,.5-.853q-.021-5.8,0-11.595a.92.92,0,0,0-.544-.894c-3.208-1.836-6.414-3.674-9.6-5.551a1.568,1.568,0,0,0-1.833,0c-3.142,1.866-6.314,3.679-9.488,5.489a1.045,1.045,0,0,0-.623,1.035q.031,5.672,0,11.342a1.1,1.1,0,0,0,.685,1.13c.747.381,1.438.872,2.184,1.253a3.664,3.664,0,0,0,1.3.4,1.263,1.263,0,0,0,1.441-1.306c.025-.461.014-.923.015-1.386.007-3.486.024-6.973.009-10.46,0-.567.207-.725.738-.723,1.253,0,1.252-.015,1.252,1.219q0,5.545,0,11.091c0,2.906-1.894,4.339-4.625,3.309a20.55,20.55,0,0,1-4.16-2.326,2.254,2.254,0,0,1-.762-1.627c-.064-4.158-.05-8.317-.028-12.476a2.152,2.152,0,0,1,1.156-1.905q5.26-3.046,10.527-6.083a2.423,2.423,0,0,1,2.574,0q5.265,3.04,10.526,6.086a2.2,2.2,0,0,1,1.16,2.026q0,6.144,0,12.288a2.256,2.256,0,0,1-1.213,2.064q-5.232,3.031-10.472,6.052a2.273,2.273,0,0,1-2.345.1c-1.23-.682-2.426-1.423-3.634-2.145A3.074,3.074,0,0,1,8178.022,5570.718Z" transform="translate(-316.839 -301.132)" fill="#ffbe0b"/>
      <path id="Tracé_62" data-name="Tracé 62" d="M8259.582,5616.3c-.529.069-1.119.1-1.687.232a1.268,1.268,0,0,0-1.1,1.331c.037.674.563.851,1.084.948,1.2.224,2.4.389,3.6.605a13.181,13.181,0,0,1,1.775.421,3.042,3.042,0,0,1,1.244,4.995,3.352,3.352,0,0,1-1.162.842,9.049,9.049,0,0,1-7.162-.114,3.274,3.274,0,0,1-1.9-2.847c-.051-.441.1-.692.582-.674a3.338,3.338,0,0,0,.5,0c.58-.067.938.093,1.059.747a1.652,1.652,0,0,0,1.514,1.408,33.4,33.4,0,0,0,3.688.072,1.4,1.4,0,0,0,.959-.411,2.543,2.543,0,0,0,.548-1.252c.06-.5-.374-.791-.829-.886-.982-.206-1.979-.352-2.965-.541a26.693,26.693,0,0,1-2.822-.6,2.5,2.5,0,0,1-1.854-2.308,3.01,3.01,0,0,1,1.264-2.912,5.457,5.457,0,0,1,2.973-.9,7.977,7.977,0,0,1,4.062.62,3.421,3.421,0,0,1,1.9,2.857c.052.4-.092.606-.508.6a6.433,6.433,0,0,0-.693.007.736.736,0,0,1-.9-.633,1.838,1.838,0,0,0-1.541-1.4C8260.689,5616.407,8260.164,5616.371,8259.582,5616.3Z" transform="translate(-390.405 -362.513)" fill="#ffbe0b"/>
      <path id="Tracé_63" data-name="Tracé 63" d="M8628.7,5427.593c-.348-1.131.24-1.662,1.136-2.194a2.139,2.139,0,0,1,2.5-.007,2.517,2.517,0,0,1,0,4.34c-.891.513-1.612.7-2.421-.009a.2.2,0,0,0-.055-.032C8628.944,5429.283,8628.283,5428.72,8628.7,5427.593Z" transform="translate(-717.529 -196.958)" fill="#ffbe0b"/>
    </g>
    <text id="Express" transform="translate(735 10288)" fill="#ffbe0b" font-size="53" font-family="Raleway-Light, Raleway" font-weight="300"><tspan x="0" y="0">Express</tspan></text>
  </g>
</svg>
