<svg xmlns="http://www.w3.org/2000/svg" width="118.736" height="118.676" viewBox="0 0 118.736 118.676">
  <path id="Tracé_17" data-name="Tracé 17" d="M230.938,799.453c4.278-4.211,7.768-7.827,11.461-11.224,2.932-2.7,7.361-2.15,10.686,1.141,5.287,5.23,10.522,10.514,15.777,15.776q17.211,17.231,34.412,34.47c4.271,4.291,4.226,8.3.007,12.514q-24.793,24.763-49.574,49.539c-4.664,4.666-8.134,4.717-12.869-.011q-25.118-25.084-50.191-50.213c-3.548-3.553-3.972-7.466-.684-10.807,11.68-11.865,23.512-23.578,35.39-35.454,4.174,4.1,8.3,8.05,12.271,12.158.565.587.557,1.95.456,2.916a9.894,9.894,0,0,0,3.6,8.9,5.615,5.615,0,0,1,1.738,3.634c.152,9.114.192,18.234-.007,27.345-.029,1.355-1.276,2.892-2.333,3.98a9.808,9.808,0,0,0-2.389,10.679,9.16,9.16,0,0,0,8.5,5.881,9.394,9.394,0,0,0,6.725-16.3,5.761,5.761,0,0,1-2.112-4.89c.082-9.086.036-18.174.036-27.959,3.891,3.883,7.4,7.261,10.716,10.816.524.561.325,1.925.249,2.9a9.584,9.584,0,1,0,19.105.77,9.915,9.915,0,0,0-10.721-9.175,4.813,4.813,0,0,1-3.226-1.111q-5.058-4.709-9.783-9.766a5.311,5.311,0,0,1-1.256-3.267c-.133-7.061-3.461-10.39-10.692-10.568a4.5,4.5,0,0,1-2.562-.744c-1.463-1.172-2.7-2.618-4.08-3.907C236.849,804.9,234.078,802.36,230.938,799.453Z" transform="translate(-187.725 -786.51)" fill="#ffbe0b"/>
</svg>
