<svg xmlns="http://www.w3.org/2000/svg" width="130.579" height="126.339" viewBox="0 0 130.579 126.339">
  <g id="Groupe_61" data-name="Groupe 61" transform="translate(-1820.055 -2910.049)">
    <path id="Tracé_77" data-name="Tracé 77" d="M1897.456,3003.6c3.492-.784,6.856-1.336,10.1-2.3,11.2-3.344,17.262-11.094,18.877-22.516.662-4.68.908-9.353-.3-14a23.117,23.117,0,0,0-4.737-9.3,2.807,2.807,0,0,1-.644-3,23.492,23.492,0,0,0-.8-14.6,1.434,1.434,0,0,0-1.6-1.089,20.723,20.723,0,0,0-8.755,2.33c-2.363,1.146-4.588,2.573-6.922,3.781a3.326,3.326,0,0,1-2.1.369,63.886,63.886,0,0,0-30.529,0,3.062,3.062,0,0,1-2.093-.387c-4.285-2.628-8.63-5.084-13.683-5.925-.051-.009-.1-.026-.151-.035-2.8-.473-3.143-.281-3.931,2.434a23.723,23.723,0,0,0-.131,13.886,1.82,1.82,0,0,1-.283,1.476c-5.824,6.756-6.862,14.679-5.731,23.145.743,5.564,2.385,10.775,6.021,15.19,4.205,5.106,9.862,7.688,16.125,9.153,2.247.525,4.54.855,7.017,1.311a15.448,15.448,0,0,0-3.906,8.074c-.062.334-.564.7-.941.844-7.02,2.7-13.751,1.494-18-5.541-2.054-3.4-4.878-5.886-8.893-6.672a7.49,7.49,0,0,0-2.9.054c-1.441.3-1.613,1.081-.579,2.178a6.768,6.768,0,0,0,1.415,1.2,17.792,17.792,0,0,1,7.3,8.979c2.467,6.026,7.229,8.7,13.393,9.1a85.147,85.147,0,0,0,8.988-.335c0,2.433,0,5.055,0,7.676,0,1.085.016,2.171.027,3.256.035,3.371-1.914,4.776-5.149,3.663a63.52,63.52,0,0,1-18.6-10c-13.673-10.686-22.121-24.584-24.606-41.763a64.488,64.488,0,0,1,43.949-70.82,65.273,65.273,0,0,1,83.845,45.33c8.587,32.93-9.928,66.327-42.008,77.293-3.069,1.049-4.983-.339-4.981-3.551q.007-8.063.053-16.126C1901.635,3011.653,1900.87,3007.207,1897.456,3003.6Z" transform="translate(0)" fill="#ffbe0b"/>
    <path id="Tracé_78" data-name="Tracé 78" d="M1921.724,3234.426a20.161,20.161,0,0,1,1.51,2.01c.043.074-.722.788-.8.738a5.883,5.883,0,0,1-1.448-1.335C1920.892,3235.707,1921.311,3235.195,1921.724,3234.426Z" transform="translate(-69.617 -223.762)" fill="#ffbe0b"/>
    <path id="Tracé_79" data-name="Tracé 79" d="M1969.6,3244.668l1.121,1.3a4.837,4.837,0,0,1-1.551.952c-.323.055-.763-.564-1.15-.879Z" transform="translate(-102.068 -230.827)" fill="#ffbe0b"/>
    <path id="Tracé_80" data-name="Tracé 80" d="M1953.305,3246.735l1.37,1.312c-.458.325-.914.9-1.376.9-.443,0-.893-.579-1.34-.9Z" transform="translate(-90.99 -232.253)" fill="#ffbe0b"/>
    <path id="Tracé_81" data-name="Tracé 81" d="M1936.443,3247.636l-1.489-1.531c.364-.26.83-.807,1.072-.722a6.97,6.97,0,0,1,1.6,1.093Z" transform="translate(-79.26 -231.315)" fill="#ffbe0b"/>
    <path id="Tracé_82" data-name="Tracé 82" d="M1913.432,3225.606c-.511.437-.947.9-1.015.853a5.459,5.459,0,0,1-1.3-1.26c-.068-.1.437-.593.677-.906Z" transform="translate(-62.81 -216.772)" fill="#ffbe0b"/>
    <path id="Tracé_83" data-name="Tracé 83" d="M1904.085,3215.829a11.451,11.451,0,0,1-1.094-1.588c-.055-.118.363-.458.564-.7a10.925,10.925,0,0,1,1.188,1.207C1904.808,3214.839,1904.452,3215.244,1904.085,3215.829Z" transform="translate(-57.207 -209.358)" fill="#ffbe0b"/>
  </g>
</svg>
