<svg id="Groupe_25" data-name="Groupe 25" xmlns="http://www.w3.org/2000/svg" width="114.457" height="118.736" viewBox="0 0 114.457 118.736">
  <path id="Tracé_44" data-name="Tracé 44" d="M580.355,548.915c-1.031,1.582-1.977,3.226-3.106,4.734a36.442,36.442,0,0,1-14.443,11.386,33.362,33.362,0,0,1-10.263,2.831,50.983,50.983,0,0,1-6.374.41,43.9,43.9,0,0,1-18.142-3.971,47.982,47.982,0,0,1-20.639-18.671,40.279,40.279,0,0,1-5.478-14.975,43.475,43.475,0,0,1-.552-6.354,29.723,29.723,0,0,1,6.484-18.584,17.252,17.252,0,0,1,2.272-2.408c-.229,1.375-.5,2.745-.677,4.128-.23,1.79-.434,3.587-.559,5.387-.086,1.254-.029,2.518-.024,3.778a37.124,37.124,0,0,0,3,14.375,38.632,38.632,0,0,0,6.05,9.745,54.769,54.769,0,0,0,14.25,11.657,38.02,38.02,0,0,0,12.1,4.965,60.454,60.454,0,0,0,7.267,1,45.42,45.42,0,0,0,6.536-.008,37.422,37.422,0,0,0,12-2.908,33.341,33.341,0,0,0,8.117-4.892c.686-.559,1.329-1.171,1.993-1.757Z" transform="translate(-484.83 -491.723)" fill="#ffbe0b"/>
  <path id="Tracé_45" data-name="Tracé 45" d="M576.539,529.294a18.282,18.282,0,0,1-3.212,5.572,23.277,23.277,0,0,1-8.623,6.559,30.8,30.8,0,0,1-9.839,2.682,31.617,31.617,0,0,1-13.7-1.54,31.049,31.049,0,0,1-10.214-5.928,34.5,34.5,0,0,1-8.642-10.777,28.146,28.146,0,0,1-2.792-10.478,23.88,23.88,0,0,1,1.534-10.782,25.8,25.8,0,0,1,3.977-6.506.93.93,0,0,1,.2-.133c-.2,1.608-.487,3.179-.56,4.761-.094,2.056-.094,4.123.007,6.179a24.967,24.967,0,0,0,1.515,7.239,27.084,27.084,0,0,0,6.071,9.77,40.11,40.11,0,0,0,16.427,10.245,28,28,0,0,0,11.9,1.14,25.963,25.963,0,0,0,13.981-6.007,13.707,13.707,0,0,0,1.016-.991C575.907,529.968,576.221,529.629,576.539,529.294Z" transform="translate(-478.861 -493.49)" fill="#ffbe0b"/>
  <path id="Tracé_46" data-name="Tracé 46" d="M521.227,579.172l2.451.269-1.019,4.351a1.017,1.017,0,0,1-.194.051c-4.045.059-8.093.221-12.134.12a14.546,14.546,0,0,1-4.884-.5,6.689,6.689,0,0,1-4.548-5.717,18.058,18.058,0,0,1,1.935-10.9,12.4,12.4,0,0,1,8.516-6.963,10.918,10.918,0,0,1,9.9,2.035,8.09,8.09,0,0,1,2.658,4.794c.46,2.263-.156,4.376-.817,6.478-.561,1.789-1.222,3.546-1.825,5.323A2.65,2.65,0,0,0,521.227,579.172Zm-5.246.06c.809-3.277,1.6-6.523,2.412-9.765a4.1,4.1,0,0,0-1.55-4.134,5.917,5.917,0,0,0-4.984-.615,4.913,4.913,0,0,0-2.626,1.59,10.666,10.666,0,0,0-1.881,4.4c-.374,1.531-.569,3.107-.793,4.67a2.882,2.882,0,0,0,.712,2.546,4.385,4.385,0,0,0,3.1,1.28C512.207,579.3,514.049,579.232,515.981,579.232Z" transform="translate(-485.04 -473.173)" fill="#ffbe0b"/>
  <path id="Tracé_47" data-name="Tracé 47" d="M551.908,575.031h-.874c-3.61,0-7.219.012-10.829-.011-.629-.005-.817.158-.866.83-.148,2.042.959,2.255,2.435,2.293,3,.076,6,.023,9.109.023l-1.012,4.634c-3.151,0-6.3.077-9.447-.033-1.587-.055-3.239-.086-4.625-1.152a4.19,4.19,0,0,1-1.808-3.449,24.665,24.665,0,0,1,2.229-9.942,8.29,8.29,0,0,1,4.715-4.1,11.809,11.809,0,0,1,5.921-.882c2.291.238,4.4.987,5.424,3.311a5.688,5.688,0,0,1,.408,3.51C552.357,571.683,552.169,573.331,551.908,575.031Zm-4.5-4.074a7.978,7.978,0,0,0-.112-1.776c-.3-1.019-1.2-1.174-2.126-1.345a3.878,3.878,0,0,0-4.009,1.312,2.033,2.033,0,0,0-.7,1.809Z" transform="translate(-474.055 -471.959)" fill="#ffbe0b"/>
  <path id="Tracé_48" data-name="Tracé 48" d="M534.752,582.448a1.184,1.184,0,0,1-.194.048c-2.579.058-5.16.156-7.739.153a19.9,19.9,0,0,1-3.742-.314,4.175,4.175,0,0,1-3.361-4.284,31.389,31.389,0,0,1,.873-6.688c.483-2.313.916-4.638,1.375-6.957.052-.263.136-.52.217-.826h4.8c-.161,1.071-.267,2.086-.471,3.081-.444,2.169-1.057,4.312-1.369,6.5a33.659,33.659,0,0,0-.041,4.669h5.639c.3-1.285.637-2.6.927-3.92.521-2.378,1.018-4.763,1.527-7.144.184-.857.355-1.716.583-2.561.053-.2.309-.479.477-.483,1.463-.039,2.929-.023,4.443-.023Z" transform="translate(-478.769 -471.826)" fill="#ffbe0b"/>
  <path id="Tracé_49" data-name="Tracé 49" d="M537.942,494.639c-1.195,8.315,1.762,14.806,8.518,19.649,6.664,4.775,13.733,5.8,21.477,2.225a12.911,12.911,0,0,1-3.437,3.6,13.93,13.93,0,0,1-7.34,2.541,20.113,20.113,0,0,1-19.932-10.579,19.686,19.686,0,0,1-2.283-5.857,14.083,14.083,0,0,1,1.837-10.075c.3-.527.646-1.032.971-1.547Z" transform="translate(-473.83 -494.6)" fill="#ffbe0b"/>
  <path id="Tracé_50" data-name="Tracé 50" d="M559.351,570.226c1.818,0,3.458-.015,5.1.019a.771.771,0,0,1,.565.418c.271.779.471,1.583.75,2.565a3.712,3.712,0,0,0,.642-.549q2.372-3.4,4.718-6.814c.928-1.349,1.83-2.715,2.773-4.053a.958.958,0,0,1,.656-.382c1.814-.031,3.629-.017,5.585-.017-.3.5-.515.934-.8,1.316-1.893,2.555-3.76,5.132-5.713,7.64a48.863,48.863,0,0,0-6.536,9.987c-.355.8-.648,1.632-1.006,2.434-.081.184-.306.428-.468.431-1.661.032-3.323.02-4.876.02a33.75,33.75,0,0,0,.692-3.44,13.227,13.227,0,0,0-.839-5.181C560.162,573.2,559.785,571.761,559.351,570.226Z" transform="translate(-465.683 -472.543)" fill="#ffbe0b"/>
  <path id="Tracé_51" data-name="Tracé 51" d="M553.388,582.5h-4.931c.165-.858.307-1.664.477-2.465q.958-4.5,1.929-9c.5-2.33.987-4.665,1.518-6.99a.78.78,0,0,1,.569-.471c3.907-.028,7.819-.136,11.719.021,2.1.085,2.743.887,3.23,3.139.087.4.106.806.169,1.3h-.886c-3.311,0-6.62.015-9.93-.015-.576,0-.815.15-.931.733-.544,2.744-1.132,5.48-1.716,8.216C554.213,578.8,553.8,580.635,553.388,582.5Z" transform="translate(-469.279 -471.847)" fill="#ffbe0b"/>
  <path id="Tracé_52" data-name="Tracé 52" d="M488.932,588.734c.321-1.389.605-2.67.923-3.941a.675.675,0,0,1,.382-.442,5.864,5.864,0,0,1,1.457-.162,1.66,1.66,0,0,0,1.715-1.093,28.531,28.531,0,0,0,2.126-7.2c.476-2.384,1.092-4.739,1.617-7.112.136-.611.463-.768,1.047-.754,1.414.035,2.831.012,4.356.012-.113.63-.193,1.194-.318,1.747-.67,2.966-1.325,5.936-2.039,8.892-.513,2.128-1.061,4.251-1.688,6.348a5.186,5.186,0,0,1-4.066,3.812,16.513,16.513,0,0,1-4.8.15A2.708,2.708,0,0,1,488.932,588.734Z" transform="translate(-488.932 -470.356)" fill="#ffbe0b"/>
  <path id="Tracé_53" data-name="Tracé 53" d="M501.672,563.576l-.9,4.259h-5.315l.986-4.259Z" transform="translate(-486.779 -471.827)" fill="#ffbe0b"/>
</svg>
