<svg id="Groupe_26" data-name="Groupe 26" xmlns="http://www.w3.org/2000/svg" width="119.676" height="119.676" viewBox="0 0 119.676 119.676">
  <path id="Tracé_54" data-name="Tracé 54" d="M187.725,614.057V494.819a.219.219,0,0,1,.219-.219h119.24a.218.218,0,0,1,.217.219V614.057a.218.218,0,0,1-.217.218H187.944A.219.219,0,0,1,187.725,614.057Zm71.393-20.771a.219.219,0,0,0-.106.216.157.157,0,0,0,.013.054c.055.121.117.239.181.355a20.011,20.011,0,0,0,9.432,8.83,24.213,24.213,0,0,0,8.55,2.108,24.982,24.982,0,0,0,11.853-1.724,14.2,14.2,0,0,0,8.247-8.559,17.176,17.176,0,0,0,.767-7.272,14.631,14.631,0,0,0-2.754-7.62,18.727,18.727,0,0,0-6.693-5.478c-2.909-1.48-5.915-2.77-8.881-4.14a21.217,21.217,0,0,1-4.5-2.532c-2.522-2.014-2.511-6.862,1.064-8.26a6.965,6.965,0,0,1,7.145,1.008,9.7,9.7,0,0,1,2.322,2.838c.056.094.118.186.182.283a.219.219,0,0,0,.3.062l8.433-5.416a.213.213,0,0,0,.086-.259l-.009-.019a17.587,17.587,0,0,0-5.84-6.355,16.8,16.8,0,0,0-7.41-2.394,21.14,21.14,0,0,0-9.286.929,14.153,14.153,0,0,0-8.865,8.247,15.767,15.767,0,0,0-.959,7.482,14.716,14.716,0,0,0,3.4,8.447,21.3,21.3,0,0,0,7.305,5.343c2.727,1.294,5.513,2.464,8.263,3.711a14.263,14.263,0,0,1,3.728,2.27,4.965,4.965,0,0,1,1.688,4.424,4.881,4.881,0,0,1-3.223,4.149,11.618,11.618,0,0,1-9.43-.161,12.991,12.991,0,0,1-5.644-5.251c-.079-.123-.164-.244-.253-.373a.219.219,0,0,0-.288-.064ZM219.366,594.5a.215.215,0,0,0-.094.255l.015.036a16.786,16.786,0,0,0,9.641,8.937,21.746,21.746,0,0,0,13.372.37,13.342,13.342,0,0,0,9.05-7.708,20.871,20.871,0,0,0,1.6-8.6q.014-18.819,0-37.641c0-.126-.008-.252-.016-.381a.218.218,0,0,0-.217-.205h-10.88a.217.217,0,0,0-.217.217v.6q0,18.421-.012,36.843a20.081,20.081,0,0,1-.265,3.368,4.471,4.471,0,0,1-3.093,3.862,8.178,8.178,0,0,1-1.558.314,6.29,6.29,0,0,1-6.034-2.311c-.705-.9-1.282-1.894-1.914-2.847-.082-.123-.157-.251-.24-.388a.22.22,0,0,0-.3-.075Z" transform="translate(-187.725 -494.6)" fill="#ffbe0b"/>
</svg>
