<svg id="Groupe_13" data-name="Groupe 13" xmlns="http://www.w3.org/2000/svg" width="118.737" height="61.454" viewBox="0 0 118.737 61.454">
  <path id="Tracé_18" data-name="Tracé 18" d="M360.621,834.135c-.18.392-.362.782-.539,1.176-1.794,4-3.609,8-5.372,12.015-.837,1.9-1.881,2.514-4.288,2.353a3.33,3.33,0,0,1-2.972-2.247c-1.888-4.268-3.807-8.521-5.716-12.78-.08-.177-.173-.349-.259-.523l-.126.016v.52c0,4.738-.007,9.475.011,14.211,0,.471-.118.619-.593.6-.915-.037-1.833-.021-2.748-.005-.344.005-.493-.077-.493-.464.013-5.032,0-10.064.016-15.1a2.212,2.212,0,0,1,1.941-2.5,10.133,10.133,0,0,1,2.563-.307,3.449,3.449,0,0,1,3.2,2.369c1.083,2.538,2.181,5.068,3.273,7.6q1.087,2.52,2.173,5.039c.067.153.146.3.269.545.117-.231.2-.383.273-.541,1.849-4.149,3.728-8.286,5.532-12.454.946-2.187,2.587-2.873,4.808-2.518a9.071,9.071,0,0,1,1.522.415,2.057,2.057,0,0,1,1.453,1.914c.025.294.036.589.036.885q0,7.221,0,14.444c0,.664,0,.664-.66.665-.886,0-1.772-.019-2.655.008-.406.012-.525-.108-.524-.523.016-4.753.009-9.505.009-14.258v-.536Z" transform="translate(-337.524 -793.474)" fill="#ffbe0b"/>
  <path id="Tracé_19" data-name="Tracé 19" d="M408.66,848.633l3.615,3.283c-.029.044-.045.086-.06.086-1.319.008-2.639.023-3.957.005a.919.919,0,0,1-.516-.258c-.825-.732-1.645-1.469-2.448-2.224a1.116,1.116,0,0,0-.881-.3c-2.293.07-4.588.141-6.882.176a7.913,7.913,0,0,1-3.843-.942,3.6,3.6,0,0,1-2.038-3.4c0-3.106.011-6.212-.007-9.316a3.654,3.654,0,0,1,2.316-3.594,8.013,8.013,0,0,1,3.331-.755q4.028-.02,8.058,0a7.979,7.979,0,0,1,3.329.757,3.632,3.632,0,0,1,2.3,3.557c-.019,3.09-.024,6.18,0,9.27a3.4,3.4,0,0,1-2.1,3.5A1.586,1.586,0,0,0,408.66,848.633Zm-9.386-4.556.031-.11c1.253,0,2.506-.017,3.758.015a1.351,1.351,0,0,1,.775.3c.758.641,1.491,1.314,2.213,2a.436.436,0,0,0,.678.024,1.951,1.951,0,0,0,.737-1.589q.014-4.356,0-8.71a1.842,1.842,0,0,0-1.337-1.869,5.429,5.429,0,0,0-1.59-.278c-1.785-.033-3.57-.019-5.357-.009a11.542,11.542,0,0,0-1.39.09,2.054,2.054,0,0,0-2.026,2.292c0,2.734.035,5.466-.013,8.2a2.247,2.247,0,0,0,2.305,2.427c1.254.063,2.511.057,3.768.076a3.509,3.509,0,0,0,.487-.081Z" transform="translate(-319.656 -793.366)" fill="#ffbe0b"/>
  <path id="Tracé_20" data-name="Tracé 20" d="M429.237,838.61a12.277,12.277,0,0,0,1.092,1.095,13.406,13.406,0,0,0,1.522.987,14.409,14.409,0,0,1,3.615,3.049c.354.411.749.789,1.089,1.209a9.846,9.846,0,0,1,.612.946l-.1.081a.752.752,0,0,1-.174-.093,18.6,18.6,0,0,0-4.953-3.174,10.553,10.553,0,0,1-4.256-3.231,10.221,10.221,0,0,1-.813-1.456c-.168-.327.108-.48.333-.544,1.173-.337,2.341-.712,3.537-.935a19.812,19.812,0,0,1,2.644-.149c.132-.005.263-.027.543-.057a4.566,4.566,0,0,0-.652-.712c-2.518-1.715-4.891-3.7-7.98-4.367a3.235,3.235,0,0,1-2.366-1.906c-1.264-2.745-2.592-5.463-3.782-8.239a26.053,26.053,0,0,0-12.69-13.01,8.437,8.437,0,0,0-3.556-.8,5.347,5.347,0,0,1-1.431-.126,3.161,3.161,0,0,1-1.021-.6,12.254,12.254,0,0,0-4.645-2.265.965.965,0,0,0-1.188,1.373,5.392,5.392,0,0,0,.887,1.567,17.063,17.063,0,0,1,3.615,6.951,12.279,12.279,0,0,0,1.032,2.533,8.941,8.941,0,0,0,1.278,1.756,1.756,1.756,0,0,1,.48,1.828c-.294.912-.66,1.809-.877,2.74a12.424,12.424,0,0,0,.709,8.142,2.4,2.4,0,0,0,1.076,1.3c.3.146.482.124.521-.283.085-.847.219-1.691.322-2.537a6.21,6.21,0,0,1,1.911-3.674c1.708,4.282,3.77,8.343,7.1,11.676a5.214,5.214,0,0,1-.476-.338c-1.044-.928-2.09-1.854-3.12-2.8a11.64,11.64,0,0,1-2.926-4.1c-.121-.285-.277-.555-.42-.83-.011-.021-.049-.028-.161-.084-.109.607-.217,1.188-.318,1.772-.086.5-.126,1.019-.258,1.51a1.7,1.7,0,0,1-2.772.976,5.264,5.264,0,0,1-1.6-2.032,11.566,11.566,0,0,1-1.131-6.512,24.476,24.476,0,0,1,.91-4.5,1.7,1.7,0,0,0-.422-1.89,12.476,12.476,0,0,1-2.047-4.049c-.339-.98-.6-1.989-.978-2.953a8.87,8.87,0,0,0-.955-1.745c-.541-.794-1.159-1.536-1.733-2.309a4.964,4.964,0,0,1-1.032-2.209,2.336,2.336,0,0,1,2.35-2.793,8.339,8.339,0,0,1,2.44.483,9.562,9.562,0,0,1,3.446,1.981,1.952,1.952,0,0,0,1.414.469,13.459,13.459,0,0,1,7.388,2.592,29.926,29.926,0,0,1,9.448,9.873c.544.93.9,1.969,1.357,2.952,1.152,2.473,2.314,4.941,3.468,7.413a2.236,2.236,0,0,0,1.382,1.205,25.217,25.217,0,0,1,7.393,4.509,13.529,13.529,0,0,1,2.271,2.386c.214.287.182.44-.174.508-1.23.234-2.463.455-3.689.712-.8.168-1.592.388-2.386.587Z" transform="translate(-319.141 -802.802)" fill="#ffbe0b"/>
  <path id="Tracé_21" data-name="Tracé 21" d="M360.5,853.48v-2.51c.219-.011.418-.029.616-.029,3.788,0,7.578.012,11.367-.016a5.573,5.573,0,0,0,1.672-.315,1.36,1.36,0,0,0,.938-1.407c.012-1.306.017-1.306-1.278-1.306-2.361,0-4.721.007-7.082,0a8.584,8.584,0,0,1-4.473-1.048,5.225,5.225,0,0,1-1.406-1.253,2.271,2.271,0,0,1-.444-1.285c-.036-2.872-.015-5.745-.012-8.618a1.811,1.811,0,0,1,.025-.189c.122-.012.254-.036.386-.037.978,0,1.957.016,2.934-.009.38-.011.474.128.472.482-.012,2.5-.007,5-.007,7.5,0,1.536.569,2.136,2.12,2.161,1.583.025,3.167.009,4.751.011,1.18,0,2.361-.016,3.541.007.387.007.5-.112.5-.5-.015-3.013-.008-6.026-.008-9.038v-.6c.158-.015.29-.037.423-.037.979,0,1.957.013,2.934-.009.363-.008.488.1.487.468-.007,2.95,0,5.9,0,8.852,0,1.459-.039,2.92-.011,4.379a3.522,3.522,0,0,1-2.074,3.408,8.086,8.086,0,0,1-3.755.935c-4.006.016-8.013.005-12.019.005Z" transform="translate(-329.976 -792.029)" fill="#ffbe0b"/>
  <path id="Tracé_22" data-name="Tracé 22" d="M382.93,849.345c-1.9,0-3.79-.013-5.685.009-.438.005-.577-.142-.552-.563a11.64,11.64,0,0,0,0-1.4c-.027-.418.138-.524.54-.523q4.962.022,9.924,0a6.749,6.749,0,0,0,1.608-.2,1.722,1.722,0,0,0,1.382-1.838c0-.5,0-.994,0-1.491a1.521,1.521,0,0,0-1.173-1.631,8.07,8.07,0,0,0-1.874-.286c-1.551-.041-3.107.026-4.658-.031a8.134,8.134,0,0,1-4.193-1.212,2.917,2.917,0,0,1-1.523-2.784c.056-.851-.045-1.716.049-2.559.181-1.6,1.294-2.413,2.684-2.973a10.21,10.21,0,0,1,3.8-.531c3.448-.035,6.9-.007,10.345-.02.386,0,.523.109.5.5a12.092,12.092,0,0,0,0,1.538c.029.428-.141.513-.536.512q-5.243-.02-10.486,0a9.441,9.441,0,0,0-1.429.153,1.231,1.231,0,0,0-1.119,1.187,10.826,10.826,0,0,0,.017,2.275c.158,1.131.9,1.652,2.207,1.667,1.756.017,3.512-.011,5.266.013a8.52,8.52,0,0,1,3.569.746,7.752,7.752,0,0,1,1.418.878,2.292,2.292,0,0,1,.928,1.983c-.031.869-.025,1.74,0,2.61a2.941,2.941,0,0,1-1.3,2.543,7.064,7.064,0,0,1-4.074,1.4c-1.877.057-3.758.015-5.637.015Z" transform="translate(-324.593 -793.388)" fill="#ffbe0b"/>
  <path id="Tracé_23" data-name="Tracé 23" d="M411.951,838.465c0,2.066,0,4.131,0,6.2a1.854,1.854,0,0,0,1.977,2.122c1.113.069,2.231.088,3.347.093,2.515.013,5.032.016,7.547-.007.46,0,.6.138.564.581a9.778,9.778,0,0,0,0,1.4c.024.387-.112.508-.5.5-1.786-.016-3.573-.005-5.358-.007-1.693,0-3.387.02-5.079-.024a10.285,10.285,0,0,1-3.718-.732,3.86,3.86,0,0,1-2.612-3.9c0-4.271.005-8.542-.012-12.813,0-.459.137-.58.579-.565.931.032,1.865.027,2.8,0,.38-.011.475.129.474.486C411.946,834.023,411.951,836.244,411.951,838.465Z" transform="translate(-314.22 -793.388)" fill="#ffbe0b"/>
  <path id="Tracé_24" data-name="Tracé 24" d="M428.188,843.627a2.709,2.709,0,0,1-2.836,2.788,2.784,2.784,0,0,1-2.8-2.811,2.817,2.817,0,0,1,2.893-2.827A2.757,2.757,0,0,1,428.188,843.627Zm-.511,0a2.291,2.291,0,1,0-4.581-.032,2.292,2.292,0,1,0,4.581.032Z" transform="translate(-309.451 -790.264)" fill="#ffbe0b"/>
  <path id="Tracé_25" data-name="Tracé 25" d="M401.536,811.081l-1.612-2.539a1.525,1.525,0,0,1,1.612,2.539Z" transform="translate(-316.922 -800.962)" fill="#ffbe0b"/>
  <path id="Tracé_26" data-name="Tracé 26" d="M425.388,843.518l.8,1.284a.367.367,0,0,1-.575-.168c-.164-.281-.352-.548-.5-.837s-.374-.41-.637-.29c-.116.052-.156.318-.186.493s.015.375-.016.556a1.03,1.03,0,0,1-.181.313c-.07-.1-.2-.19-.2-.287-.016-.853-.021-1.7,0-2.555a.453.453,0,0,1,.307-.32,9.771,9.771,0,0,1,1.293.056.72.72,0,0,1,.745.684.771.771,0,0,1-.6.95C425.565,843.422,425.5,843.461,425.388,843.518Zm-1.107-1c-.005.584.064.649.611.612a.974.974,0,0,0,.451-.061c.165-.116.378-.306.38-.468a.7.7,0,0,0-.358-.484c-.156-.086-.391-.02-.589-.04C424.41,842.037,424.2,842.149,424.281,842.516Z" transform="translate(-309.015 -789.959)" fill="#ffbe0b"/>
</svg>
