<svg xmlns="http://www.w3.org/2000/svg" width="142.478" height="87.244" viewBox="0 0 142.478 87.244">
  <g id="Groupe_29" data-name="Groupe 29" transform="translate(-7807.542 -5199.623)">
    <path id="Tracé_57" data-name="Tracé 57" d="M8330.89,5225.4c0,6.4-.011,12.8.012,19.2a2.093,2.093,0,0,1-1.155,2.023q-6.5,3.712-12.958,7.482a2.212,2.212,0,0,1-2.47,0q-6.461-3.773-12.958-7.485a2.126,2.126,0,0,1-1.169-2.028q.013-7.521,0-15.044a2.123,2.123,0,0,1,1.2-2.012q6.5-3.711,12.961-7.479a2.112,2.112,0,0,1,2.4-.006c.854.533,1.742,1.014,2.614,1.516.924.532,1.224.372,1.226-.684q.009-4.952,0-9.9,0-4.99,0-9.979c0-1.384.571-1.719,1.8-1.039,2.466,1.37,4.923,2.756,7.395,4.116a1.961,1.961,0,0,1,1.111,1.893Q8330.874,5215.688,8330.89,5225.4Zm-10.323,11.653c0-.756.052-1.516-.021-2.265a1.32,1.32,0,0,0-.5-.886c-1.328-.825-2.681-1.6-4.054-2.343a1.161,1.161,0,0,0-.948,0q-2.06,1.11-4.052,2.342a1.261,1.261,0,0,0-.5.891c-.051,1.535-.047,3.072,0,4.607a1.175,1.175,0,0,0,.468.833c1.325.822,2.677,1.606,4.053,2.341a1.265,1.265,0,0,0,1.024-.007q2.064-1.1,4.054-2.337a1.226,1.226,0,0,0,.455-.841C8320.61,5238.619,8320.568,5237.836,8320.566,5237.056Z" transform="translate(-418.125)" fill="#ffbe0b"/>
    <path id="Tracé_58" data-name="Tracé 58" d="M8054.7,5348.968c0-2.5.019-4.991-.009-7.485a2.047,2.047,0,0,1,1.16-2.008q6.479-3.669,12.906-7.428a2.1,2.1,0,0,1,2.333,0q6.467,3.766,12.957,7.492a1.991,1.991,0,0,1,1.1,1.9q-.031,7.523-.01,15.046a2.037,2.037,0,0,1-1.139,1.955q-6.372,3.628-12.705,7.321a2.544,2.544,0,0,1-2.88-.023q-6.148-3.636-12.369-7.147a2.359,2.359,0,0,1-1.362-2.364c.063-2.417.019-4.838.019-7.258Z" transform="translate(-209.759 -112.091)" fill="#ffbe0b"/>
    <path id="Tracé_59" data-name="Tracé 59" d="M7807.555,5349.441c0-3.377.02-6.753-.013-10.13a2.064,2.064,0,0,1,1.155-2.015c4.4-2.5,8.785-5.036,13.17-7.568a1.9,1.9,0,0,1,2.064.036q6.64,3.839,13.294,7.654a1.778,1.778,0,0,1,.969,1.666q-.016,10.395-.028,20.789c0,1.011-.616,1.359-1.506.857-2.609-1.474-5.2-2.974-7.81-4.458a1.971,1.971,0,0,1-.969-1.909c.006-3.049-.021-6.1.014-9.147a1.922,1.922,0,0,0-1.084-1.9c-1.018-.554-2.017-1.143-3.016-1.732a1.725,1.725,0,0,0-1.859-.005c-1,.578-2,1.176-3.015,1.73a2.016,2.016,0,0,0-1.127,1.965c.024,2.949-.027,5.9.026,8.845a2.4,2.4,0,0,1-1.389,2.429c-2.436,1.319-4.819,2.735-7.228,4.1-1.068.607-1.632.287-1.636-.931q-.01-5.141,0-10.28Z" transform="translate(0 -110.18)" fill="#ffbe0b"/>
    <path id="Tracé_60" data-name="Tracé 60" d="M8547.284,5348.159c0-2.445.018-4.89-.011-7.335a2.267,2.267,0,0,1,1.268-2.2c4.335-2.47,8.65-4.977,12.964-7.479a2.031,2.031,0,0,1,2.211-.017q6.593,3.847,13.2,7.671a1.741,1.741,0,0,1,.934,1.68c-.026,1.21-.021,2.42,0,3.629a1.637,1.637,0,0,1-.875,1.557c-2.636,1.531-5.269,3.07-7.911,4.589-.877.5-1.479.159-1.51-.864-.031-1.108-.022-2.219,0-3.328a1.174,1.174,0,0,0-.667-1.158c-1.257-.694-2.5-1.417-3.73-2.153a1.112,1.112,0,0,0-1.266-.009q-1.85,1.1-3.734,2.147a1.223,1.223,0,0,0-.687,1.226c.023,1.361.032,2.722,0,4.082a1.393,1.393,0,0,0,.8,1.388c4.207,2.389,8.4,4.807,12.593,7.216.219.125.445.24.651.382a.865.865,0,0,1,0,1.582c-2.721,1.536-5.441,3.074-8.213,4.515a2.092,2.092,0,0,1-1.7-.089c-4.471-2.481-8.9-5.034-13.353-7.559a1.962,1.962,0,0,1-.972-1.908C8547.29,5353.2,8547.284,5350.68,8547.284,5348.159Z" transform="translate(-627.831 -111.339)" fill="#ffbe0b"/>
    <path id="Tracé_61" data-name="Tracé 61" d="M8179.61,5576.021c.811-.382,1.5-.741,2.22-1.023.18-.07.481.067.686.182.878.5,1.75,1,2.6,1.54a.944.944,0,0,0,1.109,0q6.048-3.51,12.115-6.989a1.052,1.052,0,0,0,.6-1.023q-.023-6.958,0-13.914a1.1,1.1,0,0,0-.653-1.072c-3.85-2.2-7.7-4.409-11.516-6.661a1.881,1.881,0,0,0-2.2,0c-3.77,2.239-7.577,4.415-11.385,6.587a1.252,1.252,0,0,0-.747,1.241q.036,6.806,0,13.611a1.32,1.32,0,0,0,.821,1.355c.9.458,1.726,1.047,2.621,1.5a4.387,4.387,0,0,0,1.565.479,1.515,1.515,0,0,0,1.729-1.567c.03-.553.016-1.108.018-1.663.008-4.184.029-8.367.01-12.551,0-.68.248-.87.886-.868,1.5,0,1.5-.018,1.5,1.463q0,6.653,0,13.309c0,3.487-2.272,5.206-5.551,3.971a24.631,24.631,0,0,1-4.991-2.792,2.7,2.7,0,0,1-.915-1.953c-.077-4.989-.06-9.98-.033-14.97a2.582,2.582,0,0,1,1.387-2.287q6.311-3.656,12.632-7.3a2.907,2.907,0,0,1,3.089,0q6.318,3.648,12.631,7.3a2.644,2.644,0,0,1,1.393,2.431q0,7.373,0,14.745a2.708,2.708,0,0,1-1.456,2.477q-6.278,3.637-12.565,7.262a2.728,2.728,0,0,1-2.813.123c-1.476-.818-2.912-1.708-4.361-2.573A3.731,3.731,0,0,1,8179.61,5576.021Z" transform="translate(-307.7 -292.446)" fill="#ffbe0b"/>
    <path id="Tracé_62" data-name="Tracé 62" d="M8260.645,5616.676c-.635.083-1.342.125-2.024.278a1.519,1.519,0,0,0-1.323,1.6c.044.809.674,1.021,1.3,1.138,1.436.268,2.883.467,4.319.727a15.868,15.868,0,0,1,2.131.506,3.65,3.65,0,0,1,1.492,5.993,4.006,4.006,0,0,1-1.395,1.011,10.857,10.857,0,0,1-8.594-.137,3.928,3.928,0,0,1-2.277-3.416c-.062-.53.123-.83.7-.809a3.976,3.976,0,0,0,.605-.005c.7-.081,1.125.112,1.27.9a1.985,1.985,0,0,0,1.816,1.689,40.171,40.171,0,0,0,4.426.087,1.687,1.687,0,0,0,1.15-.493,3.054,3.054,0,0,0,.657-1.5c.071-.6-.448-.949-1-1.063-1.179-.247-2.373-.422-3.558-.649a31.841,31.841,0,0,1-3.387-.717,3,3,0,0,1-2.225-2.769,3.612,3.612,0,0,1,1.516-3.495,6.551,6.551,0,0,1,3.567-1.084,9.575,9.575,0,0,1,4.874.744,4.108,4.108,0,0,1,2.278,3.429c.062.474-.111.728-.609.718a7.619,7.619,0,0,0-.832.008.884.884,0,0,1-1.086-.759,2.2,2.2,0,0,0-1.85-1.684C8261.975,5616.8,8261.344,5616.759,8260.645,5616.676Z" transform="translate(-379.143 -352.056)" fill="#ffbe0b"/>
    <path id="Tracé_63" data-name="Tracé 63" d="M8628.729,5428.113c-.418-1.358.289-1.994,1.363-2.632a2.566,2.566,0,0,1,3-.008,3.021,3.021,0,0,1,.007,5.208c-1.068.615-1.936.837-2.906-.011a.286.286,0,0,0-.064-.039C8629.018,5430.141,8628.225,5429.466,8628.729,5428.113Z" transform="translate(-696.832 -191.277)" fill="#ffbe0b"/>
  </g>
</svg>
