<svg id="Groupe_7" data-name="Groupe 7" xmlns="http://www.w3.org/2000/svg" width="118.736" height="55.973" viewBox="0 0 118.736 55.973">
  <path id="Tracé_9" data-name="Tracé 9" d="M187.725,708.544c.206-1.079.4-2.131.607-3.183q1.2-6.175,2.408-12.348,1.283-6.588,2.565-13.178c.936-4.82,1.86-9.642,2.815-14.46.235-1.191-.031-.994,1.221-.995,6.1-.008,12.2-.031,18.307.009a17.533,17.533,0,0,1,7.237,1.474,10.758,10.758,0,0,1,6.57,8.517,19.863,19.863,0,0,1-1.846,11.661,19.236,19.236,0,0,1-7.828,8.469,16.178,16.178,0,0,1-6.03,1.9,42.439,42.439,0,0,1-6.482.454c-2.362-.009-4.725,0-7.088-.008-.358,0-.533.053-.613.478-.685,3.631-1.41,7.255-2.106,10.885-.059.3-.18.384-.46.384q-4.459-.008-8.919-.007A2.556,2.556,0,0,1,187.725,708.544Zm16.885-37.032c-1.2,6.129-2.378,12.194-3.563,18.274.543.04.994.113,1.441.1,2.542-.079,5.088-.124,7.624-.29a10.413,10.413,0,0,0,4.612-1.418,8.064,8.064,0,0,0,3.357-3.742,15.847,15.847,0,0,0,1.48-8.554,4.182,4.182,0,0,0-3-3.654,15.565,15.565,0,0,0-4.69-.774c-1.4-.033-2.811.041-4.217.056C206.652,671.521,205.652,671.513,204.61,671.513Z" transform="translate(-187.725 -652.632)" fill="#ffbe0b"/>
  <path id="Tracé_10" data-name="Tracé 10" d="M245.474,708.576c.21-1.081.407-2.1.607-3.126q1.439-7.416,2.881-14.831,1.151-5.9,2.31-11.8,1.339-6.866,2.663-13.733c.137-.71.13-.712.849-.712,6.245,0,12.49-.047,18.734.02a15.923,15.923,0,0,1,8.948,2.475,10.541,10.541,0,0,1,4.826,8.086,19.9,19.9,0,0,1-4.973,15.643,15.628,15.628,0,0,1-7.78,5.154,28.142,28.142,0,0,1-5.478.91c-3.7.181-7.406.153-11.111.191-.4,0-.553.11-.632.527-.66,3.509-1.35,7.011-2.03,10.516-.136.7-.13.7-.863.7h-8.357C245.886,708.6,245.705,708.587,245.474,708.576Zm13.332-18.787c.6.039,1.111.1,1.621.1,1.531-.008,3.065.015,4.592-.078a33.257,33.257,0,0,0,4.453-.5,8.389,8.389,0,0,0,6.133-4.411,16,16,0,0,0,1.776-8.65,4.307,4.307,0,0,0-3.236-4.082,16.294,16.294,0,0,0-4.464-.714c-1.421-.033-2.843.041-4.263.056-1.014.011-2.026,0-3.05,0Z" transform="translate(-168.659 -652.634)" fill="#ffbe0b"/>
  <path id="Tracé_11" data-name="Tracé 11" d="M219.115,699.777c.194-1.021.366-1.938.543-2.852q1.253-6.427,2.507-12.855,1-5.142,2.01-10.283,1.49-7.668,2.98-15.337c.16-.826.33-1.649.486-2.477.052-.278.153-.43.482-.428,2.942.012,5.885.007,8.826.008a3.6,3.6,0,0,1,.38.048c-.757,3.887-1.51,7.751-2.276,11.688h.591c2.707,0,5.416-.057,8.121.016a24.052,24.052,0,0,1,7.981,1.378,7.858,7.858,0,0,1,3.46,2.244,7.107,7.107,0,0,1,1.469,4.262,24.7,24.7,0,0,1-.694,6.123q-1.259,6.427-2.51,12.855c-.341,1.744-.688,3.488-1.018,5.233-.049.261-.137.382-.418.382q-4.553-.01-9.108-.008a1.982,1.982,0,0,1-.283-.049c.172-.9.335-1.782.507-2.666q1.339-6.864,2.675-13.726c.285-1.469.591-2.938.77-4.422.322-2.636-.806-3.759-3.063-4.167a16.861,16.861,0,0,0-2.606-.217c-2.249-.056-4.5-.062-6.751-.112-.384-.008-.541.1-.615.489-.624,3.294-1.268,6.583-1.909,9.872q-1.391,7.139-2.784,14.278c-.14.721-.13.722-.842.722q-4.108,0-8.215,0Z" transform="translate(-177.361 -655.545)" fill="#ffbe0b"/>
</svg>
