<svg xmlns="http://www.w3.org/2000/svg" width="127.813" height="125.931" viewBox="0 0 127.813 125.931">
  <g id="Groupe_60" data-name="Groupe 60" transform="translate(-356.217 -799.611)">
    <path id="Tracé_74" data-name="Tracé 74" d="M478.184,851.887c4.24.014,5.149.933,5.589,5.069a41.014,41.014,0,0,1-4.568,24.063c-.2.365-.375.74-.543,1.12a1.616,1.616,0,0,0-.061.4c4.151,1.284,4.84,2.731,3.2,6.878-4.128,10.4-11.221,18.459-19.982,25.182a52.8,52.8,0,0,1-31.189,10.9c-25.492.806-45.291-9.834-59.773-30.533-2.666-3.809-4.329-8.307-6.494-12.472-.632-1.214-1.349-2.385-2.1-3.528-1.588-2.417-3.383-4.718-4.8-7.229a8.325,8.325,0,0,1,.7-9.74c1.748-2.221,1.654-4.395.834-6.8-.557-1.635-1.106-3.275-1.621-4.924a11.485,11.485,0,0,1,2.5-11.6,22.812,22.812,0,0,1,3.753-3.552,7.749,7.749,0,0,0,3.42-6.92c-.019-.619.01-1.242.024-1.865.14-8.382,4.02-12.908,12.369-13.69a13.988,13.988,0,0,0,10.129-5.6c7.06-8.686,16.955-9.792,26.026-3.181a5.566,5.566,0,0,0,2.788,1.1c18.97.993,34.033,9.511,46.078,23.847.965,1.148,1.771,2.071,3.5,2.076a4.4,4.4,0,0,1,2.745,1.574,28.22,28.22,0,0,1,7.281,17.025C478.057,850.3,478.123,851.1,478.184,851.887Zm-44.2,45.577a17.576,17.576,0,0,0,7.862,5.378c2.877.984,5.894,1.56,9.276,2.427a41.856,41.856,0,0,1-25.745-2.882c-8.105-3.495-14.7-9.07-20.956-15.207.417,6.165,4.01,10.654,7.618,15.17-10.448-4.943-17.386-12.87-19.373-24.325-3.247-18.722,4.835-30.893,22.765-37.064a55.54,55.54,0,0,0-7.295-3.28c-11.057-3.823-21.046-2.057-29.483,6.232-9.942,9.768-12.434,21.959-10.809,35.307a17.724,17.724,0,0,0,1.616,5.959c12.519,24.189,32.4,36.759,59.7,36.843,23.252.071,41.416-15.793,49.086-33.212a14.346,14.346,0,0,0,.487-1.846c-6.508,4.507-12.5,8.972-20.254,9.942a41.1,41.1,0,0,0,17.2-16.8,37.515,37.515,0,0,0,4.376-24.016c-1.921,3.326-3.542,6.259-5.28,9.117-2.464,4.043-4.844,6.62-6.765,7.389,3.523-5.8,6.17-11.765,6.536-18.5a26.045,26.045,0,0,0-5.571-18.235c4.081,20.966-4.484,36.759-20.062,49.986,6.447,1.021,12.031-1.064,17.419-4.114C457.518,890.783,447.061,896.409,433.98,897.464Zm-2.254,3.425c-.436-.717-.661-.928-.7-1.171-.22-1.354-.8-2.816-.487-4.048.389-1.574,2.061-1.682,3.575-1.883a91.6,91.6,0,0,0,9.16-1.616,46.863,46.863,0,0,0,5.58-2.066c-.7-.633-1.368-.6-1.729-.923-.923-.825-2.277-1.734-2.4-2.736a4.355,4.355,0,0,1,1.518-3.462,47.135,47.135,0,0,0,15.854-18.8,39.029,39.029,0,0,0,4.043-13.287,66.652,66.652,0,0,1-6.976,2.736c-5.885,1.588-11.811.876-17.672-.243-8.185-1.565-15.939-4.5-23.575-7.773a4.128,4.128,0,0,0-2.544-.464c-7.44,2.362-13.694,6.391-17.2,13.629-3.8,7.853-3.49,15.92-.464,23.955.633,1.687,1.495,3.289,2.254,4.929.576-.474.689-.792.679-1.1a3.459,3.459,0,0,1,2.268-3.79c1.841-.67,3.134.281,4.343,1.6,1.631,1.78,3.3,3.547,5.088,5.163A50,50,0,0,0,431.726,900.888Zm-65.671-36.562a41.8,41.8,0,0,1,9.492-19.607c7.5-8.523,16.852-12.3,28.036-9.844,5.065,1.11,9.937,3.312,14.73,5.406,9.473,4.142,19.045,7.993,29.432,8.893a40.109,40.109,0,0,0,11.483-.8c4.427-.918,6.255-4.212,5.177-8.62a19.237,19.237,0,0,0-2.75-6.19c-5.449-7.946-12.917-13.6-21.411-17.906a49.4,49.4,0,0,0-34.061-4.46c-14.463,3.279-25.253,11.83-32.829,24.442A51.767,51.767,0,0,0,366.055,864.326Zm-.487,12.509c-3.636-16.6-.895-31.929,8.775-45.74,9.75-13.924,23.266-21.655,40.475-22.826-5.327-6.179-15.489-6.531-20.783-.9-1.181,1.261-2.254,2.619-3.42,3.894a13.306,13.306,0,0,1-9.37,4.713,21.332,21.332,0,0,0-4.081.712c-3.945,1.021-5.964,3.444-6.343,7.482a23.163,23.163,0,0,0-.262,3.72c.314,4.6-1.691,7.88-5.313,10.56-4.849,3.579-5.725,6.723-3.912,12.477.436,1.382.914,2.75,1.345,4.137a9.331,9.331,0,0,1-1.391,8.817,6.869,6.869,0,0,0-1.092,4.8C360.826,872,363.164,874.455,365.568,876.835Z" transform="translate(0 0)" fill="#ffbe0b"/>
    <path id="Tracé_75" data-name="Tracé 75" d="M386.336,816.1a6.064,6.064,0,0,1-1.869.839c-5.027.318-10.059.618-15.1.75a3.655,3.655,0,0,1-2.539-1.284,18.975,18.975,0,0,1-2.249-3.926c-1.284-2.722-.778-4.746,1.738-6.451,3.04-2.062,6.109-3.415,10.036-1.832,4.259,1.715,8.77,2.816,13.268,4.217-.337,1.715-1.335,1.326-2.211,1.054q-6.036-1.869-12.055-3.785c-2.989-.946-7.084.1-8.925,2.572-.553.745-.417,2.01-.586,3.036-.009.056.052.122.079.187,1.785,4.408,2.333,4.755,7.07,4.474,3.72-.22,7.44-.45,11.16-.651a19.427,19.427,0,0,1,1.949.075Z" transform="translate(28.322 14.335)" fill="#ffbe0b"/>
    <path id="Tracé_76" data-name="Tracé 76" d="M377.56,807.98c-.089,1.677-.89,2.708-2.525,2.755a2.588,2.588,0,1,1-.187-5.172A2.45,2.45,0,0,1,377.56,807.98Z" transform="translate(59.442 21.915)" fill="#ffbe0b"/>
  </g>
</svg>
