<svg id="Groupe_8" data-name="Groupe 8" xmlns="http://www.w3.org/2000/svg" width="97.663" height="102.729" viewBox="0 0 97.663 102.729">
  <path id="Tracé_12" data-name="Tracé 12" d="M397.83,678.719c1.639-3.689,3.1-7.376,4.883-10.9a45.331,45.331,0,0,1,12.139-15.6c5.306-4.185,11.274-6.324,18.115-5.471a13.182,13.182,0,0,1,7.49,3.109,7.3,7.3,0,0,1,2.2,8.208,5.964,5.964,0,0,1-7.259,4.223,5.235,5.235,0,0,1-3.689-7.691c.334-.643.712-1.264,1.022-1.917.7-1.474.238-2.534-1.354-2.966a9.5,9.5,0,0,0-6.264.6,13.064,13.064,0,0,0-5.943,5.358,39.193,39.193,0,0,0-4.85,12.648c-1.189,5.24-2.208,10.516-3.333,15.933a21.575,21.575,0,0,0,7.651.164,26.035,26.035,0,0,0,6.043-1.943c1.862-.858,2.05-2.047,1.092-3.875-.213-.4-.444-.8-.657-1.205a4.09,4.09,0,0,1,1.4-5.591c2.055-1.49,4.6-1.406,6.139.3a6.064,6.064,0,0,1,1.252,6.4,11.117,11.117,0,0,1-4.483,5.495c-3.807,2.631-8.134,3.562-12.667,3.723-2.017.072-4.037.012-6.256.012-.357,1.951-.77,4.145-1.159,6.344-1.41,8-2.977,15.972-5.721,23.653a58.575,58.575,0,0,1-13.856,22.385,30.644,30.644,0,0,1-15.317,8.687,17.048,17.048,0,0,1-10.774-.83c-4.134-1.86-6.253-5.726-5.423-9.787a7.938,7.938,0,0,1,9.278-5.98,6.344,6.344,0,0,1,4.91,6.359,4.056,4.056,0,0,1-1.99,3.638,3.7,3.7,0,0,0-1.257.966c-.336.532-.737,1.333-.555,1.8a2.085,2.085,0,0,0,1.575,1.165,16.876,16.876,0,0,0,4.824-1.121,15.99,15.99,0,0,0,6.369-5.781,39.1,39.1,0,0,0,5.255-11.5c2.482-8.192,3.891-16.62,5.521-25.006,1.273-6.544,2.952-13.009,4.491-19.5a1.42,1.42,0,0,0-.517-1.719c-2-1.652-3.907-3.416-5.853-5.134A20.537,20.537,0,0,0,379.8,671.14a8.42,8.42,0,0,0-5.357.682,7.1,7.1,0,0,0-2.054,11.184c1.832,2.1,3.752,4.123,5.521,6.274a34.04,34.04,0,0,1,3.222,4.577,13.6,13.6,0,0,1-1.825,16.517c-4.636,5.036-10.561,6.6-17.175,5.911a22.809,22.809,0,0,1-10.674-3.807c-3.622-2.482-5.958-5.762-6.008-10.337a7.443,7.443,0,0,1,.157-1.475c.617-3.2,2.6-4.911,5.458-4.745a5.624,5.624,0,0,1,5.58,5.555,8.342,8.342,0,0,1-1.4,4.983c-1.4,2.3-1.092,3.638,1.244,4.98,3.256,1.87,6.63,2.294,10.019.4a6.852,6.852,0,0,0,1.876-10.959c-1.564-1.776-3.239-3.452-4.827-5.208a19.312,19.312,0,0,1-5.314-10.93,14.512,14.512,0,0,1,6.034-13.8c7.374-5.6,16.969-5.435,24.918.335,2.276,1.652,4.3,3.65,6.438,5.495C396.4,677.435,397.157,678.122,397.83,678.719Z" transform="translate(-345.446 -646.561)" fill="#ffbe0b"/>
</svg>
