<svg xmlns="http://www.w3.org/2000/svg" width="103.872" height="117.075" viewBox="0 0 103.872 117.075">
  <g id="Groupe_38" data-name="Groupe 38" transform="translate(-7511.207 -6264.203)">
    <path id="Tracé_66" data-name="Tracé 66" d="M7615.066,6322.712q0,14.268.013,28.537a1.2,1.2,0,0,1-.686,1.219q-25.31,14.282-50.6,28.6a1.144,1.144,0,0,1-1.295.009q-25.286-14.323-50.594-28.606a1.2,1.2,0,0,1-.7-1.211q.025-28.536,0-57.073a1.235,1.235,0,0,1,.746-1.238q25.2-14.227,50.377-28.495a1.428,1.428,0,0,1,1.616-.008q25.228,14.3,50.48,28.553a1.107,1.107,0,0,1,.652,1.114Q7615.053,6308.415,7615.066,6322.712Zm-26.75-16.05c-.235-.153-.39-.269-.556-.36q-12.082-6.645-24.161-13.294a1,1,0,0,0-1.1.012q-12.023,6.629-24.057,13.238c-.194.108-.373.244-.632.415.291.186.484.319.688.436q11.968,6.909,23.931,13.825a1.077,1.077,0,0,0,1.242.009q12.007-6.959,24.032-13.887C7587.891,6306.949,7588.063,6306.827,7588.316,6306.662Zm-52.217,3.186c-.029.327-.061.517-.061.706q0,13.049-.01,26.1a.945.945,0,0,0,.569.932q12.013,6.587,24.016,13.193c.176.1.371.157.664.278v-.888q0-12.453.016-24.908a1.4,1.4,0,0,0-.813-1.4q-11.83-6.791-23.637-13.624C7536.642,6310.123,7536.432,6310.022,7536.1,6309.848Zm28.764,41.228c.291-.134.47-.2.636-.293q11.981-6.584,23.963-13.166a.976.976,0,0,0,.605-.966q-.021-13.048-.012-26.1a6.491,6.491,0,0,0-.08-.685c-.306.161-.516.264-.718.38q-11.867,6.848-23.738,13.687a1.225,1.225,0,0,0-.718,1.213q.028,12.543.015,25.086C7564.816,6350.469,7564.842,6350.7,7564.863,6351.076Zm-47.265-51.8v48.077c.313-.149.527-.236.727-.35q6.694-3.858,13.392-7.712a1.243,1.243,0,0,0,.729-1.219q-.022-14.772,0-29.543a1.111,1.111,0,0,0-.619-1.1q-6.832-3.918-13.646-7.867C7518.014,6299.465,7517.838,6299.39,7517.6,6299.271Zm90.877.054c-.293.139-.487.216-.667.319q-6.749,3.885-13.5,7.769a1.127,1.127,0,0,0-.6,1.119q.012,14.8,0,29.6a1.117,1.117,0,0,0,.619,1.1q6.728,3.861,13.438,7.751c.2.113.409.2.7.335Zm-89.075-3.389c.353.224.528.345.712.451,4.41,2.547,8.828,5.08,13.222,7.654a1.441,1.441,0,0,0,1.637.008c2.259-1.276,4.54-2.516,6.814-3.766q9.349-5.142,18.7-10.272a1.255,1.255,0,0,0,.733-1.271c-.019-5.192-.01-10.384-.012-15.576,0-.228-.03-.456-.057-.841Zm45.594-23.6c-.025.377-.05.57-.05.764,0,5.229.007,10.46-.013,15.69a1.267,1.267,0,0,0,.769,1.261c1.905,1.017,3.792,2.066,5.684,3.107q9.869,5.424,19.727,10.866a1.577,1.577,0,0,0,1.787-.047c4.1-2.4,8.229-4.764,12.346-7.142.456-.264.906-.539,1.5-.89Zm-3.856,100.778a4.58,4.58,0,0,0,.07-.5q0-8.408,0-16.816a.921.921,0,0,0-.572-.882c-1.066-.568-2.122-1.155-3.182-1.737q-10.516-5.782-21.027-11.575a1.254,1.254,0,0,0-1.415.033q-6.88,4-13.786,7.969c-.215.124-.414.274-.76.506Zm3.886-.022,40.646-22.986c-.294-.193-.436-.295-.585-.382q-7.052-4.074-14.1-8.154a1.087,1.087,0,0,0-1.211-.007c-2.63,1.467-5.273,2.91-7.913,4.361q-8.1,4.453-16.2,8.9a1.222,1.222,0,0,0-.723,1.221c.018,5.39.01,10.78.013,16.171C7564.946,6372.445,7564.985,6372.674,7565.023,6373.094Z" fill="#ffbe0b"/>
  </g>
</svg>
