<svg xmlns="http://www.w3.org/2000/svg" viewBox="0 0 1418.31 1418.32">
	<defs>
		<style>
			.cls-1,.cls-3{fill:none;}.cls-2{fill:#fcbd15;}.cls-3,.cls-4{stroke:#fcbd15;stroke-miterlimit:10;}.cls-4{fill:#141414;}
		</style>
	</defs>
	<title>
		relou-2
	</title>
	<g id="Calque_2" data-name="Calque 2">
		<g id="Calque_1-2" data-name="Calque 1">
			<g id="one" data-name="Calque 1">
				<circle class="cls-1" cx="709.16" cy="709.16" r="671.04" />
				<path class="cls-2" d="M1383,785.52a676.37,676.37,0,0,0-47.74-336.84,688.94,688.94,0,0,0-95.66-162q-12.57-15.82-26-30.84A676.29,676.29,0,0,0,967.7,82.22,690.8,690.8,0,0,0,785.52,35.31a676.64,676.64,0,0,0-298.12,33q-19.57,6.8-38.73,14.78a688.23,688.23,0,0,0-162,95.66A676,676,0,0,0,82.22,450.62,690.53,690.53,0,0,0,35.31,632.8,676.12,676.12,0,0,0,83.05,969.64a687.7,687.7,0,0,0,95.66,162A676.13,676.13,0,0,0,450.62,1336.1,690.53,690.53,0,0,0,632.8,1383a676.42,676.42,0,0,0,336.84-47.74,688.61,688.61,0,0,0,162-95.66A676.13,676.13,0,0,0,1336.1,967.7,690.8,690.8,0,0,0,1383,785.52ZM636.35,1369.25A663.7,663.7,0,0,1,294,191.18,670,670,0,0,1,456,95.53Q469.42,90,483.08,85a661,661,0,0,1,392.16-18.8A669.11,669.11,0,0,1,964.15,96,660.38,660.38,0,0,1,1209.24,272.6q9.18,10.53,17.89,21.45a669.48,669.48,0,0,1,95.66,162,660.91,660.91,0,0,1,29.3,419.21,667.67,667.67,0,0,1-29.74,88.91,660.66,660.66,0,0,1-198.08,263,669.67,669.67,0,0,1-162,95.66A660.89,660.89,0,0,1,636.35,1369.25Z" />
				<rect class="cls-2" x="837.16" y="-32.93" width="77.68" height="188.12" transform="matrix(0.25, -0.97, 0.97, 0.25, 597.71, 894)" />
				<rect class="cls-2" x="1191.3" y="330.07" width="188.12" height="77.68" transform="translate(950.49 -925.73) rotate(59.48)" />
				<rect class="cls-2" x="1263.13" y="837.16" width="188.12" height="77.68" transform="translate(2544.79 -218.95) rotate(104.48)" />
				<rect class="cls-2" x="955.35" y="1246.52" width="188.12" height="77.68" transform="matrix(-0.86, 0.51, -0.51, -0.86, 2606.13, 1859.81)" />
				<rect class="cls-2" x="448.26" y="1318.35" width="188.12" height="77.68" transform="translate(727.95 2806.87) rotate(-165.52)" />
				<rect class="cls-2" x="38.9" y="1010.57" width="188.12" height="77.68" transform="translate(-703.58 1696.82) rotate(-120.52)" />
				<rect class="cls-2" x="-32.93" y="503.48" width="188.12" height="77.68" transform="translate(-479.24 465.87) rotate(-75.52)" />
				<rect class="cls-2" x="274.85" y="94.12" width="188.12" height="77.68" transform="translate(-16.42 205.74) rotate(-30.52)" />
			</g>
			<g id="two" data-name="Calque 1">
				<circle class="cls-3" cx="709.16" cy="709.16" r="499.1" />
				<circle class="cls-4" cx="509.89" cy="251.65" r="29.8" />
				<circle class="cls-4" cx="214.98" cy="777.68" r="19.05" />
				<circle class="cls-4" cx="250.18" cy="512.5" r="35.2" />
				<circle class="cls-4" cx="338.6" cy="375.03" r="21.2" />
				<circle class="cls-4" cx="408.43" cy="1107.1" r="33.05" />
				<circle class="cls-4" cx="1104.69" cy="405.34" r="51.08" />
				<circle class="cls-4" cx="999.6" cy="1115.01" r="26.92" />
				<circle class="cls-4" cx="1206.95" cy="674.96" r="20.46" />
			</g>
			<g id="three" data-name="Calque 1">
				<circle class="cls-3" cx="709.16" cy="709.16" r="396.59" />
				<circle class="cls-4" cx="339" cy="566.12" r="23.68" />
				<circle class="cls-4" cx="426.43" cy="987.05" r="14.8" />
				<circle class="cls-4" cx="716.86" cy="1106.05" r="30.34" />
				<circle class="cls-4" cx="885.72" cy="1064.59" r="18.5" />
				<circle class="cls-4" cx="1098.95" cy="783.45" r="28.12" />
				<circle class="cls-4" cx="1078.38" cy="563.75" r="21.46" />
				<circle class="cls-4" cx="1082.34" cy="844.04" r="12.58" />
				<circle class="cls-4" cx="749.78" cy="314.72" r="40.59" />
			</g>
			<g id="four" data-name="Calque 1">
				<path class="cls-2" d="M879.88,881.23c-1.54-9.39,1.68-16.18,6.88-22.36s11.34-10.51,20.85-10.6c4.73-.07,10.37,1,17,3.38a119.32,119.32,0,0,1,22.64,11.58A281.71,281.71,0,0,0,963.86,834a118.8,118.8,0,0,1-21.68-13.43q-2.07-1.66-3.81-3.31c-1.17-1.09-2.25-2.17-3.21-3.24a37.66,37.66,0,0,1-4.67-6.28c-4.84-8.2-4.26-15.74-1.64-23.42s6.85-13.94,15.65-17.46a40.13,40.13,0,0,1,7.53-2.09,61.05,61.05,0,0,1,9.58-.86,119,119,0,0,1,25.33,2.68,282,282,0,0,0,4.79-33.27,118.91,118.91,0,0,1-25-4.72,49.16,49.16,0,0,1-15.53-7.75c-7.44-5.89-9.63-13.09-10-21.16s1.32-15.42,8.23-21.89a40,40,0,0,1,6.26-4.68,61.64,61.64,0,0,1,8.61-4.28,118.45,118.45,0,0,1,24.48-6.68,281.86,281.86,0,0,0-7.49-32.77,118.72,118.72,0,0,1-25,4.64,61.5,61.5,0,0,1-9.6-.13,37.77,37.77,0,0,1-7.68-1.49c-9.09-2.81-13.75-8.75-17-16.18s-4.38-14.88-.22-23.44c2-4.25,5.49-8.83,10.63-13.7a117.51,117.51,0,0,1,20.36-15,282.48,282.48,0,0,0-18.9-27.8,117.21,117.21,0,0,1-21.45,13.16c-6.5,3-12,4.4-16.71,4.72-9.47.63-16-3.19-21.64-9s-9.43-12.27-8.66-21.72a39,39,0,0,1,1.49-7.69,61.08,61.08,0,0,1,3.47-8.94,117,117,0,0,1,13.37-21.12,283.33,283.33,0,0,0-27.63-19.12,117.38,117.38,0,0,1-15.09,19.88,59.83,59.83,0,0,1-7.18,6.4,39.85,39.85,0,0,1-6.67,4.07c-8.58,4-16,2.82-23.44-.51s-13.31-8.06-16-17.19a38.13,38.13,0,0,1-1.4-7.69q-.18-2.16-.18-4.56c0-1.6.06-3.27.19-5a116.81,116.81,0,0,1,4.8-24.34,281,281,0,0,0-32.67-7.78,117,117,0,0,1-6.87,23.67c-2.79,6.5-5.88,11.32-9.16,14.72-6.56,6.87-13.93,8.38-22,7.95s-15.23-2.72-21-10.26c-2.9-3.71-5.47-8.81-7.56-15.61a117.23,117.23,0,0,1-4.32-24,283.75,283.75,0,0,0-33.23,4.5A116.1,116.1,0,0,1,656.51,455c-.06,1.78-.17,3.45-.34,5s-.39,3.1-.66,4.51a37,37,0,0,1-2.19,7.5c-3.63,8.79-10,12.87-17.66,15.41s-15.23,3-23.37-1.94a37.86,37.86,0,0,1-6.23-4.76,60.38,60.38,0,0,1-6.46-7.08A116.36,116.36,0,0,1,587,453.13a282.82,282.82,0,0,0-29.31,16.22,116.12,116.12,0,0,1,10.52,21.52,61,61,0,0,1,2.51,9.27c.25,1.42.43,2.77.53,4.06a36.83,36.83,0,0,1,.13,3.73c-.26,9.47-4.68,15.59-10.94,20.7s-13.12,8.23-22.45,6.6a34.83,34.83,0,0,1-3.65-.87c-1.24-.36-2.53-.8-3.86-1.33a59.79,59.79,0,0,1-8.61-4.29,116.21,116.21,0,0,1-18.84-14.39A284.71,284.71,0,0,0,481.54,540,116.4,116.4,0,0,1,498.93,556a48.92,48.92,0,0,1,9.14,14.75c3.23,8.92,1.31,16.18-2.65,23.23a35,35,0,0,1-3.26,5,24.24,24.24,0,0,1-4,4.15,21.77,21.77,0,0,1-5,3.19,26.89,26.89,0,0,1-6.26,2,48.61,48.61,0,0,1-17.37-.19,115.87,115.87,0,0,1-22.81-6.61,279.78,279.78,0,0,0-10.85,31.66,114.69,114.69,0,0,1,22,8.77c6.29,3.39,10.75,6.91,13.84,10.49,6.24,7.18,7.08,14.66,5.91,22.65s-4.12,14.9-12.16,20c-4,2.53-9.33,4.61-16.26,6a115.73,115.73,0,0,1-23.6,2.06c0,2-.08,4-.08,6,0,9.27.46,18.43,1.33,27.47a115.41,115.41,0,0,1,23.78.18c7.08.88,12.52,2.53,16.71,4.74,8.41,4.43,11.92,11.1,13.72,19s1.58,15.42-4,23.07a39.07,39.07,0,0,1-5.31,5.75,60,60,0,0,1-7.65,5.78,115.78,115.78,0,0,1-21.64,10.6,278.3,278.3,0,0,0,13.27,30.77c4-2,7.78-3.61,11.28-5a101,101,0,0,1,11.33-3.62,48.8,48.8,0,0,1,17.29-1.57c9.43,1.12,15.1,6.1,19.64,12.81s7,13.83,4.51,23c-1.25,4.58-3.74,9.66-7.94,15.43a116.49,116.49,0,0,1-16.54,17.82,285.48,285.48,0,0,0,23.49,24A116.83,116.83,0,0,1,536.92,903a62.27,62.27,0,0,1,8.22-4.94,38.54,38.54,0,0,1,7.32-2.77c9.19-2.39,16.25.19,22.9,4.79s11.53,10.33,12.53,19.78c.5,4.71,0,10.35-1.79,17.26a117,117,0,0,1-9.13,23A282.36,282.36,0,0,0,607.57,974a117.82,117.82,0,0,1,11.18-22.27,48.76,48.76,0,0,1,11.73-12.8,27.15,27.15,0,0,1,5.77-3.18,22.2,22.2,0,0,1,5.75-1.46,24.3,24.3,0,0,1,5.78-.09,35.45,35.45,0,0,1,5.85,1c7.86,1.92,14.49,5.49,18.8,13.94a38.69,38.69,0,0,1,2.78,7.33,61.72,61.72,0,0,1,1.76,9.42,117.36,117.36,0,0,1-.27,25,285.24,285.24,0,0,0,32.46,1.86h1.1a117.7,117.7,0,0,1,2.37-25,60.78,60.78,0,0,1,2.73-9.21,41.17,41.17,0,0,1,3.53-7c5.19-7.91,12.15-10.81,20.17-11.87s15.5-.13,22.6,6.18a39.73,39.73,0,0,1,5.25,5.8,63.25,63.25,0,0,1,5.06,8.16,118.17,118.17,0,0,1,8.92,23.71,281.6,281.6,0,0,0,32-10.4q-2.68-6.93-4.36-12.86a99.39,99.39,0,0,1-2.58-11.6,60.21,60.21,0,0,1-.76-9.55,38.24,38.24,0,0,1,.78-7.79c2-9.29,7.45-14.47,14.55-18.37s14.42-5.71,23.33-2.35c4.43,1.64,9.3,4.65,14.65,9.32a118.89,118.89,0,0,1,16.88,19,283.9,283.9,0,0,0,26-21.29,118.23,118.23,0,0,1-15.24-20.26C882.6,891.25,880.61,885.87,879.88,881.23ZM643.43,877.9C550,842.4,503,737.94,538.48,644.6s140-140.21,233.41-104.71,140.41,140,104.94,233.3S736.86,913.41,643.43,877.9Z" />
			</g>
			<g id="five" data-name="Calque 1">
				<path class="cls-2" d="M855.14,732.44V685.87H842.68a134,134,0,0,0-6.24-23.37l10.77-6.23L824,615.94l-10.81,6.25a135.92,135.92,0,0,0-17.08-17.1l6.24-10.82L762,571l-6.22,10.78a134.8,134.8,0,0,0-23.36-6.25V563.05H685.89v12.47a134.69,134.69,0,0,0-23.35,6.25L656.31,571,616,594.27l6.24,10.82a136,136,0,0,0-17.09,17.1l-10.81-6.25L571.1,656.27l10.78,6.23a134.91,134.91,0,0,0-6.25,23.37H563.17v46.57h12.46a135,135,0,0,0,6.25,23.38l-10.78,6.23,23.19,40.53,11.05-6.4a134.92,134.92,0,0,0,16.92,17.05L616,824l40.29,23.29,6.23-10.79a132.92,132.92,0,0,0,23.35,6.25v12.47h46.53V842.79a133,133,0,0,0,23.36-6.25L762,847.33,802.3,824l-6.24-10.81a136.59,136.59,0,0,0,17.08-17.1L824,802.37l23.26-40.32-10.77-6.23a134.1,134.1,0,0,0,6.24-23.38Z" />
			</g>
			<!-- <ellipse class="cls-1" cx="707.66" cy="708.9" rx="180.8" ry="180.98" transform="translate(-206.42 1118.52) rotate(-69.19)" /> -->
		</g>
	</g>
</svg>
