<svg xmlns="http://www.w3.org/2000/svg" viewBox="0 0 1418.31 1418.32"><defs><style>.cls-1,.cls-3{fill:none;}.cls-2{fill:#fcbd15;}.cls-3,.cls-4{stroke:#fcbd15;stroke-miterlimit:10;}.cls-4{fill:#141414;}</style></defs><title>relou-3</title><g id="Calque_2" data-name="Calque 2"><g id="Calque_1-2" data-name="Calque 1"><circle class="cls-1" cx="709.16" cy="709.16" r="671.04"/><path class="cls-2" d="M1383,785.52a676.37,676.37,0,0,0-47.74-336.84,688.94,688.94,0,0,0-95.66-162q-12.57-15.82-26-30.84A676.29,676.29,0,0,0,967.7,82.22,690.8,690.8,0,0,0,785.52,35.31a676.64,676.64,0,0,0-298.12,33q-19.57,6.8-38.73,14.78a688.23,688.23,0,0,0-162,95.66A676,676,0,0,0,82.22,450.62,690.53,690.53,0,0,0,35.31,632.8,676.12,676.12,0,0,0,83.05,969.64a687.7,687.7,0,0,0,95.66,162A676.13,676.13,0,0,0,450.62,1336.1,690.53,690.53,0,0,0,632.8,1383a676.42,676.42,0,0,0,336.84-47.74,688.61,688.61,0,0,0,162-95.66A676.13,676.13,0,0,0,1336.1,967.7,690.8,690.8,0,0,0,1383,785.52ZM636.35,1369.25A663.7,663.7,0,0,1,294,191.18,670,670,0,0,1,456,95.53Q469.42,90,483.08,85a661,661,0,0,1,392.16-18.8A669.11,669.11,0,0,1,964.15,96,660.38,660.38,0,0,1,1209.24,272.6q9.18,10.53,17.89,21.45a669.48,669.48,0,0,1,95.66,162,660.91,660.91,0,0,1,29.3,419.21,667.67,667.67,0,0,1-29.74,88.91,660.66,660.66,0,0,1-198.08,263,669.67,669.67,0,0,1-162,95.66A660.89,660.89,0,0,1,636.35,1369.25Z"/><rect class="cls-2" x="837.16" y="-32.93" width="77.68" height="188.12" transform="matrix(0.25, -0.97, 0.97, 0.25, 597.71, 894)"/><rect class="cls-2" x="1191.3" y="330.07" width="188.12" height="77.68" transform="translate(950.49 -925.73) rotate(59.48)"/><rect class="cls-2" x="1263.13" y="837.16" width="188.12" height="77.68" transform="translate(2544.79 -218.95) rotate(104.48)"/><rect class="cls-2" x="955.35" y="1246.52" width="188.12" height="77.68" transform="matrix(-0.86, 0.51, -0.51, -0.86, 2606.13, 1859.81)"/><rect class="cls-2" x="448.26" y="1318.35" width="188.12" height="77.68" transform="translate(727.95 2806.87) rotate(-165.52)"/><rect class="cls-2" x="38.9" y="1010.57" width="188.12" height="77.68" transform="translate(-703.58 1696.82) rotate(-120.52)"/><rect class="cls-2" x="-32.93" y="503.48" width="188.12" height="77.68" transform="translate(-479.24 465.87) rotate(-75.52)"/><rect class="cls-2" x="274.85" y="94.12" width="188.12" height="77.68" transform="translate(-16.42 205.74) rotate(-30.52)"/><path class="cls-2" d="M855.14,732.44V685.87H842.68a134,134,0,0,0-6.24-23.37l10.77-6.23L824,615.94l-10.81,6.25a135.92,135.92,0,0,0-17.08-17.1l6.24-10.82L762,571l-6.22,10.78a134.8,134.8,0,0,0-23.36-6.25V563.05H685.89v12.47a134.69,134.69,0,0,0-23.35,6.25L656.31,571,616,594.27l6.24,10.82a136,136,0,0,0-17.09,17.1l-10.81-6.25L571.1,656.27l10.78,6.23a134.91,134.91,0,0,0-6.25,23.37H563.17v46.57h12.46a135,135,0,0,0,6.25,23.38l-10.78,6.23,23.19,40.53,11.05-6.4a134.92,134.92,0,0,0,16.92,17.05L616,824l40.29,23.29,6.23-10.79a132.92,132.92,0,0,0,23.35,6.25v12.47h46.53V842.79a133,133,0,0,0,23.36-6.25L762,847.33,802.3,824l-6.24-10.81a136.59,136.59,0,0,0,17.08-17.1L824,802.37l23.26-40.32-10.77-6.23a134.1,134.1,0,0,0,6.24-23.38Z"/><circle class="cls-3" cx="709.16" cy="709.16" r="499.1"/><circle class="cls-4" cx="509.89" cy="251.65" r="29.8"/><circle class="cls-4" cx="214.98" cy="777.68" r="19.05"/><circle class="cls-4" cx="250.18" cy="512.5" r="35.2"/><circle class="cls-4" cx="338.6" cy="375.03" r="21.2"/><circle class="cls-4" cx="408.43" cy="1107.1" r="33.05"/><circle class="cls-4" cx="1104.69" cy="405.34" r="51.08"/><circle class="cls-4" cx="999.6" cy="1115.01" r="26.92"/><circle class="cls-4" cx="1206.95" cy="674.96" r="20.46"/><circle class="cls-3" cx="709.16" cy="709.16" r="396.59"/><circle class="cls-4" cx="339" cy="566.12" r="23.68"/><circle class="cls-4" cx="426.43" cy="987.05" r="14.8"/><circle class="cls-4" cx="716.86" cy="1106.05" r="30.34"/><circle class="cls-4" cx="885.72" cy="1064.59" r="18.5"/><circle class="cls-4" cx="1098.95" cy="783.45" r="28.12"/><circle class="cls-4" cx="1078.38" cy="563.75" r="21.46"/><circle class="cls-4" cx="1082.34" cy="844.04" r="12.58"/><circle class="cls-4" cx="749.78" cy="314.72" r="40.59"/><circle class="cls-1" cx="709.16" cy="709.16" r="72.75"/><path class="cls-2" d="M880.39,880.82c-1.53-9.38,1.69-16.18,6.89-22.36s11.34-10.5,20.85-10.6c4.72-.06,10.36,1,17,3.39a118.77,118.77,0,0,1,22.65,11.58,283.7,283.7,0,0,0,16.58-29.25,118.28,118.28,0,0,1-21.68-13.42q-2.07-1.68-3.82-3.31c-1.17-1.09-2.24-2.18-3.21-3.25a38.18,38.18,0,0,1-4.67-6.27c-4.83-8.21-4.26-15.75-1.63-23.43S936.22,770,945,766.45a39.92,39.92,0,0,1,7.53-2.09,62.2,62.2,0,0,1,9.58-.87,119.16,119.16,0,0,1,25.33,2.69,284.09,284.09,0,0,0,4.79-33.27,119.43,119.43,0,0,1-25-4.72,49.23,49.23,0,0,1-15.54-7.75c-7.43-5.9-9.62-13.09-10-21.16s1.32-15.42,8.23-21.89a39.38,39.38,0,0,1,6.26-4.68,60,60,0,0,1,8.61-4.28,117.47,117.47,0,0,1,24.48-6.68,280.48,280.48,0,0,0-7.5-32.78,118.64,118.64,0,0,1-25,4.64,61.58,61.58,0,0,1-9.6-.12A38.57,38.57,0,0,1,939.6,632c-9.09-2.82-13.75-8.75-17-16.18s-4.38-14.89-.23-23.44c2.05-4.26,5.5-8.84,10.63-13.71a119.08,119.08,0,0,1,20.37-15,284.88,284.88,0,0,0-18.9-27.8A117.89,117.89,0,0,1,913,549c-6.5,3-12,4.4-16.71,4.72-9.47.63-16-3.2-21.65-9s-9.43-12.28-8.65-21.73a38.9,38.9,0,0,1,1.49-7.68,60.52,60.52,0,0,1,3.46-8.94,117.77,117.77,0,0,1,13.38-21.13,286.87,286.87,0,0,0-27.63-19.12,118.45,118.45,0,0,1-15.09,19.89,62.44,62.44,0,0,1-7.18,6.4,39.75,39.75,0,0,1-6.67,4.06c-8.59,4-16,2.82-23.44-.5s-13.31-8.06-16-17.19a37.68,37.68,0,0,1-1.4-7.7q-.18-2.15-.18-4.56c0-1.59.06-3.27.18-5a117.47,117.47,0,0,1,4.8-24.34,282.85,282.85,0,0,0-32.66-7.78,117.44,117.44,0,0,1-6.87,23.67c-2.79,6.51-5.88,11.32-9.16,14.73-6.56,6.86-13.93,8.37-22,8s-15.23-2.72-21-10.26c-2.9-3.72-5.47-8.82-7.56-15.62a117,117,0,0,1-4.32-24,283.75,283.75,0,0,0-33.23,4.5A116,116,0,0,1,657,454.64c0,1.78-.17,3.44-.33,5s-.39,3.1-.66,4.52a37.57,37.57,0,0,1-2.19,7.49c-3.63,8.8-10,12.88-17.66,15.41s-15.23,3-23.37-1.93a38,38,0,0,1-6.23-4.77,58.68,58.68,0,0,1-6.46-7.08,115.64,115.64,0,0,1-12.57-20.58,285.83,285.83,0,0,0-29.32,16.21,116.21,116.21,0,0,1,10.53,21.52,62,62,0,0,1,2.51,9.28c.25,1.41.42,2.76.53,4.05a37,37,0,0,1,.13,3.74c-.26,9.47-4.68,15.58-10.94,20.69s-13.12,8.24-22.46,6.6a37.22,37.22,0,0,1-3.64-.86c-1.24-.36-2.53-.8-3.87-1.33a62.41,62.41,0,0,1-8.6-4.29A116.79,116.79,0,0,1,503.58,514a284.71,284.71,0,0,0-21.52,25.61,116.9,116.9,0,0,1,17.39,16.08,48.8,48.8,0,0,1,9.14,14.75c3.23,8.92,1.31,16.18-2.65,23.23a34.1,34.1,0,0,1-3.27,4.94,23.91,23.91,0,0,1-4,4.16,21.65,21.65,0,0,1-5,3.18,27.05,27.05,0,0,1-6.26,2,49,49,0,0,1-17.36-.19,117.33,117.33,0,0,1-22.82-6.61,282.93,282.93,0,0,0-10.85,31.65,116.13,116.13,0,0,1,22.05,8.77c6.29,3.4,10.75,6.91,13.84,10.49,6.24,7.18,7.08,14.66,5.91,22.66s-4.12,14.9-12.16,20c-4,2.54-9.33,4.61-16.26,6.06a115.79,115.79,0,0,1-23.6,2.06q-.07,3-.08,6c0,9.27.46,18.44,1.33,27.48a115.5,115.5,0,0,1,23.78.17c7.08.88,12.52,2.54,16.7,4.75,8.41,4.43,11.93,11.1,13.73,19s1.57,15.42-4.05,23.06a39.16,39.16,0,0,1-5.31,5.76,60,60,0,0,1-7.65,5.78A116.85,116.85,0,0,1,443,805.34a283.83,283.83,0,0,0,13.27,30.77q6-2.94,11.29-5a98.37,98.37,0,0,1,11.33-3.62A49.07,49.07,0,0,1,496.13,826c9.43,1.12,15.1,6.11,19.64,12.81s7,13.84,4.51,23c-1.26,4.58-3.74,9.66-7.94,15.43A117,117,0,0,1,495.8,895a286.86,286.86,0,0,0,23.48,24,116.33,116.33,0,0,1,18.16-16.36,59.58,59.58,0,0,1,8.22-4.94,37.71,37.71,0,0,1,7.32-2.78c9.19-2.39,16.25.2,22.9,4.79s11.53,10.34,12.53,19.78c.49,4.71,0,10.36-1.8,17.27a116.81,116.81,0,0,1-9.12,23,283.14,283.14,0,0,0,30.59,13.89,117.91,117.91,0,0,1,11.19-22.28A48.37,48.37,0,0,1,631,938.53a26.72,26.72,0,0,1,5.77-3.18,21.77,21.77,0,0,1,5.74-1.47,24.39,24.39,0,0,1,5.79-.08,34.28,34.28,0,0,1,5.84,1c7.87,1.93,14.5,5.5,18.81,14a39,39,0,0,1,2.78,7.32,61.86,61.86,0,0,1,1.76,9.43,118,118,0,0,1-.27,25,287.38,287.38,0,0,0,32.45,1.86l1.11,0a118.27,118.27,0,0,1,2.36-24.94,61.55,61.55,0,0,1,2.74-9.21,40.43,40.43,0,0,1,3.53-7c5.18-7.92,12.15-10.81,20.16-11.87s15.51-.13,22.61,6.17a40.34,40.34,0,0,1,5.24,5.81,60.85,60.85,0,0,1,5.07,8.16,118.55,118.55,0,0,1,8.92,23.71,281.65,281.65,0,0,0,32-10.41c-1.8-4.62-3.24-8.9-4.36-12.85a97.81,97.81,0,0,1-2.58-11.6,60.21,60.21,0,0,1-.76-9.55,38.38,38.38,0,0,1,.77-7.8c2-9.29,7.46-14.46,14.56-18.36s14.42-5.72,23.33-2.35c4.42,1.63,9.3,4.64,14.64,9.32a118,118,0,0,1,16.88,19,286,286,0,0,0,26-21.29A117.73,117.73,0,0,1,886.65,897C883.12,890.85,881.13,885.47,880.39,880.82ZM643.94,877.5C550.51,842,503.52,737.54,539,644.2S679,504,772.4,539.49s140.42,140,105,233.3S737.37,913,643.94,877.5Z"/></g></g></svg>