<svg xmlns="http://www.w3.org/2000/svg" viewBox="0 0 1418.31 1418.32">
	<defs>
		<style>
			.cls-1,.cls-3{fill:none;}.cls-2{fill:#fcbd15;}.cls-3,.cls-4{stroke:#fcbd15;stroke-miterlimit:10;}.cls-4{fill:#141414;}
		</style>
	</defs>
	<title>
		relou
	</title>
	<g id="Calque_2" data-name="Calque 2">
		<g id="Calque_1-2" data-name="Calque 1">
			<!-- <circle class="cls-1" cx="709.16" cy="709.16" r="671.04" /> -->
			<g data-name="Calque 1">
				<path class="cls-2" d="M1383,785.52a676.37,676.37,0,0,0-47.74-336.84,688.94,688.94,0,0,0-95.66-162q-12.57-15.82-26-30.84A676.29,676.29,0,0,0,967.7,82.22,690.8,690.8,0,0,0,785.52,35.31a676.64,676.64,0,0,0-298.12,33q-19.57,6.8-38.73,14.78a688.23,688.23,0,0,0-162,95.66A676,676,0,0,0,82.22,450.62,690.53,690.53,0,0,0,35.31,632.8,676.12,676.12,0,0,0,83.05,969.64a687.7,687.7,0,0,0,95.66,162A676.13,676.13,0,0,0,450.62,1336.1,690.53,690.53,0,0,0,632.8,1383a676.42,676.42,0,0,0,336.84-47.74,688.61,688.61,0,0,0,162-95.66A676.13,676.13,0,0,0,1336.1,967.7,690.8,690.8,0,0,0,1383,785.52ZM636.35,1369.25A663.7,663.7,0,0,1,294,191.18,670,670,0,0,1,456,95.53Q469.42,90,483.08,85a661,661,0,0,1,392.16-18.8A669.11,669.11,0,0,1,964.15,96,660.38,660.38,0,0,1,1209.24,272.6q9.18,10.53,17.89,21.45a669.48,669.48,0,0,1,95.66,162,660.91,660.91,0,0,1,29.3,419.21,667.67,667.67,0,0,1-29.74,88.91,660.66,660.66,0,0,1-198.08,263,669.67,669.67,0,0,1-162,95.66A660.89,660.89,0,0,1,636.35,1369.25Z" />
				<rect class="cls-2" x="837.16" y="-32.93" width="77.68" height="188.12" transform="matrix(0.25, -0.97, 0.97, 0.25, 597.71, 894)" />
				<rect class="cls-2" x="1191.3" y="330.07" width="188.12" height="77.68" transform="translate(950.49 -925.73) rotate(59.48)" />
				<rect class="cls-2" x="1263.13" y="837.16" width="188.12" height="77.68" transform="translate(2544.79 -218.95) rotate(104.48)" />
				<rect class="cls-2" x="955.35" y="1246.52" width="188.12" height="77.68" transform="matrix(-0.86, 0.51, -0.51, -0.86, 2606.13, 1859.81)" />
				<rect class="cls-2" x="448.26" y="1318.35" width="188.12" height="77.68" transform="translate(727.95 2806.87) rotate(-165.52)" />
				<rect class="cls-2" x="38.9" y="1010.57" width="188.12" height="77.68" transform="translate(-703.58 1696.82) rotate(-120.52)" />
				<rect class="cls-2" x="-32.93" y="503.48" width="188.12" height="77.68" transform="translate(-479.24 465.87) rotate(-75.52)" />
				<rect class="cls-2" x="274.85" y="94.12" width="188.12" height="77.68" transform="translate(-16.42 205.74) rotate(-30.52)" />
			</g>
			<g id="Calque_1-2" data-name="Calque 1">
				<path class="cls-2" d="M855.14,726.13V679.56H842.68a134,134,0,0,0-6.24-23.37L847.21,650,824,609.63l-10.81,6.25a136,136,0,0,0-17.08-17.11L802.3,588,762,564.67l-6.22,10.79a134.8,134.8,0,0,0-23.36-6.25V556.74H685.89v12.47a134.69,134.69,0,0,0-23.35,6.25l-6.23-10.79L616,588l6.24,10.81a136.08,136.08,0,0,0-17.09,17.11l-10.81-6.25L571.1,650l10.78,6.23a134.91,134.91,0,0,0-6.25,23.37H563.17v46.57h12.46a135.26,135.26,0,0,0,6.25,23.38l-10.78,6.22,23.19,40.54,11.05-6.4a134.92,134.92,0,0,0,16.92,17L616,817.73,656.31,841l6.23-10.79a134.69,134.69,0,0,0,23.35,6.25V849h46.53V836.48a134.8,134.8,0,0,0,23.36-6.25L762,841l40.3-23.29-6.24-10.81a136.59,136.59,0,0,0,17.08-17.1L824,796.06l23.26-40.33-10.77-6.22a134.34,134.34,0,0,0,6.24-23.38Z" />
			</g>
			<g id="Calque_1-2" data-name="Calque 1">
				<path class="cls-2" d="M967.73,699.68a48.63,48.63,0,0,1-16.13-6.42,26.63,26.63,0,0,1-5-4.26,21.68,21.68,0,0,1-3.41-4.85,24.87,24.87,0,0,1-2.14-5.37,35.46,35.46,0,0,1-1.14-5.82c-1-8,0-15.5,6.35-22.54a39.15,39.15,0,0,1,5.86-5.2,62.7,62.7,0,0,1,8.19-5,119.82,119.82,0,0,1,24.85-9Q983,623,980.46,615t-5.61-15.86h0a119.72,119.72,0,0,1-25.43,7.12,61.47,61.47,0,0,1-9.58.71,39.67,39.67,0,0,1-7.77-.82c-9.25-2-14.43-7.51-18.26-14.63s-5.63-14.45-2.26-23.32a39.69,39.69,0,0,1,3.56-7,61.41,61.41,0,0,1,5.83-7.63,119.84,119.84,0,0,1,19.89-17.42h0a286.13,286.13,0,0,0-21.21-26.22,145.07,145.07,0,0,1-11.24,9.32,97.44,97.44,0,0,1-9.93,6.53,59.39,59.39,0,0,1-8.66,4.11,37.44,37.44,0,0,1-7.56,2c-9.38,1.46-16.17-1.83-22.33-7.08s-10.47-11.45-10.49-21c0-4.72,1-10.34,3.51-17a119.66,119.66,0,0,1,12.29-23.4h0A284.19,284.19,0,0,0,836,446.63v0a119.4,119.4,0,0,1-14,22.4c-4.5,5.48-8.82,9.25-12.9,11.59-8.23,4.77-15.72,4.17-23.34,1.51s-13.86-6.87-17.32-15.73c-1.74-4.39-2.77-10-2.88-17.12a119.66,119.66,0,0,1,3-26.27h0A285.22,285.22,0,0,0,735.17,418v0a120,120,0,0,1-4.95,26c-.55,1.69-1.13,3.26-1.74,4.74s-1.24,2.87-1.89,4.16a38,38,0,0,1-4.21,6.59c-6,7.43-13.2,9.58-21.31,9.85s-15.47-1.45-21.88-8.43a39.25,39.25,0,0,1-4.63-6.3,61.72,61.72,0,0,1-4.21-8.64,120.27,120.27,0,0,1-6.65-25.59h0a284.57,284.57,0,0,0-32.91,7.27,121,121,0,0,1,4.73,26,49,49,0,0,1-1.73,17.27c-2.87,9.05-8.81,13.65-16.24,16.84s-14.88,4.24-23.38.08a39.19,39.19,0,0,1-6.6-4.2,59.59,59.59,0,0,1-7.06-6.52A119.59,119.59,0,0,1,565,455.69h0a286.73,286.73,0,0,0-28,18.73h0A119.57,119.57,0,0,1,550.8,497a60.16,60.16,0,0,1,3.29,9,37.29,37.29,0,0,1,1.34,7.72c.6,9.49-3.29,16-9.09,21.62s-12.36,9.38-21.83,8.54c-4.7-.4-10.21-2-16.59-5.07a120.08,120.08,0,0,1-22.15-14.4h0a286,286,0,0,0-19.44,27.57h0a119.3,119.3,0,0,1,21,16c5.09,5,8.37,9.64,10.35,14,3.95,8.62,2.69,16.06-.68,23.41s-8.13,13.18-17.24,15.81A39,39,0,0,1,472,622.5a60.63,60.63,0,0,1-9.59-.07A119.17,119.17,0,0,1,436.58,617h0a285,285,0,0,0-8.11,32.76h0a119.55,119.55,0,0,1,25.38,7.32,61.18,61.18,0,0,1,8.53,4.44,39.29,39.29,0,0,1,6.17,4.79c6.8,6.59,8.33,14,7.85,22.09S473.6,703.73,466,709.5a37.71,37.71,0,0,1-6.69,4c-1.3.63-2.7,1.22-4.2,1.79s-3.08,1.11-4.78,1.62a119.15,119.15,0,0,1-26.06,4.28h0a285.37,285.37,0,0,0,4.18,33.48h0a120.1,120.1,0,0,1,26.32-2.29c7.07.29,12.67,1.47,17,3.33,8.75,3.69,12.78,10,15.25,17.74s2.87,15.21-2.11,23.31c-2.45,4-6.3,8.25-11.92,12.62a119.3,119.3,0,0,1-22.73,13.44h0a284.06,284.06,0,0,0,16.05,29.67h0A119,119,0,0,1,490,840.84c1.68-.58,3.28-1.06,4.83-1.47s3-.74,4.45-1a37.7,37.7,0,0,1,7.79-.62c9.51.27,15.57,4.74,20.67,11s8.2,13.18,6.5,22.53a38.05,38.05,0,0,1-2.24,7.52,59.86,59.86,0,0,1-4.33,8.55,119.66,119.66,0,0,1-16.36,20.77h0A288,288,0,0,0,537,930.08h0a119.17,119.17,0,0,1,17.9-19.44,62,62,0,0,1,7.78-5.65c1.23-.73,2.43-1.38,3.6-1.93a36.29,36.29,0,0,1,3.44-1.45c8.95-3.13,16.23-1.17,23.23,2.87s12.36,9.34,14.15,18.65a34.06,34.06,0,0,1,.48,3.71c.11,1.29.16,2.65.14,4.09a61.07,61.07,0,0,1-1,9.56A120.21,120.21,0,0,1,599,965.75h0a284.33,284.33,0,0,0,31.82,11.14,120.36,120.36,0,0,1,9.64-24.64A49,49,0,0,1,651,938.47c7.19-6.18,14.66-7,22.66-5.77A34.71,34.71,0,0,1,679.4,934a24,24,0,0,1,5.31,2.28,21.87,21.87,0,0,1,4.76,3.54,27.05,27.05,0,0,1,4.12,5.13,48.86,48.86,0,0,1,6,16.3,119.77,119.77,0,0,1,1.89,26.39q3.67.11,7.37.1,13.32,0,26.33-1.21h0a119,119,0,0,1,.15-26.42c.94-7.09,2.64-12.51,4.89-16.67,4.49-8.38,11.19-11.83,19.07-13.57s15.4-1.44,23,4.27c3.78,2.82,7.62,7.08,11.43,13A119.41,119.41,0,0,1,805,971.09h0a281.92,281.92,0,0,0,31-13.25h0a119.84,119.84,0,0,1-9.44-24.68c-1.69-6.93-2.07-12.6-1.49-17.3,1.15-9.44,6.13-15.09,12.87-19.58s13.86-6.95,23-4.4a38.59,38.59,0,0,1,7.27,2.92,61.22,61.22,0,0,1,8.12,5.09,120.06,120.06,0,0,1,19.16,18.24q6.38-5.53,12.41-11.43t11.73-12.13c-4-3.62-7.37-7.07-10.3-10.33a96.89,96.89,0,0,1-7.41-9.31,48.94,48.94,0,0,1-7.62-15.6c-2.3-9.22.35-16.28,5-22.91S909.73,825,919.16,824c4.73-.45,10.36.07,17.24,1.94a120,120,0,0,1,24.4,10.09h0a283.83,283.83,0,0,0,14-30.69h0a119.43,119.43,0,0,1-23.6-11.9,61.44,61.44,0,0,1-7.53-5.93,38.25,38.25,0,0,1-5.2-5.85c-5.5-7.75-5.59-15.27-3.66-23.11s5.57-14.46,14-18.74c4.23-2.14,9.68-3.7,16.78-4.46a119.58,119.58,0,0,1,26.39.53h0a288.23,288.23,0,0,0,2-33.69A119.19,119.19,0,0,1,967.73,699.68ZM709.16,883.83c-99.85,0-180.8-81-180.8-181s80.95-181,180.8-181,180.8,81,180.8,181S809,883.83,709.16,883.83Z" />
			</g>
			<g id="Calque_1-2" data-name="Calque 1">
				<circle class="cls-3" cx="709.16" cy="709.16" r="499.1" />
				<circle class="cls-4" cx="509.89" cy="251.65" r="29.8" />
				<circle class="cls-4" cx="214.98" cy="777.68" r="19.05" />
				<circle class="cls-4" cx="250.18" cy="512.5" r="35.2" />
				<circle class="cls-4" cx="338.6" cy="375.03" r="21.2" />
				<circle class="cls-4" cx="408.43" cy="1107.1" r="33.05" />
				<circle class="cls-4" cx="1104.69" cy="405.34" r="51.08" />
				<circle class="cls-4" cx="999.6" cy="1115.01" r="26.92" />
				<circle class="cls-4" cx="1206.95" cy="674.96" r="20.46" />
			</g>
			<g id="Calque_1-2" data-name="Calque 1">
				<circle class="cls-3" cx="709.16" cy="709.16" r="396.59" />
				<circle class="cls-4" cx="339" cy="566.12" r="23.68" />
				<circle class="cls-4" cx="426.43" cy="987.05" r="14.8" />
				<circle class="cls-4" cx="716.86" cy="1106.05" r="30.34" />
				<circle class="cls-4" cx="885.72" cy="1064.59" r="18.5" />
				<circle class="cls-4" cx="1098.95" cy="783.45" r="28.12" />
				<circle class="cls-4" cx="1078.38" cy="563.75" r="21.46" />
				<circle class="cls-4" cx="1082.34" cy="844.04" r="12.58" />
				<circle class="cls-4" cx="749.78" cy="314.72" r="40.59" />
			</g>
		</g>
	</g>
</svg>
