<svg xmlns="http://www.w3.org/2000/svg" viewBox="0 0 296.88 302.57">
	<defs>
		<style>
			.cls-1{fill:#ffbe0b;}
		</style>
	</defs>
	<title>
		Fichier 3
	</title>
	<g id="Calque_2" data-name="Calque 2">
		<g id="Calque_3" data-name="Calque 3">
			<path class="cls-1" d="M199.68,78.49h38.23L220,175.28a39.9,39.9,0,0,0-1.43,6.31,75,75,0,0,0-.81,7.52,13.8,13.8,0,0,0,.81,6.1c.68,1.62,2.1,2.44,4.27,2.44a28.64,28.64,0,0,0,13.22-3.46,35.4,35.4,0,0,0,12.2-11q5.49-7.52,9-19.32t3.45-28.06q0-24.39-7.93-42.9a82.49,82.49,0,0,0-22.16-30.71,97.17,97.17,0,0,0-33.75-18.5,138.43,138.43,0,0,0-42.71-6.31q-25.22,0-45.75,8.55a99.62,99.62,0,0,0-57.14,59.78,133,133,0,0,0-7.72,46q0,26.85,8.74,47.79a100.78,100.78,0,0,0,61.41,58,140.4,140.4,0,0,0,47.38,7.73,136.19,136.19,0,0,0,42.5-6.31,115.94,115.94,0,0,0,34.36-17.69h39.86q-22,30.11-52.26,45.76t-67.72,15.65a167,167,0,0,1-61.2-11.18,157.41,157.41,0,0,1-50.23-31.11,144,144,0,0,1-34-47.79Q0,184.64,0,151.69,0,119.16,12.2,91.5a149.63,149.63,0,0,1,33.35-48A155.76,155.76,0,0,1,95,11.59,157.53,157.53,0,0,1,155.35,0a163.06,163.06,0,0,1,52.26,8.54A145.36,145.36,0,0,1,253,33.15,123.05,123.05,0,0,1,284.88,72q12,22.78,12,50.84,0,23.18-5.69,41.07a112.79,112.79,0,0,1-14.85,30.91,98.88,98.88,0,0,1-20.53,21.76,124.93,124.93,0,0,1-22.58,14,102.61,102.61,0,0,1-20.94,7.52,73.84,73.84,0,0,1-15.86,2.24q-11.38,0-18.1-5.08t-7.11-14.85h-.82a58.92,58.92,0,0,1-15.66,14.24q-9.56,6.09-23.38,6.1a57.28,57.28,0,0,1-25.21-5.9A72.49,72.49,0,0,1,84.59,219a75.57,75.57,0,0,1-14.84-23.38,74.48,74.48,0,0,1-5.49-28.47A106.15,106.15,0,0,1,70,132.58a93.32,93.32,0,0,1,16.47-29.69,81.5,81.5,0,0,1,25.83-20.74A72.77,72.77,0,0,1,146,74.42a69.58,69.58,0,0,1,28.06,5.49q12.6,5.49,22,18.1ZM142.75,194q19.11,0,30.29-12.61a43.78,43.78,0,0,0,11.19-30.09q0-14.64-8.75-23.79t-23.38-9.16A36,36,0,0,0,135.83,122a42,42,0,0,0-12.6,9.56,44.89,44.89,0,0,0-8.34,13.63,41.87,41.87,0,0,0-3,15.45q0,14.24,7.93,23.79T142.75,194Z" />
		</g>
	</g>
</svg>
