<svg xmlns="http://www.w3.org/2000/svg" viewBox="0 0 734 734"><defs><style>.cls-1{fill:#0057ff;}.cls-2{fill:#fff;}</style></defs><title>Fichier 5</title><g id="Calque_2" data-name="Calque 2"><g id="Calque_3" data-name="Calque 3"><rect class="cls-1" width="734" height="734" rx="70.63"/><path class="cls-2" d="M265.13,534.18H101.68c0-.46.06-.92.06-1.38V201.2c0-.46,0-.92-.06-1.38H260a9.18,9.18,0,0,0,1.24.21c3.29.11,6.59.13,9.87.31,4.13.22,8.27.4,12.37.91,5.46.66,10.9,1.53,16.32,2.48a96.55,96.55,0,0,1,30.28,10.58,64.66,64.66,0,0,1,29.73,34c3.62,9.18,5.08,18.8,5.5,28.59a102.64,102.64,0,0,1-1.26,22.62c-3,16.6-11.21,30.06-24.28,40.63a103,103,0,0,1-18.36,11.61c-.41.21-.8.47-1.28.76a2.8,2.8,0,0,0,.42.26l1.31.43A104.33,104.33,0,0,1,340,360.6c16.08,8.59,27.39,21.44,34.33,38.23a96.22,96.22,0,0,1,6.92,33,115.56,115.56,0,0,1-.76,20,87.1,87.1,0,0,1-6.21,23.37,84.18,84.18,0,0,1-27.45,34.64c-13.65,10.11-29,16.36-45.51,19.93-5.62,1.22-11.31,2.08-17,3-3.1.48-6.25.69-9.38.89-2.86.18-5.73.19-8.59.3A6.63,6.63,0,0,0,265.13,534.18ZM174.92,431.12v44.74c0,1.39,0,1.39,1.42,1.4h74.07a124.35,124.35,0,0,0,17-1,66,66,0,0,0,17.48-4.54c7.58-3.31,13.73-8.25,17.93-15.47,3.52-6.05,4.94-12.68,5.26-19.56a69.44,69.44,0,0,0-1.67-19.7c-1.55-6.39-4.18-12.25-8.73-17.1S287.27,391.7,281,389.32c-8.38-3.17-17.12-4.21-26-4.22q-39.27,0-78.53,0c-1.52,0-1.52,0-1.52,1.51Zm39.87-95.81c11.47,0,23,0,34.42,0,2.72,0,5.44-.18,8.15-.42a50.13,50.13,0,0,0,17.31-4.62c5.24-2.51,9.92-5.74,13.35-10.55,4.48-6.27,6.17-13.44,6.48-21a85,85,0,0,0-.4-10.58,29.49,29.49,0,0,0-3.12-11c-4.64-9.21-12.42-14.45-22-17.3-8.14-2.41-16.53-3.1-24.95-3.14-22.56-.09-45.12,0-67.68,0-1.39,0-1.39,0-1.39,1.44v75.76c0,1.37,0,1.37,1.4,1.37Z"/><path class="cls-2" d="M513.19,534.18a12.69,12.69,0,0,0-1.35-.23c-5.15-.32-10.32-.41-15.44-1a125.86,125.86,0,0,1-37.25-9.86,105.93,105.93,0,0,1-35.89-25.58,114,114,0,0,1-19.92-30.69,128.55,128.55,0,0,1-9.42-30.51c-.78-4.45-1.28-8.94-1.8-13.43a147,147,0,0,1-.58-22.69c.2-5,.8-9.93,1.41-14.87a123.59,123.59,0,0,1,6.17-25.49,120,120,0,0,1,22.28-39.05,115.5,115.5,0,0,1,32.68-26.3,117.66,117.66,0,0,1,28.36-11.13,125.25,125.25,0,0,1,17-3,147.44,147.44,0,0,1,19.82-.77c14.08.45,27.86,2.62,41,8a106.54,106.54,0,0,1,42.34,31.16,123.91,123.91,0,0,1,20.66,36.63,148.59,148.59,0,0,1,7.38,28.9c.71,4.74,1.25,9.53,1.51,14.32.34,6.28.34,12.59.44,18.88,0,1.52-.14,3-.2,4.56,0,.67-.28,1.08-1,1-.31,0-.63,0-.95,0H457.57c.1,1.93.09,3.76.32,5.56.56,4.34,1.05,8.7,1.9,13a57.73,57.73,0,0,0,9.08,22.45,44.9,44.9,0,0,0,21.73,16.34,62.83,62.83,0,0,0,18.18,3.84c3.38.21,6.78.45,10.17.39,14.55-.26,27.54-4.79,38.62-14.42,4-3.51,7.7-7.33,10.18-12.13a24,24,0,0,0,1.59-3.69c.3-1,.79-1.22,1.75-1.19,2.12.07,4.25,0,6.37,0h50.37a8,8,0,0,1-.17.91,142,142,0,0,1-17.37,36.14,92.22,92.22,0,0,1-38.51,32.26,117.41,117.41,0,0,1-28.14,8.84c-5.1.92-10.27,1.47-15.43,2-3.47.36-7,.36-10.48.54a8.79,8.79,0,0,0-1.14.21Zm-1.44-153h53c1.25,0,1.28,0,1-1.25-.42-2-.82-4-1.31-6a81.23,81.23,0,0,0-9.37-23.67,42.11,42.11,0,0,0-11.33-12.66c-7.43-5.25-15.88-7.43-24.8-8-3.76-.24-7.56-.09-11.34,0a51.46,51.46,0,0,0-36.6,16.75c-8.5,9.42-12,20.94-13.41,33.27-.17,1.57-.1,1.59,1.5,1.59Z"/><path d="M101.68,199.82c0,.46.06.92.06,1.38V532.8c0,.46,0,.92-.06,1.38-.08,0-.2-.07-.21-.11,0-.28,0-.57,0-.85q0-166.22,0-332.44A4.13,4.13,0,0,1,101.68,199.82Z"/><path class="cls-2" d="M513.94,254.15H448.06c-1.53,0-1.53,0-1.53-1.58,0-11.44,0-22.88,0-34.32,0-1.09.32-1.35,1.38-1.35q66,0,132.08,0c1.37,0,1.37,0,1.37,1.42v34.42c0,1.38,0,1.39-1.4,1.39Z"/></g></g></svg>