<svg xmlns="http://www.w3.org/2000/svg" viewBox="0 0 734 734"><defs><style>.cls-1{fill:#0274b3;}.cls-2{fill:#fff;}</style></defs><title>Fichier 4</title><g id="Calque_2" data-name="Calque 2"><g id="Calque_3" data-name="Calque 3"><rect class="cls-1" width="734" height="734" rx="70.63"/><path class="cls-2" d="M389,335.18c3.09-4.16,6.06-8.44,9.31-12.48a78.35,78.35,0,0,1,23.28-19.05,95.22,95.22,0,0,1,44.93-12c16.45-.4,32.54,1.22,48.13,6.77a74.25,74.25,0,0,1,40.16,33.12c7.48,12.65,11.51,26.49,13.77,40.84a231.57,231.57,0,0,1,2.85,27.79c.59,17.2.61,34.42.65,51.63q.12,57.87,0,115.73v3.89H490.58c-4.3,0-4.31,0-4.31-4.22q0-68.54,0-137.07c0-12.46-.66-24.83-4.58-36.78C477,379,467.47,369.63,452.16,367.26c-13.32-2.07-26.3-.83-38.07,6.4-10,6.12-15.44,15.68-18.19,26.63a110,110,0,0,0-3.55,23.4c-.61,21.79-.57,43.6-.64,65.4-.08,26.21,0,52.43,0,78.65,0,3.7,0,3.71-3.64,3.71-26,0-52.05,0-78.08,0-2.64,0-3.54-.65-3.54-3.41q.1-133.29,0-266.56c0-2.69.86-3.57,3.55-3.56,24.9.07,49.81,0,74.72,0,3.48,0,3.59.14,3.6,3.67v33.54Z"/><path class="cls-2" d="M168.73,571.45V567.8q0-133,0-266c0-3.78,0-3.79,3.62-3.79h77.53c4,0,4.07,0,4.07,4.08V567.53c0,3.91,0,3.92-3.77,3.92H168.73Z"/><path class="cls-2" d="M211.62,162.51A49.26,49.26,0,0,1,261.11,212c-.13,27.91-21.49,49.45-49.78,49.57-28.07.11-49.38-22.49-49.4-49.87C161.9,185,184.37,161.93,211.62,162.51Z"/></g></g></svg>