<svg xmlns="http://www.w3.org/2000/svg" viewBox="0 0 569.76 569.76"><defs><style>.cls-1{fill:#fcbd15;}</style></defs><title>cool-gear</title><g id="Calque_2" data-name="Calque 2"><g id="Calque_1-2" data-name="Calque 1"><path class="cls-1" d="M543.45,281.72a48.81,48.81,0,0,1-16.13-6.42,27,27,0,0,1-5-4.26,22.3,22.3,0,0,1-3.42-4.85,24.22,24.22,0,0,1-2.13-5.38,35.47,35.47,0,0,1-1.15-5.82c-1-8,0-15.5,6.36-22.53a38.66,38.66,0,0,1,5.86-5.2,59.82,59.82,0,0,1,8.18-5,119.94,119.94,0,0,1,24.86-9q-2.1-8.23-4.69-16.27t-5.61-15.86h0a120.27,120.27,0,0,1-25.43,7.13,61.38,61.38,0,0,1-9.58.71,40.45,40.45,0,0,1-7.77-.82c-9.24-2-14.42-7.51-18.26-14.63s-5.63-14.45-2.26-23.32a40.38,40.38,0,0,1,3.56-7,60.91,60.91,0,0,1,5.83-7.63,119.84,119.84,0,0,1,19.89-17.42h0A286,286,0,0,0,495.33,92c-4,3.62-7.71,6.7-11.23,9.33a98.56,98.56,0,0,1-9.93,6.53,61.54,61.54,0,0,1-8.66,4.11,38.3,38.3,0,0,1-7.56,2c-9.39,1.46-16.17-1.83-22.34-7.08s-10.46-11.45-10.48-21c-.05-4.71,1-10.34,3.51-17a119.78,119.78,0,0,1,12.28-23.39v0a283,283,0,0,0-29.22-16.82h0a120.11,120.11,0,0,1-14,22.4c-4.5,5.49-8.82,9.26-12.91,11.6-8.22,4.77-15.72,4.17-23.34,1.5s-13.85-6.87-17.32-15.72c-1.74-4.4-2.77-10-2.88-17.12a120.83,120.83,0,0,1,3-26.27s0,0,0,0a285.7,285.7,0,0,0-33.33-5V0a119.54,119.54,0,0,1-4.95,26c-.54,1.68-1.13,3.26-1.73,4.74s-1.24,2.87-1.9,4.15a38.11,38.11,0,0,1-4.2,6.6c-5.95,7.43-13.21,9.57-21.32,9.84s-15.46-1.45-21.88-8.42a40.31,40.31,0,0,1-4.62-6.3A61.14,61.14,0,0,1,246.07,28a120.43,120.43,0,0,1-6.65-25.59h0A282.19,282.19,0,0,0,206.5,9.62a119.86,119.86,0,0,1,4.73,26,49.3,49.3,0,0,1-1.72,17.28c-2.87,9-8.82,13.65-16.24,16.83s-14.88,4.25-23.39.08a39.49,39.49,0,0,1-6.6-4.19,61.27,61.27,0,0,1-7.06-6.52,120.09,120.09,0,0,1-15.48-21.41h0a283.18,283.18,0,0,0-28,18.73h0A120.22,120.22,0,0,1,126.53,79a63,63,0,0,1,3.29,9,38.71,38.71,0,0,1,1.34,7.71c.6,9.5-3.3,16-9.09,21.63s-12.36,9.38-21.83,8.54c-4.71-.41-10.21-2-16.59-5.07A119.54,119.54,0,0,1,61.5,106.41h0A286.09,286.09,0,0,0,42.06,134a0,0,0,0,1,0,0,119.32,119.32,0,0,1,21,16c5.08,5,8.36,9.63,10.35,13.94,3.95,8.63,2.68,16.07-.69,23.42s-8.12,13.17-17.24,15.81a38.94,38.94,0,0,1-7.71,1.33,60.54,60.54,0,0,1-9.59-.06,119.89,119.89,0,0,1-25.87-5.41h0a282.73,282.73,0,0,0-8.11,32.75h0a119.56,119.56,0,0,1,25.37,7.33,60.64,60.64,0,0,1,8.53,4.43,39.91,39.91,0,0,1,6.17,4.8c6.8,6.59,8.34,14,7.86,22.09s-2.81,15.3-10.38,21.07a37.72,37.72,0,0,1-6.69,4.05c-1.31.62-2.7,1.22-4.21,1.79s-3.07,1.11-4.77,1.61A118.7,118.7,0,0,1,0,303.27H0a283.53,283.53,0,0,0,4.19,33.48h0a118.87,118.87,0,0,1,26.32-2.29c7.07.29,12.67,1.47,17,3.32,8.75,3.7,12.78,10.05,15.25,17.74s2.86,15.21-2.12,23.32c-2.44,4-6.3,8.25-11.91,12.61A119.27,119.27,0,0,1,26,404.9h0a285.07,285.07,0,0,0,16.05,29.67h0a119,119,0,0,1,23.69-11.7c1.68-.58,3.28-1.07,4.82-1.47s3-.74,4.46-1a36.93,36.93,0,0,1,7.78-.62c9.51.27,15.58,4.74,20.68,11S111.69,444,110,453.37a37.78,37.78,0,0,1-2.24,7.51,59.29,59.29,0,0,1-4.32,8.56,119.29,119.29,0,0,1-16.37,20.77h0a284.81,284.81,0,0,0,25.64,21.9h0a120.62,120.62,0,0,1,17.9-19.45,60.81,60.81,0,0,1,7.78-5.64c1.24-.74,2.43-1.38,3.6-1.94a33.86,33.86,0,0,1,3.45-1.44c8.94-3.13,16.23-1.17,23.23,2.87s12.36,9.34,14.14,18.65a36.27,36.27,0,0,1,.49,3.71c.1,1.29.15,2.65.13,4.08a62.19,62.19,0,0,1-.95,9.57,121,121,0,0,1-7.78,25.27h0a283.07,283.07,0,0,0,31.82,11.15,120.31,120.31,0,0,1,9.65-24.64,49,49,0,0,1,10.54-13.79c7.19-6.19,14.66-7,22.65-5.77a33.85,33.85,0,0,1,5.79,1.29,23.86,23.86,0,0,1,5.3,2.27,22,22,0,0,1,4.76,3.54,27.3,27.3,0,0,1,4.12,5.13,48.71,48.71,0,0,1,6,16.3,120.62,120.62,0,0,1,1.88,26.4c2.46.06,4.91.09,7.38.09q13.31,0,26.32-1.2v0a119.6,119.6,0,0,1,.15-26.42c.94-7.08,2.64-12.5,4.89-16.66,4.5-8.38,11.19-11.83,19.08-13.57s15.39-1.44,23,4.27c3.79,2.82,7.63,7.08,11.44,13a120.24,120.24,0,0,1,11.27,23.92h0a282.53,282.53,0,0,0,31-13.24v0a118.64,118.64,0,0,1-9.44-24.67c-1.69-6.93-2.08-12.61-1.5-17.31,1.15-9.43,6.14-15.08,12.87-19.57s13.86-6.95,23-4.41a39.27,39.27,0,0,1,7.27,2.92,59.72,59.72,0,0,1,8.12,5.1,120,120,0,0,1,19.17,18.23q6.38-5.52,12.41-11.42t11.72-12.13c-4-3.62-7.37-7.07-10.3-10.34a101.41,101.41,0,0,1-7.41-9.3A48.92,48.92,0,0,1,470,441.36c-2.3-9.21.34-16.28,5-22.9s10.44-11.46,19.88-12.39c4.72-.45,10.35.07,17.24,1.95a119.26,119.26,0,0,1,24.4,10.09h0a284.65,284.65,0,0,0,14-30.69h0A119.57,119.57,0,0,1,527,375.53a61.6,61.6,0,0,1-7.54-5.93,37.72,37.72,0,0,1-5.19-5.86c-5.5-7.74-5.6-15.26-3.66-23.11s5.56-14.45,14-18.73c4.22-2.14,9.67-3.7,16.77-4.46a118.36,118.36,0,0,1,26.39.53h0a290.43,290.43,0,0,0,2-33.69A120.49,120.49,0,0,1,543.45,281.72ZM284.88,465.86c-99.85,0-180.8-81-180.8-181s81-181,180.8-181,180.8,81,180.8,181S384.73,465.86,284.88,465.86Z"/></g></g></svg>