<svg xmlns="http://www.w3.org/2000/svg" viewBox="0 0 1442.17 1623.29"><defs><style>.cls-1{fill:#ffbe0b;}</style></defs><title>fichier-10</title><g id="Calque_2" data-name="Calque 2"><g id="Calque_1-2" data-name="Calque 1"><path class="cls-1" d="M820.5,1623.29A820.63,820.63,0,0,1,391.65,103.15,813.83,813.83,0,0,1,649.79.08a3.49,3.49,0,1,1,1.44,6.84C277.94,85.92,7,420.63,7,802.79c0,448.57,364.93,813.5,813.5,813.5A813.35,813.35,0,0,0,1436,1334.7a3.5,3.5,0,0,1,5.29,4.58,823.26,823.26,0,0,1-273.81,207.24C1058.51,1597.46,941.76,1623.29,820.5,1623.29Z"/></g></g></svg>