<svg xmlns="http://www.w3.org/2000/svg" viewBox="0 0 1418.31 1418.32"><defs><style>.cls-1{fill:none;}.cls-2{fill:#ffbe0b;}</style></defs><title>fichier-9</title><g id="Calque_2" data-name="Calque 2"><g id="Calque_1-2" data-name="Calque 1"><circle class="cls-1" cx="709.16" cy="709.16" r="671.04"/><path class="cls-2" d="M1383,785.52a676.37,676.37,0,0,0-47.74-336.84,688.94,688.94,0,0,0-95.66-162q-12.57-15.82-26-30.84A676.29,676.29,0,0,0,967.7,82.22,690.8,690.8,0,0,0,785.52,35.31a676.64,676.64,0,0,0-298.12,33q-19.57,6.8-38.73,14.78a688.23,688.23,0,0,0-162,95.66A676,676,0,0,0,82.22,450.62,690.53,690.53,0,0,0,35.31,632.8,676.12,676.12,0,0,0,83.05,969.64a687.7,687.7,0,0,0,95.66,162A676.13,676.13,0,0,0,450.62,1336.1,690.53,690.53,0,0,0,632.8,1383a676.42,676.42,0,0,0,336.84-47.74,688.61,688.61,0,0,0,162-95.66A676.13,676.13,0,0,0,1336.1,967.7,690.8,690.8,0,0,0,1383,785.52ZM636.35,1369.25A663.7,663.7,0,0,1,294,191.18,670,670,0,0,1,456,95.53Q469.42,90,483.08,85a661,661,0,0,1,392.16-18.8A669.11,669.11,0,0,1,964.15,96,660.38,660.38,0,0,1,1209.24,272.6q9.18,10.53,17.89,21.45a669.48,669.48,0,0,1,95.66,162,660.91,660.91,0,0,1,29.3,419.21,667.67,667.67,0,0,1-29.74,88.91,660.66,660.66,0,0,1-198.08,263,669.67,669.67,0,0,1-162,95.66A660.89,660.89,0,0,1,636.35,1369.25Z"/><rect class="cls-2" x="837.16" y="-32.93" width="77.68" height="188.12" transform="translate(597.71 894) rotate(-75.52)"/><rect class="cls-2" x="1191.3" y="330.07" width="188.12" height="77.68" transform="translate(950.49 -925.73) rotate(59.48)"/><rect class="cls-2" x="1263.13" y="837.16" width="188.12" height="77.68" transform="matrix(-0.25, 0.97, -0.97, -0.25, 2544.79, -218.95)"/><rect class="cls-2" x="955.35" y="1246.52" width="188.12" height="77.68" transform="matrix(-0.86, 0.51, -0.51, -0.86, 2606.13, 1859.81)"/><rect class="cls-2" x="448.26" y="1318.35" width="188.12" height="77.68" transform="translate(727.95 2806.87) rotate(-165.52)"/><rect class="cls-2" x="38.9" y="1010.57" width="188.12" height="77.68" transform="translate(-703.58 1696.82) rotate(-120.52)"/><rect class="cls-2" x="-32.93" y="503.48" width="188.12" height="77.68" transform="translate(-479.24 465.87) rotate(-75.52)"/><rect class="cls-2" x="274.85" y="94.12" width="188.12" height="77.68" transform="translate(-16.42 205.74) rotate(-30.52)"/></g></g></svg>