<svg xmlns="http://www.w3.org/2000/svg" viewBox="0 0 750 749.24"><defs><style>.cls-1{fill:#ffbe0b;}</style></defs><title>Fichier 6</title><g id="Calque_2" data-name="Calque 2"><g id="Calque_1-2" data-name="Calque 1"><path class="cls-1" d="M715.37,370.46c-9.15-2.09-16-5-21.23-8.44a35.58,35.58,0,0,1-6.61-5.6A29,29,0,0,1,683,350a31.69,31.69,0,0,1-2.81-7.07,46.45,46.45,0,0,1-1.51-7.65c-1.31-10.57,0-20.39,8.36-29.64a51.38,51.38,0,0,1,7.72-6.83,79.25,79.25,0,0,1,10.77-6.56c8.34-4.28,19-8.35,32.72-11.85q-2.77-10.83-6.17-21.4t-7.38-20.86h0c-13.19,5.11-24.19,8-33.48,9.37a80.15,80.15,0,0,1-12.61.94,52.61,52.61,0,0,1-10.23-1.09c-12.17-2.67-19-9.87-24-19.23s-7.41-19-3-30.67a52.41,52.41,0,0,1,4.69-9.16,81,81,0,0,1,7.67-10c6.24-7,14.7-14.67,26.18-22.9h0A376.63,376.63,0,0,0,652,120.92c-5.22,4.76-10.15,8.81-14.79,12.26a129.53,129.53,0,0,1-13.07,8.59,79.32,79.32,0,0,1-11.4,5.4,49.88,49.88,0,0,1-10,2.69c-12.35,1.92-21.28-2.41-29.4-9.32s-13.78-15.06-13.8-27.58c-.06-6.2,1.36-13.6,4.62-22.35s8.43-19,16.17-30.76l0,0A372,372,0,0,0,542,37.7v0C535.64,50.35,529.41,60,523.49,67.17s-11.61,12.18-17,15.25c-10.82,6.27-20.69,5.48-30.72,2s-18.24-9-22.8-20.68c-2.29-5.78-3.65-13.19-3.79-22.51s1-20.73,3.91-34.54v0A374.46,374.46,0,0,0,409.23,0V0c-1.29,14.07-3.61,25.27-6.5,34.15-.73,2.22-1.49,4.29-2.29,6.24s-1.63,3.77-2.49,5.46a50.25,50.25,0,0,1-5.54,8.67c-7.84,9.78-17.38,12.59-28.06,12.95S344,65.58,335.55,56.42a53.31,53.31,0,0,1-6.09-8.29,81,81,0,0,1-5.54-11.37c-3.48-8.72-6.53-19.68-8.76-33.65h0a374.17,374.17,0,0,0-43.32,9.55c3.85,13.59,5.71,24.89,6.22,34.25s-.4,16.72-2.27,22.71c-3.77,11.9-11.6,18-21.37,22.14s-19.59,5.58-30.79.11a52.7,52.7,0,0,1-8.68-5.51,80.84,80.84,0,0,1-9.3-8.58c-6.4-6.84-13.24-16-20.38-28.16h0a375.8,375.8,0,0,0-36.9,24.63h0c8.52,11.26,14.35,21.12,18.2,29.64a81.8,81.8,0,0,1,4.34,11.85,50.36,50.36,0,0,1,1.76,10.15c.78,12.49-4.34,21-12,28.43S144.41,166.65,132,165.54c-6.2-.53-13.44-2.62-21.84-6.66S92,148.73,81,139.94c0,0,0,0,0,0a377.32,377.32,0,0,0-25.58,36.26l0,0c12,7.44,21,14.52,27.61,21.09S94,210,96.62,215.63c5.2,11.34,3.53,21.12-.91,30.79S85,263.74,73,267.2A51,51,0,0,1,62.87,269a79.82,79.82,0,0,1-12.62-.08c-9.33-.75-20.58-2.91-34.06-7.12h0A373.86,373.86,0,0,0,5.51,304.84h0c13.9,2.59,24.8,5.92,33.41,9.63a78.72,78.72,0,0,1,11.22,5.83,52.32,52.32,0,0,1,8.13,6.3c9,8.68,11,18.4,10.33,29S64.92,375.78,55,383.37a50.43,50.43,0,0,1-8.82,5.32q-2.56,1.23-5.53,2.35t-6.29,2.12c-8.95,2.68-20.21,4.7-34.3,5.64H0a374.8,374.8,0,0,0,5.51,44h0c13.89-2.57,25.31-3.38,34.65-3s16.68,1.94,22.4,4.38c11.52,4.86,16.82,13.21,20.08,23.33s3.77,20-2.79,30.66c-3.21,5.29-8.29,10.84-15.68,16.58s-17.13,11.71-29.92,17.69h0a373.86,373.86,0,0,0,21.13,39h0c12-7.44,22.34-12.35,31.18-15.38,2.21-.77,4.32-1.4,6.35-1.94s4-1,5.86-1.3A49.09,49.09,0,0,1,109,552c12.52.35,20.5,6.23,27.22,14.51s10.78,17.33,8.55,29.63a50.29,50.29,0,0,1-2.95,9.88,78.39,78.39,0,0,1-5.69,11.26c-4.82,8-11.77,17.11-21.55,27.3h0a376.92,376.92,0,0,0,33.76,28.8h0c8.54-11.27,16.38-19.51,23.57-25.57a81.19,81.19,0,0,1,10.23-7.42c1.63-1,3.21-1.81,4.74-2.54s3.07-1.38,4.54-1.91c11.78-4.11,21.36-1.53,30.58,3.78s16.27,12.28,18.62,24.52a46.76,46.76,0,0,1,.64,4.89c.14,1.69.2,3.48.17,5.37a80.32,80.32,0,0,1-1.25,12.58c-1.63,9.24-4.81,20.19-10.24,33.23h0A371.08,371.08,0,0,0,271.83,735c3.86-13.58,8.21-24.17,12.69-32.4s9.14-14,13.88-18.13c9.46-8.13,19.3-9.17,29.82-7.59a45.53,45.53,0,0,1,7.61,1.7,31.74,31.74,0,0,1,7,3,28.77,28.77,0,0,1,6.26,4.66,36,36,0,0,1,5.43,6.74c3.32,5.34,6,12.25,7.88,21.44s2.84,20.59,2.49,34.71c3.23.08,6.46.12,9.71.12q17.52,0,34.64-1.58v0c-1.28-14.07-1-25.5.2-34.75s3.48-16.44,6.45-21.91c5.91-11,14.72-15.55,25.1-17.85s20.27-1.89,30.27,5.62c5,3.71,10,9.31,15.05,17.16s10.07,18.15,14.84,31.45h0A371.11,371.11,0,0,0,542,710v0c-6.3-12.64-10.23-23.38-12.43-32.45s-2.74-16.58-2-22.76c1.51-12.4,8.08-19.83,16.94-25.74s18.24-9.14,30.28-5.79a51.23,51.23,0,0,1,9.57,3.84,80.11,80.11,0,0,1,10.69,6.7c7.55,5.54,16,13.31,25.22,24q8.38-7.28,16.34-15t15.43-16c-5.21-4.76-9.7-9.29-13.56-13.59a130.88,130.88,0,0,1-9.75-12.23c-5.35-7.7-8.47-14.44-10-20.52-3-12.12.45-21.41,6.58-30.13S639,535.2,651.44,534c6.22-.59,13.63.09,22.69,2.55s19.65,6.65,32.12,13.27l0,0a372.79,372.79,0,0,0,18.47-40.36h0c-13.17-5.11-23.31-10.42-31.06-15.65a79.82,79.82,0,0,1-9.92-7.79,50.13,50.13,0,0,1-6.84-7.71c-7.24-10.18-7.37-20.07-4.82-30.39s7.33-19,18.48-24.64c5.56-2.81,12.73-4.86,22.08-5.86s20.71-.95,34.74.7h0a378.87,378.87,0,0,0,2.59-44.3C735.88,373.82,724.5,372.53,715.37,370.46ZM375,612.61c-131.44,0-238-106.55-238-238s106.55-238,238-238,238,106.56,238,238S506.44,612.61,375,612.61Z"/></g></g></svg>