<svg xmlns="http://www.w3.org/2000/svg" viewBox="0 0 375 375"><defs><style>.cls-1{fill:#ffbe0b;}</style></defs><title>Fichier 5</title><g id="Calque_2" data-name="Calque 2"><g id="Calque_1-2" data-name="Calque 1"><path class="cls-1" d="M375,217.38V157.62H359a172.52,172.52,0,0,0-8-30l13.84-8L334.94,67.87l-13.88,8a175.06,175.06,0,0,0-21.95-22l8-13.88L255.38,10.18l-8,13.84a172.52,172.52,0,0,0-30-8V0H157.62V16a172.76,172.76,0,0,0-30,8l-8-13.84L67.88,40.06l8,13.88a175.06,175.06,0,0,0-22,22l-13.87-8L10.18,119.63l13.85,8a172.54,172.54,0,0,0-8,30H0v59.76H16a172.54,172.54,0,0,0,8,30l-13.85,8L40,307.4l14.19-8.22a172.76,172.76,0,0,0,21.73,21.88l-8,13.88,51.75,29.88,8-13.84a172.76,172.76,0,0,0,30,8v16h59.76V359a172.52,172.52,0,0,0,30-8l8,13.84,51.75-29.88-8-13.88a175.06,175.06,0,0,0,21.95-21.95l13.88,8,29.88-51.76-13.84-8a172.52,172.52,0,0,0,8-30ZM187.5,321A133.5,133.5,0,1,1,321,187.5,133.5,133.5,0,0,1,187.5,321Z"/></g></g></svg>