<svg xmlns="http://www.w3.org/2000/svg" viewBox="0 0 1418.31 1418.32">
	<defs>
		<style>
			.cls-1,.cls-3{fill:none;}.cls-2{fill:#fcbd15;}.cls-3,.cls-4{stroke:#fcbd15;stroke-miterlimit:10;}.cls-4{fill:#141414;}
		</style>
	</defs>
	<title>
		groupe-svg
	</title>
	<g id="Calque_2" data-name="Calque 2">
		<g id="Calque_1-2" data-name="Calque 1">
			<circle class="cls-1" cx="709.16" cy="709.16" r="671.04" />
			<path class="cls-2" d="M1383,785.52a676.37,676.37,0,0,0-47.74-336.84,688.94,688.94,0,0,0-95.66-162q-12.57-15.82-26-30.84A676.29,676.29,0,0,0,967.7,82.22,690.8,690.8,0,0,0,785.52,35.31a676.64,676.64,0,0,0-298.12,33q-19.57,6.8-38.73,14.78a688.23,688.23,0,0,0-162,95.66A676,676,0,0,0,82.22,450.62,690.53,690.53,0,0,0,35.31,632.8,676.12,676.12,0,0,0,83.05,969.64a687.7,687.7,0,0,0,95.66,162A676.13,676.13,0,0,0,450.62,1336.1,690.53,690.53,0,0,0,632.8,1383a676.42,676.42,0,0,0,336.84-47.74,688.61,688.61,0,0,0,162-95.66A676.13,676.13,0,0,0,1336.1,967.7,690.8,690.8,0,0,0,1383,785.52ZM636.35,1369.25A663.7,663.7,0,0,1,294,191.18,670,670,0,0,1,456,95.53Q469.42,90,483.08,85a661,661,0,0,1,392.16-18.8A669.11,669.11,0,0,1,964.15,96,660.38,660.38,0,0,1,1209.24,272.6q9.18,10.53,17.89,21.45a669.48,669.48,0,0,1,95.66,162,660.91,660.91,0,0,1,29.3,419.21,667.67,667.67,0,0,1-29.74,88.91,660.66,660.66,0,0,1-198.08,263,669.67,669.67,0,0,1-162,95.66A660.89,660.89,0,0,1,636.35,1369.25Z" />
			<rect class="cls-2" x="837.16" y="-32.93" width="77.68" height="188.12" transform="matrix(0.25, -0.97, 0.97, 0.25, 597.71, 894)" />
			<rect class="cls-2" x="1191.3" y="330.07" width="188.12" height="77.68" transform="translate(950.49 -925.73) rotate(59.48)" />
			<rect class="cls-2" x="1263.13" y="837.16" width="188.12" height="77.68" transform="translate(2544.79 -218.95) rotate(104.48)" />
			<rect class="cls-2" x="955.35" y="1246.52" width="188.12" height="77.68" transform="matrix(-0.86, 0.51, -0.51, -0.86, 2606.13, 1859.81)" />
			<rect class="cls-2" x="448.26" y="1318.35" width="188.12" height="77.68" transform="translate(727.95 2806.87) rotate(-165.52)" />
			<rect class="cls-2" x="38.9" y="1010.57" width="188.12" height="77.68" transform="translate(-703.58 1696.82) rotate(-120.52)" />
			<rect class="cls-2" x="-32.93" y="503.48" width="188.12" height="77.68" transform="translate(-479.24 465.87) rotate(-75.52)" />
			<rect class="cls-2" x="274.85" y="94.12" width="188.12" height="77.68" transform="translate(-16.42 205.74) rotate(-30.52)" />
			<path class="cls-2" d="M896.66,739V679.28h-16a172.54,172.54,0,0,0-8-30l13.85-8L856.6,589.53l-13.88,8a175.06,175.06,0,0,0-22-21.95l8-13.88L777,531.84l-8,13.84a172.76,172.76,0,0,0-30-8v-16H679.28v16a172.52,172.52,0,0,0-30,8l-8-13.84-51.75,29.88,8,13.88a175.06,175.06,0,0,0-21.95,21.95l-13.88-8-29.88,51.75,13.84,8a172.52,172.52,0,0,0-8,30h-16V739h16a172.76,172.76,0,0,0,8,30l-13.84,8,29.78,52,14.2-8.21a172.75,172.75,0,0,0,21.73,21.88l-8,13.88,51.75,29.88,8-13.85a172.54,172.54,0,0,0,30,8v16H739v-16a172.78,172.78,0,0,0,30-8l8,13.85,51.75-29.88-8-13.88a175.06,175.06,0,0,0,22-22l13.88,8L886.48,777l-13.85-8a172.78,172.78,0,0,0,8-30Z" />
			<path class="cls-2" d="M1049.52,705c-9.14-2.09-16-5-21.23-8.44a35.16,35.16,0,0,1-6.6-5.61,28.45,28.45,0,0,1-4.49-6.38,31.62,31.62,0,0,1-2.81-7.06,45.35,45.35,0,0,1-1.51-7.66c-1.31-10.56,0-20.38,8.36-29.63a51.78,51.78,0,0,1,7.71-6.83,80,80,0,0,1,10.78-6.57c8.33-4.27,19-8.34,32.72-11.85q-2.78-10.82-6.17-21.39t-7.38-20.86h0c-13.18,5.1-24.18,8-33.47,9.37a81.4,81.4,0,0,1-12.62.93,52.63,52.63,0,0,1-10.22-1.08c-12.17-2.67-19-9.88-24-19.24s-7.41-19-3-30.66a52.48,52.48,0,0,1,4.69-9.17,79.26,79.26,0,0,1,7.67-10c6.23-7,14.7-14.67,26.18-22.91h0a377.56,377.56,0,0,0-27.92-34.49c-5.22,4.76-10.15,8.81-14.79,12.27a130.66,130.66,0,0,1-13.07,8.59,80.41,80.41,0,0,1-11.4,5.4,50,50,0,0,1-9.95,2.68c-12.35,1.92-21.29-2.4-29.4-9.31S893.79,460,893.76,447.5c0-6.2,1.37-13.6,4.63-22.35s8.43-19,16.17-30.77c0,0,0,0,0,0a372.81,372.81,0,0,0-38.46-22.12v0c-6.31,12.63-12.53,22.23-18.45,29.45S846,413.88,840.66,417c-10.83,6.27-20.69,5.48-30.73,2s-18.23-9-22.79-20.68c-2.29-5.78-3.65-13.2-3.8-22.51s1-20.73,3.92-34.55v0a374.28,374.28,0,0,0-43.87-6.64v0c-1.29,14.06-3.61,25.26-6.51,34.15-.72,2.22-1.48,4.29-2.28,6.23s-1.64,3.78-2.5,5.47a49.66,49.66,0,0,1-5.54,8.67c-7.83,9.77-17.37,12.59-28,12.95s-20.36-1.91-28.8-11.08a52.1,52.1,0,0,1-6.09-8.28,81.57,81.57,0,0,1-5.55-11.37c-3.47-8.72-6.53-19.69-8.75-33.65h0A374.34,374.34,0,0,0,606,347.19c3.85,13.58,5.72,24.89,6.23,34.24s-.4,16.73-2.27,22.72c-3.78,11.9-11.6,18-21.38,22.14s-19.59,5.58-30.78.1a51.87,51.87,0,0,1-8.69-5.51,79,79,0,0,1-9.29-8.57c-6.4-6.84-13.24-16-20.38-28.16,0,0,0,0,0,0a377.83,377.83,0,0,0-36.91,24.64h0c8.52,11.27,14.35,21.12,18.2,29.64A81,81,0,0,1,505,450.27a50.46,50.46,0,0,1,1.77,10.14c.78,12.49-4.34,21-12,28.44s-16.27,12.34-28.74,11.23c-6.19-.53-13.44-2.63-21.83-6.66s-18.11-10.15-29.16-18.95a0,0,0,0,1,0,0,376.07,376.07,0,0,0-25.58,36.26h0c12,7.45,21,14.53,27.61,21.1s11,12.66,13.62,18.33c5.2,11.35,3.54,21.13-.9,30.79s-10.7,17.33-22.69,20.79A51.77,51.77,0,0,1,397,603.5a81,81,0,0,1-12.62-.08c-9.33-.75-20.58-2.91-34.06-7.12h0a375.22,375.22,0,0,0-10.67,43.07h0c13.9,2.59,24.79,5.93,33.4,9.63a79.34,79.34,0,0,1,11.23,5.84,51.61,51.61,0,0,1,8.12,6.3c9,8.67,11,18.4,10.34,29.05s-3.69,20.13-13.66,27.72a49.35,49.35,0,0,1-8.81,5.31q-2.57,1.23-5.53,2.36c-2,.74-4,1.45-6.29,2.12-9,2.67-20.21,4.7-34.3,5.64h0a375.06,375.06,0,0,0,5.51,44h0c13.89-2.57,25.3-3.38,34.65-3s16.68,1.93,22.4,4.37c11.52,4.87,16.82,13.21,20.07,23.33s3.78,20-2.78,30.66c-3.22,5.3-8.29,10.85-15.68,16.59S381.21,861,368.42,867h0a373.71,373.71,0,0,0,21.13,39h0c12-7.44,22.34-12.35,31.18-15.39,2.21-.76,4.32-1.39,6.35-1.93s4-1,5.86-1.3a49.84,49.84,0,0,1,10.25-.82c12.51.36,20.5,6.24,27.21,14.52s10.79,17.33,8.55,29.63A49.15,49.15,0,0,1,476,940.6a78.71,78.71,0,0,1-5.68,11.25c-4.83,8-11.78,17.12-21.55,27.31h0A378.44,378.44,0,0,0,482.5,1008h0c8.54-11.27,16.38-19.52,23.57-25.57A79.77,79.77,0,0,1,516.31,975q2.45-1.46,4.74-2.55a48.44,48.44,0,0,1,4.54-1.9c11.77-4.11,21.36-1.53,30.58,3.78s16.27,12.28,18.62,24.52a46.56,46.56,0,0,1,.64,4.88c.14,1.7.2,3.49.17,5.38a80.09,80.09,0,0,1-1.25,12.57c-1.63,9.25-4.81,20.19-10.25,33.23h0A370.92,370.92,0,0,0,606,1069.54c3.87-13.58,8.22-24.18,12.7-32.4s9.13-14,13.87-18.13c9.47-8.14,19.3-9.17,29.83-7.59a45.53,45.53,0,0,1,7.61,1.7,31.47,31.47,0,0,1,7,3,29.29,29.29,0,0,1,6.26,4.65,35.6,35.6,0,0,1,5.42,6.75c3.32,5.34,6,12.25,7.89,21.43s2.84,20.6,2.49,34.72q4.85.12,9.7.12,17.53,0,34.65-1.59v0c-1.28-14.06-1-25.49.2-34.74s3.48-16.44,6.44-21.91c5.92-11,14.73-15.56,25.11-17.85s20.27-1.89,30.27,5.61c5,3.72,10,9.32,15.05,17.16s10.07,18.16,14.84,31.45v0a375,375,0,0,0,40.81-17.41v0c-6.29-12.64-10.22-23.37-12.42-32.45s-2.74-16.57-2-22.75c1.51-12.4,8.08-19.84,16.94-25.74s18.24-9.14,30.28-5.79a50.81,50.81,0,0,1,9.56,3.83,80,80,0,0,1,10.69,6.71c7.55,5.54,16,13.3,25.23,24q8.39-7.28,16.34-15t15.43-16c-5.21-4.76-9.7-9.3-13.56-13.59a130.92,130.92,0,0,1-9.75-12.24c-5.35-7.7-8.47-14.43-10-20.52-3-12.11.45-21.41,6.57-30.12s13.75-15.07,26.17-16.28c6.22-.6,13.63.09,22.7,2.55s19.65,6.65,32.12,13.27h0A371.75,371.75,0,0,0,1058.9,844h0c-13.16-5.11-23.3-10.42-31.06-15.65a81.39,81.39,0,0,1-9.91-7.8,49.5,49.5,0,0,1-6.84-7.7c-7.24-10.19-7.37-20.07-4.82-30.39s7.32-19,18.48-24.64c5.56-2.81,12.73-4.86,22.08-5.86s20.71-1,34.74.69h0a378.7,378.7,0,0,0,2.59-44.29C1070,708.36,1058.66,707.07,1049.52,705ZM709.16,947.15c-131.44,0-238-106.56-238-238s106.55-238,238-238,238,106.55,238,238S840.59,947.15,709.16,947.15Z" />
			<circle class="cls-3" cx="709.16" cy="709.16" r="463.43" />
			<circle class="cls-4" cx="526.85" cy="282.78" r="27.67" />
			<circle class="cls-4" cx="249.85" cy="772.78" r="17.69" />
			<circle class="cls-4" cx="283.85" cy="524.78" r="32.69" />
			<circle class="cls-4" cx="366.85" cy="397.78" r="19.69" />
			<circle class="cls-4" cx="430.85" cy="1079.78" r="30.69" />
			<circle class="cls-4" cx="1077.23" cy="427.05" r="47.43" />
			<circle class="cls-3" cx="693.75" cy="713.75" r="536" />
			<circle class="cls-4" cx="195.95" cy="514.15" r="32" />
			<circle class="cls-4" cx="318.56" cy="1093.17" r="20" />
			<circle class="cls-4" cx="719.56" cy="1250.17" r="41" />
			<circle class="cls-4" cx="944.56" cy="1187.17" r="25" />
			<circle class="cls-4" cx="981.56" cy="1087.17" r="25" />
			<circle class="cls-4" cx="1152.56" cy="663.17" r="19" />
			<circle class="cls-4" cx="1222.56" cy="814.17" r="38" />
			<circle class="cls-4" cx="1194.56" cy="521.17" r="29" />
			<circle class="cls-4" cx="1199.56" cy="891.17" r="17" />
			<circle class="cls-4" cx="764.06" cy="182.01" r="54.86" />
		</g>
	</g>
</svg>
